<?xml version="1.0" encoding="utf-8"?>
<!-- Generator: Adobe Illustrator 22.1.0, SVG Export Plug-In . SVG Version: 6.00 Build 0)  -->
<svg version="1.1" id="Capa_1" xmlns="http://www.w3.org/2000/svg" xmlns:xlink="http://www.w3.org/1999/xlink" x="0px" y="0px"
	 viewBox="0 0 126 39" style="enable-background:new 0 0 126 39;" xml:space="preserve">
<style type="text/css">
	.st0{fill:#A22244;}
	.st1{fill:#B3B2B2;}
</style>
<g>
	<path class="st0" d="M0.8,32.6c0-0.9,0.3-1.7,0.9-2.3c0.6-0.7,1.2-1.2,1.8-1.4l0.9-0.4c-0.2,0-0.4-0.1-0.6-0.1
		C3.6,28.3,3.3,28,3,27.7s-0.6-0.9-0.6-1.4c0-0.7,0.6-2,1.8-3.9c-1.8-1.2-2.7-3-2.7-5.4c0-2.3,0.8-4,2.3-5.2c1.5-1.2,3.5-1.8,6-1.8
		c1.5,0,2.9,0.3,4.1,0.8l5.9-0.1v2.8l-2.8,0.5c0,0,0.1,0.2,0.2,0.5c0.1,0.3,0.2,0.6,0.3,1c0.1,0.4,0.1,0.8,0.1,1.2
		c0,2.4-0.7,4.2-2.2,5.3c-1.5,1.2-3.5,1.7-6,1.7c-0.3,0-0.5,0-0.8,0c-0.3,0-0.5-0.1-0.7-0.1c-0.2,0-0.3-0.1-0.3-0.1l-0.1,2.3h5.1
		c2.2,0,3.9,0.5,5.1,1.4c1.2,0.9,1.8,2.2,1.8,4c0,2-0.8,3.6-2.4,4.8c-1.6,1.2-4,1.8-7.2,1.8c-2.9,0-5.1-0.4-6.6-1.1
		S0.8,34.4,0.8,32.6z M11.1,29.5H7.5c-0.1,0-0.3,0.1-0.4,0.2c-0.2,0.1-0.4,0.4-0.7,0.8c-0.3,0.4-0.5,0.8-0.5,1.2
		c0,0.8,0.3,1.4,1,1.7c0.7,0.3,1.8,0.4,3.3,0.4c1.6,0,2.7-0.2,3.4-0.6c0.7-0.4,1-1,1-1.8c0-0.7-0.3-1.2-0.8-1.5
		C13.2,29.7,12.3,29.5,11.1,29.5z M9.6,13.4c-2,0-2.9,1.1-2.9,3.3c0,2.3,0.9,3.4,2.8,3.4c1.1,0,1.8-0.3,2.3-0.8
		c0.4-0.6,0.7-1.4,0.7-2.6C12.4,14.5,11.4,13.4,9.6,13.4z"/>
	<path class="st0" d="M31.1,9.9c2.8,0,4.9,0.8,6.4,2.4c1.5,1.6,2.3,3.9,2.3,6.9c0,3.1-0.8,5.5-2.5,7.3c-1.7,1.8-3.9,2.7-6.7,2.7
		c-5.9,0-8.8-3.2-8.8-9.5c0-3.1,0.8-5.5,2.5-7.2S28.2,9.9,31.1,9.9z M30.9,13.8c-1.3,0-2.3,0.4-2.9,1.3c-0.6,0.8-0.9,2.3-0.9,4.4
		c0,2,0.3,3.4,0.9,4.3c0.6,0.9,1.5,1.4,2.8,1.4c1.3,0,2.2-0.4,2.8-1.3c0.6-0.9,0.9-2.4,0.9-4.5c0-1.9-0.3-3.2-0.8-4.1
		C33,14.3,32.1,13.8,30.9,13.8z"/>
	<path class="st0" d="M40.6,2.4l7.6-0.3v9.6c1.6-1.2,3.2-1.8,4.9-1.8c2.3,0,4,0.8,5.3,2.4c1.2,1.6,1.8,3.8,1.8,6.7
		c0,3.3-0.8,5.8-2.5,7.6c-1.7,1.8-4.2,2.6-7.4,2.6c-1.1,0-2.3-0.1-3.4-0.2c-1.2-0.1-2.1-0.2-2.7-0.4l-0.9-0.2V5.9l-2.6-0.7V2.4z
		 M48.2,15.5v9.4c0.5,0.2,1.4,0.3,2.5,0.3c2.7,0,4.1-1.9,4.1-5.9c0-3.6-1.1-5.4-3.4-5.4c-0.6,0-1.2,0.1-1.7,0.4
		c-0.5,0.3-0.9,0.5-1.2,0.8L48.2,15.5z"/>
	<path class="st1" d="M63.7,26.1c0-0.9,0.3-1.7,0.9-2.3c0.6-0.6,1.3-0.8,2.1-0.8c0.9,0,1.7,0.3,2.2,0.8c0.5,0.5,0.7,1.3,0.7,2.3
		c0,1-0.3,1.7-0.9,2.3c-0.6,0.6-1.3,0.8-2.1,0.8c-0.9,0-1.7-0.3-2.2-0.8C63.9,27.9,63.7,27.1,63.7,26.1z"/>
	<path class="st1" d="M102.5,16.1v9.1l2.3,0.9v2.8h-9.2v-2.8l1.8-0.9v-8.1c0-1-0.2-1.7-0.5-2.1c-0.3-0.5-0.8-0.7-1.5-0.7
		c-0.7,0-1.3,0.1-1.9,0.4c-0.6,0.3-1.1,0.6-1.4,0.9l-0.5,0.4v9.1l1.8,0.9v2.8h-8.7v-2.8l1.8-0.9v-8.1c0-1-0.1-1.7-0.4-2.2
		c-0.3-0.4-0.8-0.7-1.5-0.7c-0.7,0-1.3,0.1-2,0.4c-0.6,0.3-1.1,0.6-1.4,0.9l-0.4,0.4v9.1l1.8,0.9v2.8H73v-2.8l2.7-0.9V13.9L73,13.3
		v-2.8l7.1-0.3l0.2,2.4c0.2-0.2,0.5-0.5,0.9-0.8c0.4-0.3,1.1-0.7,2.2-1.2c1.1-0.5,2-0.8,2.9-0.8c2.3,0,3.8,1,4.7,3
		c0.3-0.3,0.7-0.7,1.2-1.1c0.5-0.4,1.2-0.8,2.2-1.2c1-0.4,1.9-0.7,2.9-0.7c1.7,0,3,0.5,3.9,1.6C102,12.6,102.5,14.1,102.5,16.1z"/>
	<path class="st1" d="M119.5,10.4l5.7-0.2v2.9l-2.1,0.4l-4,5.9l3.9,5.9l2.5,0.7v2.8h-9.4v-2.8l1.1-0.4l-1.8-3l-3.7,6.2h-5.9v-2.8
		l2.6-0.7l3.8-5.7l-4.2-6.1l-1.9-0.4v-2.8l8.9-0.2v2.9l-1,0.2l1.8,3L119.5,10.4z"/>
</g>
</svg>
