<?xml version="1.0" encoding="utf-8"?>
<!-- Generator: Adobe Illustrator 26.0.2, SVG Export Plug-In . SVG Version: 6.00 Build 0)  -->
<svg version="1.1" id="Capa_1" xmlns="http://www.w3.org/2000/svg" xmlns:xlink="http://www.w3.org/1999/xlink" x="0px" y="0px"
	 viewBox="0 0 126 39" style="enable-background:new 0 0 126 39;" xml:space="preserve">
<style type="text/css">
	.st0{fill:#BC955C;}
	.st1{fill:#FCFAFB;}
</style>
<g>
	<g>
		<path class="st0" d="M32.5,18.2c-0.1-0.8-0.3-1.7-0.6-2.5c0-0.1-0.1-0.1-0.2-0.1s-0.1,0-0.1,0v0.1c0.3,0.7,0.4,1.4,0.5,2.3
			c0,0.4,0,0.9-0.2,1.6c-0.1,0.4,0,0.8,0,1.2c0,0.2-0.1,0.2-0.1,0.2c-0.1,0-0.1-0.1-0.2-0.3c0-0.5,0-0.9-0.1-1.2l0,0
			c0-0.7,0-1.2-0.2-1.7c-0.1-0.3-0.3-0.7-0.8-1.2c-0.2-0.3-0.3-0.6-0.4-0.9c0-0.1,0-0.1-0.1-0.2c0-0.1,0-0.2-0.1-0.3l-0.2-0.5
			l-0.1-0.1c-0.1,0-0.2,0-0.2,0.1c0,0-0.1,0.1,0,0.2l0.4,1.5c0.1,0.3,0.3,0.5,0.5,0.8l0,0c0.1,0.1,0.2,0.3,0.3,0.4
			c0.2,0.2,0.2,0.4,0.3,0.7c0.1,0.5,0.1,1.2,0.2,2.3l0.3,1.5c0.1,0.5,0.1,1-0.1,1.7c0,0.2,0,0.3,0,0.3l0,0c0,0,0.1,0,0.3-0.2
			c0.4-0.5,0.4-2.2,0.4-3.6c0-0.4,0.1-0.8,0.2-1.1C32.5,18.9,32.6,18.5,32.5,18.2"/>
		<path class="st0" d="M31,15.9v-0.3c0-0.1,0-0.1,0-0.1c-0.1-0.1-0.2-0.2-0.3-0.2h-0.1l0,0c0,0,0,0,0,0.1c0.1,0.6,0.3,1,0.7,1.4h0.1
			l0,0c0,0,0,0,0-0.1l-0.2-0.4C31.1,16.1,31.1,16,31,15.9"/>
		<path class="st0" d="M29.2,20L29.2,20L29.2,20c-0.1,0-0.2-0.1-0.2-0.2c-0.1-0.1-0.2-0.6-0.4-1.3c0-0.2-0.1-0.4-0.1-0.6
			c-0.1-0.4-0.2-0.6-0.5-0.8c-0.5-0.3-0.9-0.9-1.2-1.6c-0.1-0.2-0.2-0.2-0.2-0.2s-0.1,0-0.1,0.1c-0.1,0.1-0.1,0.2,0,0.3
			c0.2,0.4,0.3,0.7,0.5,1c0.1,0.1,0.2,0.2,0.2,0.2l0,0c0.3,0.3,0.6,0.5,0.8,0.7c0.2,0.3,0.2,0.5,0.3,0.8c0,0.1,0,0.1,0,0.2l0,0
			c0.1,0.7,0.3,1.3,0.8,2.1c0.1,0.2,0.2,0.5,0.2,0.7l0.1,0.9c0,0.2,0.1,0.3,0.2,0.3l0,0c0,0,0.1-0.1,0.1-0.2c0-0.6,0-1.2-0.1-2.7
			c-0.1-1.1-0.3-1.7-0.6-2.1c-0.1-0.1-0.1-0.2-0.2-0.2l0,0c0,0,0,0.1,0,0.2c0.3,0.7,0.5,1.4,0.5,2.1C29.3,19.8,29.3,19.9,29.2,20
			L29.2,20z"/>
		<path class="st0" d="M27.6,15.4c0-0.1-0.1-0.1-0.2-0.1s-0.1,0-0.1,0l0,0c0.1,0.5,0.4,0.8,0.7,1.1h0.1l0,0v-0.1
			C27.8,16.1,27.6,15.8,27.6,15.4"/>
		<path class="st0" d="M30.4,20L30.4,20L30.4,20c-0.1,0-0.1,0-0.2-0.1c0-0.1,0-0.1-0.1-0.2l-0.2-1.5c-0.2-0.6-0.3-0.9-0.6-1.2
			c-0.4-0.4-0.7-1-1.1-1.9c-0.1-0.2-0.1-0.3-0.2-0.3c0,0-0.1,0.1-0.1,0.2c0,0.1,0,0.2,0,0.2c0.3,0.8,0.6,1.4,1,1.8
			c0.3,0.2,0.5,0.6,0.5,0.9l0,0c0,0.2,0.1,0.4,0.1,0.5l0,0c0.2,0.8,0.3,1.7,0.6,2.4c0.1,0.2,0.2,0.4,0.2,0.7c0,0.6,0.1,0.9,0.1,1.2
			c0,0.2,0.1,0.3,0.2,0.3c0,0,0.1-0.1,0.1-0.3c0.1-0.8,0.1-1.8,0-2.9c0-0.6-0.1-1.1-0.2-1.6c-0.1-0.2-0.2-0.5-0.3-0.6
			c-0.1-0.1-0.1-0.1-0.2-0.1c0,0,0,0.1,0,0.2c0.1,0.6,0.3,1.3,0.3,2C30.5,19.9,30.5,20,30.4,20L30.4,20z"/>
		<path class="st0" d="M29.4,16.3c-0.1-0.3-0.2-0.5-0.3-0.7L29,15.2c0-0.1,0-0.1-0.1-0.2c-0.1-0.1-0.2-0.1-0.2-0.1h-0.1V15
			c0.1,0.7,0.4,1.1,0.7,1.5l0,0h0.1l0,0l0,0c0,0,0,0,0-0.1C29.5,16.4,29.5,16.4,29.4,16.3"/>
		<path class="st0" d="M27.8,19.9L27.8,19.9c0,0.1,0.1,0.2,0.1,0.3c0,0.1,0.1,0.2,0.1,0.2l0.1,0.1c0.1,0,0.1-0.1,0.1-0.1
			c0-0.1,0-0.1,0-0.2c-0.1-1.5-0.3-2.4-0.7-2.9c-0.1-0.1-0.1-0.1-0.1-0.1s0,0,0,0.1s0,0.1,0,0.2c0.1,0.3,0.2,0.5,0.2,0.7
			c0,0.1,0,0.2,0,0.2l0,0l0,0l0,0c-0.1,0-0.1-0.1-0.2-0.2c-0.2-0.5-0.5-0.8-0.8-1c-0.5-0.3-0.9-0.6-1.2-0.9
			c-0.1-0.1-0.2-0.3-0.3-0.5c0,0,0-0.1-0.1-0.1s-0.1,0.1-0.2,0.2c0,0.1,0,0.1,0,0.1c0.3,0.5,0.6,0.9,1,1c0.7,0.3,1.1,0.8,1.4,1.3
			C27.5,19.2,27.7,19.6,27.8,19.9"/>
		<path class="st0" d="M25.7,15.6c-0.1,0-0.1,0-0.1,0.1l0,0c0.2,0.4,0.5,0.6,0.8,0.8h0.1l0,0c0,0,0,0,0-0.1
			c-0.2-0.2-0.4-0.4-0.5-0.7C25.8,15.7,25.7,15.6,25.7,15.6"/>
		<path class="st0" d="M24.3,17.2L24.3,17.2c0.2,0.1,0.4,0.1,0.5,0.2c0.2,0.1,0.3,0.1,0.4,0.3c0.3,0.3,0.5,0.6,0.8,0.9v0.1
			c0.2,0.3,0.4,0.6,0.6,0.8l0.1,0.1h0.1v-0.1c-0.1-0.3-0.3-0.9-0.7-1.7c0-0.1-0.2-0.2-0.3-0.2l0,0l0,0l0.2,0.3V18l0,0l0,0
			c0,0-0.1,0-0.1,0.1l0,0h-0.1l0,0l0,0c-0.1-0.2-0.3-0.4-0.4-0.5s-0.1-0.1-0.3-0.2c-0.2-0.1-0.3-0.1-0.6-0.2
			c-0.2-0.1-0.3-0.2-0.4-0.3c-0.1-0.1-0.3-0.2-0.4-0.4h-0.1h-0.1c0,0.1,0,0.1,0,0.2c0.1,0.2,0.3,0.3,0.4,0.4
			C24.1,17.2,24.2,17.2,24.3,17.2"/>
		<path class="st0" d="M30,23.4c-0.4-0.3-0.7-0.4-0.9-0.6c-1.6-1.2-3.2-2.4-5-3.6c-0.1,0-0.1,0-0.1,0l0,0c0,0.1,0,0.2,0.2,0.3
			l5.2,3.8h0.1c0.1,0,0.2,0.1,0.2,0.2c0,0,0.1,0.1-0.1,0.2s-0.3,0.1-0.5,0.1c-0.3,0-0.6-0.1-0.9-0.3c-1.4-1.1-2.7-2.2-4-3.2h-0.1
			l0,0c0,0,0,0.1,0,0.2s0.1,0.1,0.1,0.2c1.3,1.1,2.7,2.2,4,3.3c0.3,0.2,0.6,0.2,0.9,0.2c0.4,0,0.7-0.2,1.1-0.4
			C30.1,23.6,30.1,23.5,30,23.4"/>
		<path class="st0" d="M28.1,23.1c0.2,0.2,0.4,0.3,0.6,0.4h0.1h0.1c0,0,0-0.1-0.1-0.1l-4.6-3.6h-0.1l0,0c0,0,0,0.1,0.1,0.3
			L28.1,23.1z"/>
		<path class="st0" d="M26.9,23.3l-3-2.5h-0.1l0,0c0,0,0,0.1,0.1,0.2c0.9,0.8,1.8,1.6,2.8,2.5c0.2,0.1,0.3,0.2,0.4,0.3
			c0.1,0,0.1,0,0.2,0s0.1,0,0.1-0.1c0,0,0,0,0-0.1L26.9,23.3z"/>
		<path class="st0" d="M24.6,16.8L24.6,16.8h0.1C24.7,16.8,24.7,16.7,24.6,16.8c0.1-0.1,0-0.2,0-0.3c-0.1-0.1-0.1-0.1-0.2-0.2
			c-0.1,0-0.1,0-0.2,0h-0.1v0.1C24.3,16.6,24.4,16.7,24.6,16.8"/>
		<path class="st0" d="M27.5,24.4c0.2,0,0.3,0,0.5-0.1c0,0,0.1-0.1,0-0.1c0,0,0-0.1-0.1-0.1h-0.1c0,0,0,0-0.1,0l0,0
			c-0.1,0-0.1,0-0.2,0c-0.2,0-0.5-0.1-0.7-0.3c-0.7-0.6-1.3-1.2-1.8-1.6l0,0c-0.4-0.4-0.7-0.7-1.1-1h-0.1l0,0v0.1c0,0,0,0.1,0.1,0.1
			l0.2,0.2c0.9,0.8,1.7,1.6,2.6,2.4c0.3,0.2,0.4,0.4,0.6,0.4C27.3,24.4,27.4,24.4,27.5,24.4"/>
		<path class="st0" d="M23.4,21.5c0.7,0.7,1.4,1.4,2.1,2.2c0.2,0.2,0.4,0.3,0.5,0.3l0,0c0,0,0,0-0.1-0.1c-0.7-0.6-1.4-1.3-2-1.9
			l-0.1-0.1l0,0C23.8,21.7,23.6,21.5,23.4,21.5L23.4,21.5L23.4,21.5"/>
		<path class="st0" d="M26.4,24.6c0.1,0,0.1,0,0.2,0c0,0,0,0,0-0.1s-0.1-0.1-0.1-0.1c-0.3,0-0.6-0.1-0.9-0.3
			c-0.8-0.7-1.6-1.5-2.3-2.3h-0.1l0,0c0,0,0,0.1,0,0.2l0.1,0.1l0,0c0.4,0.5,1,1,1.8,1.8c0.2,0.2,0.4,0.4,0.7,0.5
			C26.1,24.5,26.2,24.6,26.4,24.6"/>
		<path class="st0" d="M25.3,24.3L25.3,24.3c0.1-0.1,0-0.2-0.1-0.2c-0.4-0.1-0.8-0.6-1.4-1.2l-0.3-0.3h-0.1l0,0v0.1l1.1,1.2
			C24.8,24.2,25,24.3,25.3,24.3L25.3,24.3z"/>
		<path class="st0" d="M11.9,11.2L11.9,11.2c0.1,0,0.1,0,0.2,0c0.1,0,0.1,0,0.2,0h0.1h0.1c0.1-0.1,0.3-0.2,0.4-0.3
			c0.1,0,0.1,0,0.2,0c0.1,0,0.3,0,0.4,0.2c0.1,0.1,0.1,0.1,0.1,0.2c0,0.1-0.1,0.1-0.2,0.1c-0.1,0-0.1,0-0.2,0c-0.1,0-0.3,0-0.4,0.1
			c-0.4,0.1-0.6,0.4-0.6,0.8l0,0c0,0.1,0,0.2-0.1,0.3c-0.1,0-0.1,0-0.2-0.1c-0.2-0.2-0.3-0.4-0.3-0.5C11.6,11.5,11.7,11.3,11.9,11.2
			 M11.4,11.5c-0.1,0.2-0.1,0.4-0.1,0.5c0.3,0.5,0.6,0.8,1.1,0.8l0,0c0.1,0,0.2,0,0.3-0.1c0-0.1,0-0.1-0.1-0.2
			c-0.3-0.2-0.4-0.5-0.3-0.7c0.1-0.3,0.4-0.4,0.7-0.4c0.1,0,0.1,0,0.2,0c0.2,0,0.3,0,0.4-0.1c0.2-0.2,0.4-0.3,0.6-0.3
			c0.1,0,0.2,0,0.3,0.1l0,0c0.1,0.1,0.1,0.2,0,0.3s-0.1,0.1-0.2,0.1c-0.2,0.1-0.4,0.1-0.5,0.2v0.1c0,0,0,0,0.1,0s0.1,0,0.2,0
			c0.1,0,0.1,0,0.2,0c0.3-0.1,0.6-0.3,0.9-0.6c0.1-0.1,0.1-0.1,0-0.2c-0.3-0.2-0.5-0.3-0.8-0.3c-0.1,0-0.2,0-0.3,0
			c-0.2,0-0.3,0.1-0.4,0.1c-0.1,0-0.2,0-0.3,0l-0.6-0.2c-0.1,0-0.2-0.1-0.3-0.1s-0.2,0-0.2,0.1l0,0c0,0,0,0,0.1,0
			c0.1,0.1,0.1,0.1,0.1,0.2c0,0.1-0.1,0.1-0.2,0.1h-0.1c-0.1,0-0.1,0-0.2,0.1C11.6,11.2,11.5,11.3,11.4,11.5"/>
		<path class="st0" d="M12.5,10.1c0.1,0.1,0.3,0.1,0.4,0.2l0,0c0,0,0.1,0,0.1-0.1c0.1-0.1,0.1-0.2,0.2-0.4c0-0.2,0.1-0.4,0.3-0.5
			l0.1-0.1c0.1-0.1,0.1-0.2,0.2-0.3c0.1-0.3,0-0.4-0.2-0.6v0.1l0,0c-0.1,0.5-0.4,0.8-0.6,0.9l-0.1,0.1c-0.2,0.1-0.3,0.2-0.3,0.3
			c-0.1,0.1-0.1,0.2-0.1,0.2C12.5,10.1,12.5,10.1,12.5,10.1"/>
		<path class="st0" d="M13.6,9.6C13.6,9.5,13.5,9.6,13.6,9.6c0.2,0.4,0.1,0.6-0.3,0.7c-0.1,0-0.1,0.1,0.1,0.1h0.1
			c0.3-0.2,0.4-0.4,0.3-0.7C13.7,9.6,13.7,9.5,13.6,9.6"/>
		<path class="st0" d="M14.1,8.8c0.1,0,0.1-0.1,0.1-0.2c0-0.1,0-0.3,0.1-0.3s0.1,0.1,0.1,0.2c0,0,0.1,0,0.1-0.1
			c0-0.2-0.1-0.4-0.2-0.5l0,0c0,0,0,0,0,0.1C14.1,8.2,14.1,8.5,14.1,8.8L14.1,8.8"/>
		<path class="st0" d="M14.1,9.4L14.1,9.4C15,9,15.2,8.5,15.2,8.2S15.1,7.7,15,7.5l0,0l0,0c0,0.5,0,0.8-0.3,1.1
			c-0.2,0.2-0.4,0.3-0.6,0.5L14,9.2v0.1C14,9.3,14,9.4,14.1,9.4"/>
		<path class="st0" d="M15.1,9.4c-0.2,0.2-0.4,0.3-0.7,0.4c-0.2,0.1-0.3,0.2-0.3,0.2v0.1l0,0l0,0c0.3-0.1,0.7-0.3,1.2-0.7
			c0.3-0.2,0.3-0.4,0.2-0.6h-0.1h-0.1c-0.2,0.2-1.1,0.6-1.2,0.8C14,9.6,14,9.7,14,9.7s0,0.1,0.1,0c0.1,0,0.7-0.4,0.8-0.5
			c0.2-0.1,0.2-0.1,0.2,0C15.3,9.3,15.2,9.3,15.1,9.4"/>
		<path class="st0" d="M13.9,10.6c0.1,0,0.2,0,0.3-0.1s0.9-0.5,1.2-0.5h0.1c0,0,0.1,0.2,0,0.3L15,10.5l0,0c0,0,0.1,0,0.2,0l0,0
			c0.5-0.1,0.7-0.3,0.6-0.6c0-0.1-0.1-0.2-0.3-0.2c-0.1,0-0.2,0-0.4,0.1c-0.3,0.1-0.6,0.3-0.9,0.4c-0.1,0-0.2,0.1-0.3,0.1
			C13.9,10.5,13.7,10.6,13.9,10.6"/>
		<path class="st0" d="M15.5,8.3c0.1-0.1,0.3-0.5,0.4-0.3c0.1,0.1,0,0.4-0.1,0.5s0,0.1,0.1,0.2l0,0c0,0,0,0,0.1,0
			c0.1-0.2,0.2-0.5,0.1-0.8c0-0.1-0.1-0.3-0.2-0.4h-0.1c0,0-0.1,0-0.1,0.1l-0.1,0.3c0,0.1-0.1,0.2-0.2,0.3c-0.1,0.1-0.1,0.1-0.1,0.2
			C15.4,8.4,15.5,8.4,15.5,8.3"/>
		<path class="st0" d="M16.3,8.7C16.5,8.8,16.8,8.9,17,9c0,0,0.1,0.1,0.2,0.1c0.2,0.1,0.4,0.2,0.6,0.3h0.1c0,0,0.1,0,0.1-0.1l0,0
			c0.2-0.2,0.3-0.4,0.3-0.6l0,0l0,0l0,0c-0.1,0-0.2,0-0.2,0c-0.1,0-0.2,0-0.3-0.1c-0.5-0.3-0.9-0.4-1.3-0.4h-0.1l0,0l0,0l0,0l0,0
			l0,0c0.5,0.1,0.9,0.3,1.4,0.5l0,0l0.1,0.1l0,0h-0.1h-0.1h-0.1c-0.4-0.2-1.2-0.5-1.3-0.5l0,0C16.3,8.6,16.3,8.6,16.3,8.7
			C16.3,8.6,16.3,8.7,16.3,8.7"/>
		<path class="st0" d="M15.8,11.1c-0.1,0-0.2-0.2-0.2-0.3l0,0l0,0v0.1c0,0.2,0.1,0.3,0.2,0.4h0.1c0.1,0,0.2-0.1,0.2-0.2
			c0-0.2-0.1-0.4-0.2-0.5l0,0C15.8,10.7,15.9,10.9,15.8,11.1C15.9,11.1,15.8,11.1,15.8,11.1"/>
		<path class="st0" d="M16.5,10.7c-0.1,0-0.3-0.3-0.3-0.4h-0.1l0,0v0.1c0,0.2,0.1,0.4,0.3,0.5c0,0,0.1,0.1,0.2,0.1s0.3-0.1,0.4-0.3
			c0.1-0.1,0-0.2,0-0.3c-0.2-0.3-0.6-0.5-0.9-0.6l0,0l0,0l0,0c0.1,0.1,0.2,0.2,0.3,0.2l0,0c0.1,0.1,0.3,0.2,0.4,0.3
			c0,0.1,0.1,0.1,0,0.2C16.7,10.6,16.6,10.7,16.5,10.7"/>
		<path class="st0" d="M15.9,9.4L15.9,9.4c0,0.2,1.2,0.7,1.3,0.8c0.1,0,0.1,0.1,0.2,0.1s0.1,0,0.2-0.1s0.2-0.3,0.1-0.5
			c-0.3-0.4-0.8-0.6-1.5-0.8l0,0l0,0l0,0l0,0l0,0l0,0c0,0,0,0,0.1,0C16.6,9,17,9.2,17.4,9.5l0,0c0.1,0.1,0.1,0.1,0.1,0.2l-0.1,0.1
			h-0.1c-0.1,0-0.3-0.1-0.4-0.1h-0.1l0,0C16.5,9.6,16.1,9.4,15.9,9.4L15.9,9.4z"/>
		<path class="st0" d="M26.9,8.6c0,0,0,0.1,0.1,0.1c1.8,1.3,3.3,3.2,4.4,5.8c0,0.1,0,0.2,0,0.2h-0.1c-0.1,0-0.2,0-0.3-0.1
			c-0.4-0.2-0.7-0.6-1.1-1c-1.3-2.1-2.8-3.4-4.2-4.4c0,0-0.1-0.1-0.1,0l0,0c0,0.1,0,0.2,0.1,0.3c1.3,0.9,2.6,2.4,4.2,4.8
			c0.5,0.7,1.3,1.1,2.2,1.1c0.1,0,0.2,0,0.3,0s0.2-0.1,0.2-0.1s0-0.1-0.1-0.1c-0.4-0.3-0.7-0.7-0.8-1.2c-1.3-2.8-3.2-4.4-4.5-5.4
			C27,8.6,27,8.5,26.9,8.6C26.9,8.5,26.9,8.6,26.9,8.6"/>
		<path class="st0" d="M30.6,14.2c0.1,0.1,0.1,0.1,0.2,0.1h0.1c0-0.1,0-0.2-0.1-0.3c-1.1-2-2.6-3.7-4.4-5c-0.1,0-0.1,0-0.2,0
			s-0.1,0-0.1,0s0,0.1,0.1,0.1C27.4,9.9,28.8,11.3,30.6,14.2"/>
		<path class="st0" d="M28.8,14.2c-0.1,0-0.2-0.1-0.3-0.2c-0.9-1.3-2-2.3-3-3.2l0,0l0,0c0,0.1,0,0.3,0,0.4c0.7,0.5,1.4,1.4,2,2.1
			l0,0c0.5,0.5,0.8,1,1.1,1.2c0.1,0.1,0.3,0.1,0.4,0.1s0.3-0.1,0.3-0.1c0.1-0.1,0.1-0.2,0.1-0.3c-0.8-1.5-2-2.9-3.7-4.2l-0.1-0.1
			l0,0c0,0.1,0,0.3,0.1,0.4c1,0.9,2.1,1.9,3.2,3.5c0.1,0.1,0.1,0.2,0,0.3C28.9,14.1,28.8,14.2,28.8,14.2"/>
		<path class="st0" d="M25.3,11.5L25.3,11.5c-0.1,0.1-0.1,0.2,0,0.2c0.7,0.7,1.5,1.4,2.1,2.3c0.1,0.1,0.1,0.2,0.1,0.3
			c-0.1,0.1-0.2,0.2-0.3,0.2c-0.1,0-0.2,0-0.2-0.1c-0.5-0.4-0.9-0.9-1.4-1.4c-0.2-0.2-0.4-0.4-0.6-0.6h-0.1l-0.1,0.1
			c0,0.1,0,0.2,0,0.2l1.4,1.5c0.2,0.3,0.5,0.4,0.7,0.5c0.1,0,0.2,0,0.3,0c0.2,0,0.4-0.1,0.4-0.2c0.1-0.1,0.1-0.3,0-0.5
			C27.1,13.1,26.3,12.3,25.3,11.5L25.3,11.5z"/>
		<path class="st0" d="M24.9,11.9c0,0.1,0,0.1,0,0.2c0.6,0.7,1.3,1.4,2,2H27l0,0V14C26.4,13.2,25.7,12.5,24.9,11.9L24.9,11.9z"/>
		<path class="st0" d="M24.7,13C24.6,13,24.6,13,24.7,13c-0.1,0-0.2,0-0.2,0c0,0.1,0,0.1,0,0.2c0.5,0.4,0.9,0.8,1.2,1.3
			c0.1,0.1,0.1,0.2,0,0.3s-0.2,0.1-0.3,0.1c-0.1,0-0.2,0-0.3-0.1c-0.4-0.3-0.8-0.6-1.2-1l-0.1-0.1c0,0,0,0-0.1,0.1
			c0,0.1,0,0.1,0,0.2c0.6,0.7,1.1,1.1,1.3,1.2c0.2,0,0.3,0.1,0.5,0.1s0.3-0.1,0.4-0.2c0.1-0.1,0.1-0.3,0-0.6
			C26,14.3,25.4,13.7,24.7,13"/>
		<path class="st0" d="M24.1,13.6l1.2,1.1h0.1h0.1l0,0c-0.4-0.6-0.8-1-1.4-1.3C24.1,13.4,24.1,13.5,24.1,13.6"/>
		<path class="st0" d="M24,16c0.2,0,0.5-0.1,0.6-0.3c0.1-0.1,0.1-0.3,0-0.4c-0.3-0.4-0.6-0.7-1-1.1l0,0c0,0-0.1,0-0.1,0.1v0.1
			c0.4,0.4,0.7,0.7,0.7,0.8s0,0.2,0,0.3c-0.1,0.1-0.2,0.2-0.3,0.2c-0.1,0-0.1,0-0.2-0.1c-0.2-0.2-0.5-0.4-0.7-0.7l0,0h-0.1V15
			c0.3,0.4,0.6,0.6,0.9,0.8C23.9,16,23.9,16,24,16"/>
		<path class="st0" d="M23.7,15.3c0.1,0,0.1,0,0.1,0c0.1,0,0.1,0,0.1-0.1c0,0,0-0.1,0-0.2c-0.2-0.2-0.4-0.4-0.6-0.6h-0.1
			c-0.1,0-0.1,0.1-0.1,0.1s0,0.1,0.1,0.2C23.4,15,23.5,15.1,23.7,15.3"/>
		<path class="st0" d="M23.2,16l-0.6-0.6h-0.1h-0.1v0.1l0.4,0.4C22.9,16,23,16,23,16.1s-0.1,0.2-0.2,0.3l0,0
			c-0.1,0.1-0.2,0.1-0.2,0.2v0.1c0,0,0,0,0.1,0h0.1l0.5-0.4C23.3,16.3,23.3,16.2,23.2,16"/>
		<path class="st0" d="M22.5,16.2L22.5,16.2h0.1v-0.1l-0.3-0.5h-0.1c0,0-0.1,0-0.1,0.1v0.1L22.5,16.2z"/>
		<path class="st0" d="M22.6,8c0,0,0.1,0.1,0.3,0.2c0.8,0.3,1.5,0.6,2.1,1.1c0,0.1,0,0.2,0,0.2c0,0.1-0.1,0.1-0.2,0.1
			s-0.1,0-0.2-0.1C24,9,23.4,8.8,22.9,8.6l0,0c0,0.1,0,0.1,0.1,0.2c0.6,0.2,1.2,0.6,1.8,1.1C24.9,10,25,10,25,10
			c0.1,0,0.1,0,0.2-0.1c0.1-0.4,0-0.7-0.5-1C24.1,8.6,23.2,8.1,22.6,8L22.6,8z"/>
		<path class="st0" d="M23,9.2L23,9.2c-0.1,0.1,0,0.2,0,0.2c0.1,0.1,0.4,0.2,0.6,0.4c0.5,0.3,1,0.5,1,0.7c0.1,0.1,0.1,0.3,0,0.4
			c0,0.1-0.1,0.1-0.2,0.1s-0.1,0-0.2-0.1l-1-0.6l0,0l0,0c0,0.1,0,0.2,0.2,0.3c0.3,0.2,0.5,0.4,0.8,0.5h0.1c0.1,0.1,0.3,0.2,0.4,0.2
			s0.1,0,0.2-0.1c0.2-0.3,0.3-0.7,0.2-0.9C24.5,10.1,23.9,9.7,23,9.2"/>
		<path class="st0" d="M24.2,10.7L24.2,10.7c0.1,0,0.2,0,0.2,0c-0.1-0.2-1.3-0.8-1.3-0.8V10C23.5,10.3,23.8,10.5,24.2,10.7"/>
		<path class="st0" d="M23.2,12.4l0.6,0.5c0.1,0,0.1,0.1,0.2,0.1s0.1,0,0.2-0.1s0.2-0.2,0.3-0.4c0.1-0.3,0-0.5-0.2-0.6l-0.9-0.6l0,0
			l0,0c0,0,0,0.1,0,0.2c0.3,0.2,0.5,0.4,0.7,0.6c0.1,0.1,0.1,0.3,0.1,0.4c0,0.1-0.1,0.1-0.2,0.1s-0.1,0-0.2-0.1l-0.5-0.3
			c0,0,0,0-0.1,0.1C23.2,12.2,23.2,12.3,23.2,12.4"/>
		<path class="st0" d="M23.7,12.1c0,0,0.1,0,0.1-0.1v-0.1l-0.4-0.2h-0.1v0.1L23.7,12.1L23.7,12.1z"/>
		<path class="st0" d="M22.4,13.5c0,0,0,0.1,0,0.2l0.6,0.5h0.1c0.1,0,0.2,0,0.3-0.1l0.1-0.1c0.2-0.3,0.3-0.5,0.1-0.7
			c-0.2-0.2-0.3-0.4-0.6-0.5c0,0,0,0-0.1,0.1c0,0.1,0,0.2,0,0.2l0.3,0.3c0.1,0.1,0.1,0.2,0,0.3s-0.2,0.2-0.3,0.2c-0.1,0-0.1,0-0.1,0
			L22.4,13.5L22.4,13.5C22.5,13.4,22.5,13.5,22.4,13.5"/>
		<path class="st0" d="M22.7,13.1v0.1l0.2,0.2H23c0,0,0.1,0,0.1-0.1v-0.1L22.9,13L22.7,13.1L22.7,13.1"/>
		<path class="st0" d="M21.5,14.4L21.5,14.4c-0.1,0.1-0.1,0.2-0.1,0.2l0.5,0.6c0.1,0.1,0.1,0.1,0.2,0.1c0.2,0,0.4-0.2,0.6-0.4
			c0.1-0.2,0.1-0.4,0-0.5c-0.2-0.3-0.4-0.5-0.5-0.6l0,0c0,0,0,0-0.1,0.1c0,0.1,0,0.1,0,0.2l0.2,0.3c0.1,0.1,0,0.3,0,0.4
			C22.2,14.9,22.1,15,22,15c-0.1,0-0.1,0-0.2-0.1L21.5,14.4L21.5,14.4z"/>
		<path class="st0" d="M22.1,14.5L22.1,14.5c0.1-0.1,0.1-0.1,0.1-0.1l-0.3-0.3l0,0h-0.1v0.1L22.1,14.5L22.1,14.5z"/>
		<path class="st0" d="M23,21c0,0.1,0,0.2,0.1,0.2s0.1,0,0.2-0.1c0.5-0.7,0.3-2.9-0.3-3.9l0,0c0,0-0.1,0-0.1,0.1s0,0.1,0,0.2
			c0.5,1.2,0.7,2.1,0.6,2.9c0,0.1-0.1,0.2-0.2,0.2s-0.1,0-0.2-0.3c-0.1-0.9-0.4-1.6-0.8-2.2c0,0.1,0,0.3,0,0.4
			C22.6,18.9,22.8,19.8,23,21"/>
		<path class="st0" d="M22.5,17.3L22.5,17.3c-0.1,0.1-0.1,0.2,0,0.3c0.3,0.5,0.5,1.1,0.6,1.8l0,0l0,0C23.1,18.6,22.9,17.9,22.5,17.3
			L22.5,17.3z"/>
		<path class="st0" d="M19.2,7.4c0.1,0,0.2,0.1,0.3,0.1c0.2,0.1,0.3,0.2,0.5,0.3c0.6,0.3,1,0.8,1.2,1.9v0.1c0.3,1.1,0.4,1.8-0.7,2.8
			c-0.1,0.1-0.1,0.2,0,0.3c0,0.1,0.1,0.1,0.1,0.1l0,0l0,0c0.3-0.2,0.6-0.4,0.9-0.9c0.7-0.9-0.1-2.9-0.3-3.6c-0.2-0.5-0.5-0.8-1-1
			L19,6.9c-0.1-0.1-0.2-0.3-0.2-0.4c0-0.2,0.1-0.2,0.3-0.3c0.1-0.1,0.3-0.1,0.6-0.1c0.2,0,0.3,0,0.5,0c2.1,0.1,4,0.7,5.7,1.9l0,0
			c0.1,0.1,0.1,0.2,0,0.2c0,0.1-0.2,0.1-0.4,0.2c-0.2,0-0.3,0-0.4-0.1L24.9,8c0,0,0-0.1-0.1-0.1c0,0,0,0-0.1,0.1l-0.1,0.4
			c0,0.1,0,0.1,0.1,0.1c0.3,0.1,0.6,0.1,0.8,0.1c0.5,0,0.9-0.2,1.3-0.5C27,8.1,27,8,27,8s-0.1-0.1-0.2-0.1h-0.1
			c-0.4,0-0.8-0.1-1.2-0.4c-1.9-1.1-4-1.6-6.1-1.6C19.1,6,19,6,18.8,6c-0.2,0.1-0.3,0.3-0.4,0.4c0,0.2,0,0.4,0.2,0.5
			C18.8,7.2,19,7.3,19.2,7.4"/>
		<path class="st0" d="M9.7,11.7c0.1,0.3,0.2,0.4,0.4,0.5H11c0.1,0,0.1-0.1,0.1-0.2c0-0.1,0-0.1-0.1-0.1h-0.7
			c-0.2,0-0.4-0.4-0.5-0.7c-0.2-0.7,0.2-1.3,0.5-1.7c0,0,0-0.1,0.1-0.1l0,0l0,0l-0.1-0.1c0,0,0-0.1,0.1-0.2L10.5,9l0,0h-0.1l0,0
			c-0.3,0.1-0.6,0.4-1,0.9c-0.1,0.1-0.1,0.3-0.1,0.5L9.7,11.7z"/>
		<path class="st0" d="M11.4,11L11.4,11c-0.2,0-0.3,0.1-0.5,0.1s-0.4-0.1-0.5-0.2l0,0l0,0V11c0.2,0.2,0.3,0.3,0.5,0.3
			C11,11.3,11.2,11.3,11.4,11C11.4,11.1,11.4,11.1,11.4,11"/>
		<path class="st0" d="M10.2,10.3c0,0.1-0.1,0.2,0,0.3c0,0.1,0.1,0.1,0.2,0.1c0.1,0,0.1,0,0.2,0c0.3,0,0.7-0.2,1.2-0.6V10l0,0
			c-0.4,0.2-0.8,0.3-1,0.4c-0.1,0-0.1-0.1-0.1-0.1c0-0.1,0-0.2,0.1-0.3c0.2-0.1,0.3-0.3,0.4-0.4V9.5c0-0.1,0-0.1,0-0.1V9.3
			c0-0.1,0-0.1,0.1-0.2C11.4,9,11.4,9,11.5,8.9c0.1-0.1,0.1-0.1,0.1-0.2c0-0.1-0.1-0.1-0.2-0.1c-0.2,0.1-0.3,0.2-0.3,0.4
			s0,0.4-0.1,0.6C10.6,9.7,10.3,10,10.2,10.3"/>
		<path class="st0" d="M11.2,9.1c0,0.1,0,0.1,0,0.1c0.1,0.1,0.1,0.3,0.1,0.5l0,0c0.1-0.1,0.1-0.2,0.2-0.3c0-0.1,0-0.2-0.1-0.3
			C11.4,9.1,11.3,9.1,11.2,9.1C11.3,9.1,11.2,9.1,11.2,9.1"/>
		<path class="st0" d="M17.6,29.4c0.3,0.2,0.5,0.7,0.7,1.2c0.2,0.6,0.4,1.3,0.9,1.4c0.1,0,0.1,0,0.2,0l0,0c0,0,0,0-0.1-0.1
			c-0.3-0.1-0.4-0.6-0.6-1.1c-0.2-0.6-0.5-1.4-0.9-1.5c-0.1,0-0.1,0-0.2,0s-0.1,0-0.1,0S17.5,29.4,17.6,29.4"/>
		<path class="st0" d="M18.4,29.3c-0.1,0-0.1,0-0.1,0S18.3,29.3,18.4,29.3c0.3,0.3,0.5,0.8,0.7,1.3c0.3,0.7,0.5,1.4,1,1.4l0,0h0.1
			l0,0c-0.3-0.1-0.5-0.6-0.7-1.2C19.3,30.1,19,29.4,18.4,29.3"/>
		<path class="st0" d="M20,30.8L20,30.8c0.2,0.6,0.4,1.2,1,1.2h0.1l0,0c-0.4-0.3-0.5-0.7-0.6-1.1s-0.3-0.8-0.7-0.9h-0.1
			c0,0,0,0-0.1,0v0.1C19.8,30.2,19.9,30.4,20,30.8"/>
		<path class="st0" d="M18.4,28.9L18.4,28.9h0.2c0.2,0,0.2-0.1,0.2-0.2s0-0.1-0.1-0.1s-0.2,0-0.3,0l0,0c-0.2,0-0.4,0-0.7-0.1h-0.1
			h-0.1c0,0-0.1,0-0.1,0.1c0,0,0,0.1,0,0.2c0.1,0.2,0.4,0.2,0.9,0.2C18.2,29,18.3,28.9,18.4,28.9"/>
		<path class="st0" d="M23,28.9c0-0.1-0.2-0.4-0.6-0.4c-0.5,0-0.6,0.3-0.7,0.6c0,0.1,0,0.1,0,0.1l0.1,0.1c0.1,0,0.1,0,0.1-0.1
			c0-0.3,0.2-0.3,0.3-0.3c0.1,0,0.2,0.1,0.3,0.2c0,0.1,0,0.2-0.1,0.3c-0.2,0.1-0.2,0.3-0.1,0.5c0.2,0.4,0.3,0.7,0,1.1
			c-0.1,0.3,0,0.4,0.2,0.5l0,0c0.1,0.1,0.1,0.2,0,0.2c0,0.1-0.1,0.2-0.3,0.2c-0.1,0-0.2-0.1-0.3-0.2c0-0.1-0.1-0.2-0.2-0.2
			s-0.1,0-0.1,0.1v0.1c0.2,0.4,0.4,0.5,0.7,0.5c0.1,0,0.3,0,0.4-0.1s0.2-0.2,0.2-0.4c0-0.1,0-0.3-0.1-0.4s-0.2-0.3-0.1-0.5
			c0.1-0.3,0.1-0.6,0-0.9c-0.1-0.2-0.1-0.4,0.1-0.5C23,29.3,23.1,29.1,23,28.9"/>
		<path class="st0" d="M17.1,31.4c0-0.1-0.1-0.1-0.2-0.1h-0.1l-0.1,0.3c0,0.1-0.1,0.1-0.2,0.1s-0.2,0-0.2-0.1s-0.1-0.1,0-0.2
			c0-0.1,0.1-0.2,0.2-0.3c0.1-0.1,0.1-0.2,0-0.4c-0.1-0.3-0.2-0.6-0.1-0.9l0.1-0.4c0-0.1,0-0.3-0.1-0.3c-0.1-0.1-0.2-0.2-0.1-0.3
			c0-0.1,0.1-0.2,0.2-0.2h0.1c0.1,0,0.1,0.1,0.2,0.2v0.1C16.9,29,16.9,29,17,29h0.1c0,0,0-0.1,0-0.2c-0.1-0.3-0.4-0.5-0.7-0.5
			c-0.2,0-0.3,0.1-0.4,0.2s-0.1,0.2-0.1,0.4c0,0.2,0,0.2,0.1,0.4l0,0c0.1,0.2,0.1,0.4,0,0.6c-0.1,0.4-0.1,0.6,0,0.8
			c0.1,0.3,0.1,0.5,0,0.6v0.1c-0.1,0.1-0.1,0.2-0.1,0.4c0.1,0.3,0.3,0.4,0.5,0.4c0.1,0,0.3,0,0.4-0.1C17,31.8,17.1,31.6,17.1,31.4"
			/>
		<path class="st0" d="M21.7,32.2c-0.1,0-0.1,0-0.2,0.1s-0.2,0.1-0.4,0.1H21c-1.2,0-2.3,0-3.5-0.1c-0.1,0-0.2,0-0.3-0.1
			c-0.1,0-0.2-0.1-0.2-0.1c-0.1,0-0.1,0-0.1,0s0,0.1,0,0.2c0.2,0.3,2.2,0.3,2.9,0.3h0.7c0.3,0,0.5,0,0.6,0c0.3,0,0.5-0.1,0.7-0.2
			c0.1,0,0.1-0.1,0.1-0.2C21.9,32.2,21.8,32.2,21.7,32.2"/>
		<path class="st0" d="M17.5,7.9c1.1,0.3,1.9,0.6,2.1,1.6c0,0.4,0.1,0.6,0.2,0.7l0,0v-0.1c0-0.9-0.3-1.6-0.9-1.9
			c-0.3-0.2-0.8-0.4-1.4-0.6c-0.3,0-0.4-0.2-0.4-0.5s0.2-0.6,0.6-0.6h0.1c0.1,0,0.2,0,0.2-0.1c0,0,0,0-0.1-0.1l0,0h-0.1
			c-0.4,0-0.7,0.1-0.8,0.7C17,7.6,17.1,7.8,17.5,7.9"/>
		<path class="st0" d="M17.7,6.9L17.7,6.9C17.9,6.9,18,7,18,7.1s-0.1,0.2-0.3,0.2l0,0c0,0,0,0,0.1,0s0.2,0,0.2,0
			c0.2,0,0.3-0.1,0.4-0.1c0,0,0-0.1,0-0.2S18.2,6.8,18,6.8C17.8,6.9,17.7,6.9,17.7,6.9"/>
		<path class="st0" d="M19.2,8c0,0,0.1,0.1,0.2,0.1s0.2,0,0.2,0l0,0c-0.2-0.3-0.9-0.5-1.2-0.3C18.2,7.7,19.1,7.7,19.2,8"/>
		<path class="st0" d="M19.4,9.8c-0.2-0.3-0.5-0.6-0.8-0.8c-0.1,0-0.1,0-0.1,0c0.5,0.4,0.8,0.8,1,1.6c0,0.1,0,0.2-0.1,0.3l0,0
			c-0.1,0-0.1,0.1-0.1,0.1v0.1c0,0.1,0.1,0.1,0.2,0.1l0,0l0,0L20,11c0,0,0.1-0.1,0.1-0.2c0-0.1,0-0.1,0-0.1
			C19.8,10.6,19.6,10.3,19.4,9.8"/>
		<path class="st0" d="M17.9,10.2L17.9,10.2C17.8,10.2,17.8,10.3,17.9,10.2c0.1,0.5,0.1,1,0.1,1.6v0.1c0,0,0.1,0.1,0.2,0.1
			c0.2-0.1,0.4-0.1,0.6-0.2c0.2-0.1,0.2-0.2,0.2-0.4c-0.1-0.6-0.3-1.2-0.7-1.7h-0.1l0,0v0.1c0.5,0.8,0.6,1.4,0.4,1.7
			c-0.1,0.1-0.2,0.2-0.3,0.2c-0.1,0-0.2,0-0.2-0.2C18.1,10.8,18,10.5,17.9,10.2L17.9,10.2z"/>
		<path class="st0" d="M18.5,11.1V11c-0.1-0.5-0.4-1.2-0.5-1.2l0,0v0.1c0.1,0.4,0.2,0.8,0.3,1.3C18.4,11.2,18.5,11.3,18.5,11.1"/>
		<path class="st0" d="M19.2,10.8c0.1,0.1,0.1,0,0.1-0.1c-0.2-0.5-0.7-1.3-0.8-1.3C18.8,9.8,19,10.3,19.2,10.8"/>
		<path class="st0" d="M16.8,11.8l0.1-0.6c0-0.1,0-0.1,0-0.1s0,0-0.1,0.1c-0.1,0.2-0.3,0.9-0.2,1.1l0.1,0.1c0.1,0,0.1,0,0.2,0
			c0.2,0,0.4-0.1,0.5-0.2c0.3-0.3,0.2-0.9,0.2-1.4v-0.1c0-0.1-0.1-0.1-0.1-0.1h-0.1c0,0-0.1,0.1,0,0.1c0,0.4,0,0.8-0.1,1.2
			C17.2,12,17.1,12,17,12S16.8,12,16.8,11.8"/>
		<path class="st0" d="M17.2,11.5c0-0.2,0-0.4,0-0.7l0,0c0,0-0.1,0-0.1,0.1c0,0.2,0,0.4-0.1,0.7v0.1l0,0
			C17.2,11.6,17.2,11.6,17.2,11.5"/>
		<path class="st0" d="M16.9,9.7C16.9,9.7,17,9.7,16.9,9.7H17c0,0,0-0.1-0.1-0.1c-0.2-0.1-0.6-0.3-0.8-0.3l0,0v0.1
			C16.4,9.3,16.7,9.6,16.9,9.7"/>
		<path class="st0" d="M15.4,12.4c0.1,0.1,0.2,0.1,0.4,0.1c0.1,0,0.4,0,0.5-0.4l0.2-0.7v-0.1h-0.1c-0.1,0-0.2,0.1-0.2,0.2
			c0,0.2-0.1,0.4-0.2,0.7c0,0.1-0.1,0.1-0.1,0.1s-0.1,0-0.1-0.1v-0.1c0.1-0.1,0.1-0.2,0.2-0.4v-0.1l0,0h-0.1
			c-0.1,0.2-0.2,0.3-0.3,0.5C15.4,12.2,15.4,12.3,15.4,12.4"/>
		<path class="st0" d="M13.5,11.6c-0.1,0-0.1,0-0.2,0c-0.1,0-0.1,0-0.1,0.1v0.1c0.8,0.5,1,1.2,0.6,2c0,0.1,0,0.1,0,0.1l0,0
			c0,0,0.1,0,0.1-0.1C14.4,13,14.3,12.3,13.5,11.6"/>
		<path class="st0" d="M6.8,15c0,0.1,0,0.1,0.1,0.1l0,0C7,15.1,7,15.1,7,15c0,0,0-0.1,0-0.2c-0.2-0.3,0-0.4,0.1-0.5l0,0l0.1-0.1
			c0-0.1,0.1-0.1,0-0.1c0.1-0.1,0-0.1,0-0.1H7.1c-0.1,0.1-0.2,0.1-0.3,0.2l0,0l0,0H6.7c0,0-0.1,0.1,0,0.2C6.7,14.7,6.7,14.8,6.8,15"
			/>
		<path class="st0" d="M7.3,15.2c0,0.1,0.1,0.1,0.2,0.1h0.1c0-0.1,0-0.1,0-0.2c-0.2-0.4,0-0.5,0.2-0.6l0,0v-0.1l-0.1-0.1H7.6
			C7.2,14.5,7.2,14.7,7.3,15.2"/>
		<path class="st0" d="M7.8,14.9l0.1,0.5c0,0.1,0.1,0.1,0.2,0.1c0,0,0.1,0,0.1-0.1c0,0,0-0.1,0-0.2c-0.1-0.2-0.1-0.4,0-0.5l0.2-0.2
			c0-0.1,0-0.1,0-0.2l-0.1-0.1H8.2L8,14.6C7.8,14.7,7.8,14.8,7.8,14.9"/>
		<path class="st0" d="M12.8,11.9h-0.1c-0.1,0-0.1,0-0.1,0.1s0,0.2,0.1,0.3c0.3,0.2,0.5,0.5,0.6,0.7c0.1,0.3,0,0.5-0.2,0.8l-1.5,1.4
			c-1,0.9-1.1,1.8-0.4,2.6l0,0v-0.1c-0.5-1.1,0.2-1.7,1.1-2.5l0,0c0.4-0.4,0.9-0.8,1.3-1.3C13.9,13.2,13.7,12.5,12.8,11.9"/>
		<path class="st0" d="M13.4,17.5c-0.3,0-0.5,0-0.7,0.1h-0.1c-0.2,0-0.3,0-0.4,0c-0.4,0-0.7-0.1-0.8-0.9c0-0.1,0-0.1-0.1-0.2
			c0,0-0.1,0.1-0.1,0.2c0,1,0.7,1,1.6,1c0.3,0,0.6,0,0.9,0.1c0.5,0.1,0.8,0.4,0.9,0.8c0.1,0.4-0.1,0.8-0.5,1.1
			C14,19.8,14,19.9,14,19.9c0,0.1,0.1,0.1,0.2,0.1c0.1,0,0.1,0,0.1,0c0.4-0.3,0.6-0.9,0.5-1.4c-0.1-0.6-0.6-1-1.2-1.1
			C13.6,17.5,13.5,17.5,13.4,17.5"/>
		<path class="st0" d="M11.7,13.9C10.3,14.6,9.8,16,10,17s0.9,1.6,1.8,1.7h1.6c0.1,0,0.2,0.1,0.2,0.1c0,0.1,0.1,0.2-0.1,0.4
			c0,0.1,0,0.1,0,0.1l0,0c0,0,0.1,0,0.1-0.1c0.2-0.2,0.3-0.4,0.2-0.6s-0.3-0.3-0.5-0.3c-0.3,0-0.5,0-0.8,0c-0.8,0-1.2,0-1.3-0.2
			c-0.7-0.3-1.1-0.9-1.1-1.6c0-0.9,0.6-1.9,1.6-2.5c0.5-0.3,1-0.7,1.1-0.9c0-0.1,0-0.2,0-0.2l0,0h-0.1
			C12.7,13.3,12.3,13.6,11.7,13.9"/>
		<path class="st0" d="M8.9,17.1c-0.1,0.4,0,0.6,0.2,0.8c0.3,0.2,0.6,0.4,0.9,0.6c0.4,0.2,0.4,0.6,0.5,1l0,0c0,0.1,0,0.2,0.1,0.3
			c0.1,0.3,0.3,0.5,0.7,0.6l0,0c0.1,0,0.1-0.1,0.1-0.1s0-0.1-0.1-0.1c-0.3-0.1-0.5-0.3-0.5-0.5c-0.1-0.5-0.3-1.1-0.5-1.3
			C10,18.2,9.7,18,9.4,17.8c-0.1,0-0.2-0.1-0.2-0.2c-0.1-0.3,0-0.7,0.4-1.4c0.1-0.7-0.2-1.2-0.8-1.6H8.7H8.6c0,0,0,0.1,0.1,0.1
			C9.2,15.3,9.6,15.8,8.9,17.1"/>
		<path class="st0" d="M9.2,19c0.4,0.3,0.6,0.6,0.6,1.1c0.1,1.1,0.6,1.6,1.6,1.6l0,0c0.2,0,0.3-0.1,0.4-0.1l0,0c0,0,0-0.1-0.1-0.2
			s-0.1-0.1-0.2-0.1h-0.1l0,0c-0.1,0-0.2,0.1-0.3,0.1s-0.1,0-0.2,0c-0.5-0.1-0.8-0.5-0.9-1.1c0-0.6-0.1-1-0.5-1.2
			c-0.5-0.3-0.8-0.6-1-0.9c-0.3-0.6-0.1-0.9,0.1-1.3c0-0.1,0.1-0.2,0.1-0.2c0.1-0.2,0.1-0.3,0.1-0.5c0-0.5-0.1-0.8-0.4-0.9H8.3H8.2
			c0,0,0,0.1,0.1,0.2c0.4,0.3,0.3,0.8,0,1.6C8.1,17.6,8,18,8.2,18.3C8.5,18.4,8.8,18.7,9.2,19"/>
		<path class="st0" d="M12.3,21.5C12.4,21.5,12.4,21.5,12.3,21.5c0.1,0,0.1,0,0.1-0.1c-0.1-0.1-0.2-0.1-0.3-0.1l0,0
			C12.2,21.4,12.2,21.5,12.3,21.5"/>
		<path class="st0" d="M12.9,21.4C12.9,21.4,12.9,21.3,12.9,21.4c-0.1-0.1-0.3-0.2-0.4-0.2h-0.1l0,0c0,0,0,0,0,0.1
			C12.6,21.4,12.7,21.4,12.9,21.4L12.9,21.4L12.9,21.4z"/>
		<path class="st0" d="M13,21L13,21L13,21c0,0.2,0.1,0.3,0.3,0.3h0.1l0,0c0,0,0,0,0-0.1C13.3,21,13.2,21,13,21"/>
		<path class="st0" d="M13.2,20c0.1,0,0.1,0,0.2-0.1c0.1,0,0.1-0.1,0.2-0.1v-0.1c-0.1-0.1-0.2-0.3-0.1-0.5v-0.1l0,0l0,0
			c0,0-0.1,0-0.2,0.1l0,0c-0.2,0.2-0.3,0.4-0.3,0.6C13,20,13.1,20,13.2,20L13.2,20z"/>
		<path class="st0" d="M12,21.1C12.1,21.1,12.1,21.1,12,21.1L12,21.1c-0.1-0.1-0.1-0.3-0.1-0.5s-0.1-0.4-0.2-0.6c0,0,0,0,0,0.1
			s0,0.2,0,0.2c0.1,0.1,0.1,0.2,0.1,0.4C11.7,20.9,11.8,21.1,12,21.1"/>
		<path class="st0" d="M12.4,21L12.4,21c0.1-0.1,0.2-0.1,0.2-0.1l0,0c-0.2-0.1-0.3-0.3-0.2-0.6c0.1-0.1,0-0.3-0.1-0.4
			s-0.1-0.3-0.1-0.4l0,0h-0.1c-0.1,0-0.1,0.1-0.1,0.2s0,0.3,0.1,0.4s0.1,0.2,0.1,0.4C12.2,20.7,12.2,20.9,12.4,21
			C12.3,21,12.3,21,12.4,21"/>
		<path class="st0" d="M13,19.2C13,19.1,13,19.1,13,19.2L13,19.2c0-0.1-0.1-0.1-0.2-0.1c-0.2,0-0.4,0.1-0.4,0.2
			c-0.1,0.1-0.1,0.3,0,0.4s0.1,0.3,0,0.4c0,0.1,0,0.2,0,0.4c0.1,0.2,0.2,0.3,0.4,0.3c0.1,0,0.1,0,0.1,0l0,0c-0.1-0.1-0.1-0.2,0-0.3
			c0,0,0-0.1,0.1-0.1c0,0,0-0.1-0.1-0.1C12.6,19.8,12.7,19.5,13,19.2"/>
		<path class="st0" d="M14.6,21c0.1-0.1,0.2-0.2,0.4-0.3c0.2-0.1,0.3-0.2,0.5-0.4c0.2-0.4,0.1-0.7-0.2-1h-0.1c0,0-0.1,0-0.1,0.1
			s0,0.1,0,0.2l0.2,0.3c0.1,0.2,0,0.4-0.2,0.5c-0.4,0.2-0.6,0.4-0.8,0.5C14.2,21,14.2,21,14.1,21c-0.1,0-0.1,0-0.2-0.1l-0.3-0.2
			c0-0.1-0.1-0.1,0-0.2l0.1-0.1h0.1l0.2,0.1h0.1c0,0,0,0,0-0.1c0-0.2-0.1-0.3-0.3-0.4c-0.1,0-0.1,0-0.2,0c-0.2,0-0.4,0.1-0.6,0.4
			c-0.1,0.2,0.2,0.4,0.5,0.7c0.1,0.1,0.2,0.1,0.3,0.2c0.1,0,0.1,0.1,0.2,0.1h0.1C14.4,21.2,14.5,21.1,14.6,21"/>
		<path class="st0" d="M15.4,21.4C15.5,21.4,15.5,21.4,15.4,21.4c0.3,0,0.5,0.1,0.8,0.3c0.1,0,0.1,0,0.1,0s0-0.1-0.1-0.1
			c-0.4-0.2-0.8-0.4-1.1-0.4c-0.1,0-0.2,0-0.3,0c-0.1,0.1-0.2,0.1-0.2,0.2s0.1,0.1,0.1,0.1l0.7,0.2l0.5,0.2l0,0H16v-0.1
			c-0.2-0.1-0.4-0.2-0.6-0.3c-0.1,0-0.1-0.1-0.1-0.1C15.3,21.4,15.3,21.4,15.4,21.4"/>
		<path class="st0" d="M15.8,20.4c-0.1,0.1-0.2,0.2-0.2,0.2c0,0.1,0,0.2,0,0.3c0.1,0.3,0.6,0.4,0.9,0.4l0,0l0,0l0,0
			c0.1,0,0.1,0,0.1-0.1v-0.1l0,0c-0.3-0.1-0.5-0.2-0.6-0.4c-0.1-0.1-0.1-0.2,0-0.2c0-0.1,0.1-0.1,0.2-0.1s0.2,0,0.3,0.1l0,0h0.1
			v-0.1c-0.1-0.1-0.2-0.1-0.2-0.1C16.1,20.3,16,20.3,15.8,20.4"/>
		<path class="st0" d="M16.3,20.7L16.3,20.7C16.2,20.7,16.2,20.7,16.3,20.7c-0.1,0.1-0.1,0.1-0.1,0.2c0.2,0.1,0.4,0.2,0.6,0.3l0,0
			l0,0c0,0,0.1,0,0.1-0.1c0,0,0-0.1-0.1-0.1C16.7,20.9,16.5,20.8,16.3,20.7"/>
		<path class="st0" d="M16.4,22.5L16.4,22.5c0.1,0,0.2,0,0.3,0c0.3-0.1,0.6-0.2,1-0.2c0.1,0,0.1,0,0.1-0.1c0,0,0-0.1-0.1-0.1h-0.1
			c-0.2,0-0.5,0.1-0.9,0.2h-0.1c-0.1,0-0.1,0-0.1,0c0-0.1,0-0.1,0.1-0.2c0.2-0.3,0.5-0.4,0.9-0.6c0.1,0,0.1-0.1,0.1-0.1
			s0-0.1-0.1-0.1c-0.5,0.1-0.9,0.4-1.2,0.8c-0.1,0.1-0.1,0.3-0.1,0.4C16.2,22.4,16.3,22.5,16.4,22.5"/>
		<path class="st0" d="M17.1,21.7C17,21.8,17,21.8,17.1,21.7c0,0.1,0,0.1,0.1,0.1c0.2,0,0.4-0.1,0.4-0.1v-0.1l0,0c0,0-0.1-0.1-0.2,0
			C17.3,21.6,17.1,21.7,17.1,21.7"/>
		<path class="st0" d="M16.1,19.8c0-0.1-0.1-0.1,0-0.2c0-0.1,0.1-0.1,0.1-0.1l0,0l0,0c-0.1-0.2-0.3-0.2-0.5-0.3h-0.1
			c0,0.4,0.2,0.6,0.6,0.8h0.1l0,0l0,0L16.1,19.8z"/>
		<path class="st0" d="M15.5,18L15.5,18c0,0.4,0.1,0.7,0.3,0.9c0.1,0.1,0.3,0.2,0.4,0.2h0.1c0,0,0-0.1,0-0.2s-0.1-0.1-0.2-0.2
			L16,18.8c-0.1,0-0.2-0.2-0.2-0.4S15.7,18.1,15.5,18"/>
		<path class="st0" d="M16.6,19.3c-0.1-0.1-0.1-0.1-0.2-0.1l0,0l0,0l0,0c0.1,0.6,0.3,1.3,0.8,1.7c0.1,0,0.1,0,0.1,0
			c0.2,0,0.2-0.2,0.2-0.2c0-0.3,0-0.5-0.1-0.6L17.3,20c0,0-0.1,0-0.1,0.1v0.3v0.1h-0.1l0,0c0,0-0.1,0-0.1-0.1
			C16.7,20.2,16.6,19.8,16.6,19.3C16.7,19.5,16.7,19.4,16.6,19.3"/>
		<path class="st0" d="M18.3,22.5c0.1,0,0.1,0,0.2,0s0.1,0,0.2-0.1c0.1-0.2,0.1-0.5,0.1-0.7l0,0c-0.1-0.1-0.1-0.2-0.1-0.2l0,0
			c0,0,0,0,0,0.1V22c0,0.1,0,0.2-0.1,0.2c0,0-0.1,0-0.1-0.1c-0.3-0.4-0.3-0.9-0.3-1.4c0-0.2-0.1-0.3-0.2-0.3c0,0-0.1,0-0.1,0.1
			C17.8,21.3,17.8,22.1,18.3,22.5L18.3,22.5z"/>
		<path class="st0" d="M18.3,21.7L18.3,21.7c0,0,0.1-0.1,0.1-0.2l-0.1-0.3l-0.1-0.1c0,0-0.1,0-0.1,0.1
			C18.1,21.4,18.2,21.6,18.3,21.7L18.3,21.7"/>
		<path class="st0" d="M17.1,20.2l0.1-0.1c0-0.1,0-0.2-0.1-0.2H17h-0.1c0,0.1,0,0.2,0,0.3C17,20.2,17.1,20.2,17.1,20.2"/>
		<path class="st0" d="M19.7,8.3L19.7,8.3c-0.1,0-0.1,0-0.1,0s0,0.1,0.2,0.1s0.4,0,0.6,0.4c0,0.1,0,0.2,0,0.2c-0.1,0-0.1,0-0.2,0
			l0,0v0.1c0,0,0.1,0.1,0.2,0.1s0.1,0,0.2-0.1c0-0.1,0.1-0.2,0-0.3C20.4,8.4,20.1,8.3,19.7,8.3"/>
		<path class="st0" d="M20.1,8.9C20.1,8.9,20.1,8.8,20.1,8.9c0.1-0.2,0-0.2-0.1-0.2l0,0C20,8.7,20,8.8,20.1,8.9
			C20,8.8,20,8.9,20.1,8.9"/>
		<path class="st0" d="M20.3,9.4C20.2,9.4,20.2,9.5,20.3,9.4c-0.1,0.1,0,0.2,0,0.2c0.3,0,0.5,0.2,0.5,0.6c0,0.2-0.1,0.2-0.2,0.2
			s-0.1,0-0.2-0.1c-0.1,0-0.1,0-0.1,0s0,0,0,0.1c0,0,0.2,0.2,0.5,0.2c0.1,0,0.1,0,0.1,0c0.1-0.1,0.2-0.3,0.1-0.6
			C20.8,9.6,20.6,9.4,20.3,9.4"/>
		<path class="st0" d="M20.4,10.1C20.4,10.1,20.5,10.1,20.4,10.1c0.1-0.2,0-0.2,0-0.3c0,0,0,0-0.1,0s-0.1,0-0.1,0.1V10
			C20.4,10.1,20.4,10.1,20.4,10.1"/>
		<path class="st0" d="M20.5,12.2L20.5,12.2c0.4-0.2,0.6-0.5,0.6-0.8c0-0.2,0-0.3-0.1-0.4c-0.1-0.1-0.2-0.2-0.5-0.2h-0.1
			c-0.1,0-0.2,0.1-0.2,0.1V11l0.3,0.1c0.1,0,0.2,0.1,0.2,0.1c0,0.1,0,0.3-0.1,0.4C20.5,11.9,20.4,11.9,20.5,12.2
			C20.4,12.2,20.5,12.2,20.5,12.2"/>
		<path class="st0" d="M20.4,11.5h0.1c0.1,0,0.1,0,0.1-0.1c0-0.2-0.1-0.2-0.1-0.2h-0.1c-0.1,0-0.1,0.1-0.1,0.1
			C20.3,11.5,20.3,11.5,20.4,11.5"/>
		<path class="st0" d="M21.2,7.7L21.2,7.7L21.2,7.7c0.1,0.1,0.3,0.2,0.6,0.3c0.1,0,0.1,0,0.1,0V7.9c-0.7-1-1.5-1.2-2.2-1.2
			c-0.1,0-0.2,0-0.3,0h-0.1c0,0.1,0.1,0.2,0.3,0.2c0.1,0,0.2,0,0.4,0c0.6,0,1,0.2,1.4,0.5c0.1,0.1,0.1,0.2,0.1,0.2
			C21.4,7.6,21.4,7.7,21.2,7.7"/>
		<path class="st0" d="M20.7,7.2c-0.1,0-0.2,0-0.2,0l0,0c0,0,0,0,0.1,0.1c0.1,0,0.2,0.1,0.3,0.1c0.1,0,0.1,0,0.2,0l0,0
			c0,0,0,0-0.1-0.1S20.8,7.2,20.7,7.2"/>
		<path class="st0" d="M22.6,7.4c-0.1,0-0.1,0-0.2-0.1c-0.3-0.3-0.5-0.4-0.7-0.5h-0.1l0,0c0.4,0.5,0.9,0.8,1.4,1h0.1h0.1
			c0,0,0,0,0-0.1c0-0.3-0.2-0.5-0.5-0.6c0,0.1,0.1,0.2,0,0.3C22.7,7.4,22.7,7.4,22.6,7.4"/>
		<path class="st0" d="M23.6,28.3h0.1l0,0c-0.1,0-0.1-0.1-0.1-0.2s0-0.2,0.2-0.4c0.8-0.4,1-0.8,0.9-1.4v-0.1c0,0-0.1-0.1-0.2-0.1
			s-0.2,0-0.2,0.1c-0.1,0.4-0.2,0.7-0.4,0.9c-0.5,0.4-1.3,0.6-2.2,0.7c-0.3,0-0.6,0.1-0.7,0.4L20.7,29c0,0.2-0.1,0.3-0.3,0.3
			l-0.7-0.1c-0.1,0-0.1,0-0.2-0.1c0,0,0-0.1,0-0.2c0-0.6,0.1-1.1,0.2-1.6c0.1-0.1,0-0.4-0.1-0.5l-0.1-0.1c0,0,0,0-0.1,0.1
			C19.2,27.2,19,28,19,29.1c0,0.2,0,0.3,0.2,0.4l1.4,0.1c0.2,0,0.3-0.1,0.3-0.2c0.1-0.7,0.3-1.1,0.7-1.1c0.3-0.1,0.7-0.1,1.1-0.2
			h0.1c0.2,0,0.2,0.1,0.3,0.1C23.4,28.3,23.5,28.3,23.6,28.3"/>
		<path class="st0" d="M22.8,25.9L22.8,25.9c-0.3,0-0.3,0.2-0.3,0.3c0,0.1,0.1,0.2,0.2,0.2h0.1c0.2-0.2,0.3-0.3,0.4-0.3
			C23.1,26,23,25.9,22.8,25.9"/>
		<path class="st0" d="M22.5,27.3C22.6,27.3,22.6,27.3,22.5,27.3c0.2-0.1,0.4-0.1,0.5-0.3c-0.2,0-0.3,0-0.6-0.1h-0.1
			c-0.1,0-0.2,0.1-0.1,0.2c0,0.1,0,0.1,0.1,0.1S22.5,27.3,22.5,27.3"/>
		<path class="st0" d="M22,26.2c0.1-0.2,0.2-0.4,0.3-0.4h-0.1c-0.1,0-0.3,0-0.4,0.1s-0.2,0.2-0.2,0.3c0,0.1,0.1,0.2,0.2,0.2
			C21.9,26.3,21.9,26.3,22,26.2"/>
		<path class="st0" d="M20.3,28.4c0.1,0,0.1-0.1,0.1-0.1c0-0.3,0.1-0.4,0.2-0.5c-0.2,0-0.3,0.1-0.4,0.2s-0.1,0.2-0.1,0.3
			C20.1,28.4,20.2,28.4,20.3,28.4"/>
		<path class="st0" d="M26.2,27.9c0.3-0.2,0.5-0.2,0.6-0.2c-0.2-0.2-0.4-0.3-0.6-0.3C25.7,27.4,25.8,28.1,26.2,27.9"/>
		<path class="st0" d="M27,27c0-0.2,0.1-0.4,0.1-0.5c-0.2,0-0.3,0.1-0.4,0.2s-0.1,0.2-0.1,0.3c0,0.1,0.1,0.1,0.2,0.1
			C26.9,27.1,26.9,27.1,27,27"/>
		<path class="st0" d="M28,26.7h-0.1c-0.1,0-0.3,0-0.4,0.1s-0.2,0.2-0.1,0.3c0,0.1,0.1,0.2,0.2,0.2s0.1,0,0.1-0.1
			C27.8,27,27.9,26.8,28,26.7"/>
		<path class="st0" d="M27.3,27.9C27.4,27.9,27.4,27.9,27.3,27.9c0.3-0.1,0.4-0.1,0.5-0.3c-0.2,0-0.4,0-0.6-0.1h-0.1
			c-0.1,0-0.2,0.1-0.2,0.2s0,0.1,0.1,0.1C27.2,27.9,27.3,27.9,27.3,27.9"/>
		<path class="st0" d="M21.2,27.1c0,0.1,0.1,0.1,0.2,0.1s0.1,0,0.2-0.1c0.1-0.2,0.1-0.3,0.1-0.5c-0.1,0.1-0.3,0.2-0.5,0.3
			C21.2,27,21.2,27.1,21.2,27.1"/>
		<path class="st0" d="M18.7,25.8c-0.2,0-0.4,0.1-0.6,0.3c0.2,0,0.4,0,0.6,0.2C19.1,26.5,19.2,25.8,18.7,25.8"/>
		<path class="st0" d="M17.3,25.4c0.1,0,0.1-0.1,0.2-0.1c0-0.1,0-0.2-0.2-0.3c-0.1,0-0.2-0.1-0.3-0.1h-0.1c0.1,0.1,0.3,0.2,0.3,0.4
			C17.2,25.4,17.3,25.4,17.3,25.4"/>
		<path class="st0" d="M16.5,25.4c0-0.1-0.1-0.2-0.3-0.3c-0.1,0-0.3,0-0.4,0.1c0.1,0,0.3,0.1,0.5,0.2L16.5,25.4
			C16.5,25.5,16.5,25.4,16.5,25.4"/>
		<path class="st0" d="M16.7,26c-0.2,0.1-0.4,0.2-0.6,0.2c0.2,0.2,0.4,0.3,0.6,0.3C17.2,26.5,17.1,25.9,16.7,26"/>
		<path class="st0" d="M17.4,26c0.1,0,0.1,0,0.2,0s0.2-0.1,0.2-0.2s0-0.2-0.2-0.2c-0.1,0-0.1,0-0.2,0s-0.2,0-0.3,0
			C17.2,25.9,17.3,26,17.4,26"/>
		<path class="st0" d="M13.8,25.2c0.1,0,0.1,0.1,0.2,0.1c0.1,0,0.2-0.1,0.2-0.2c0,0,0-0.2-0.2-0.2s-0.4,0-0.5-0.1
			C13.6,25,13.7,25.2,13.8,25.2"/>
		<path class="st0" d="M12.5,25.4c0.1,0,0.1,0,0.2,0c0.1,0,0.2-0.1,0.2-0.2s0-0.2-0.2-0.2h-0.1c-0.1,0-0.3,0-0.4-0.1
			C12.3,25.2,12.4,25.3,12.5,25.4"/>
		<path class="st0" d="M11.9,24.2L11.9,24.2c-0.2,0-0.3,0-0.5,0.1c0.1,0.1,0.2,0.1,0.3,0.2l0,0l0.1,0.1h0.1c0.1,0,0.2-0.1,0.2-0.2
			C12.2,24.3,12.1,24.2,11.9,24.2"/>
		<path class="st0" d="M9.6,22.7L9.6,22.7c0,0.1,0.1,0.2,0.2,0.2c0.1,0,0.1,0,0.1-0.1c0,0,0.1-0.1,0-0.3c-0.1-0.1-0.2-0.2-0.3-0.4
			c0,0.1,0,0.3,0,0.4C9.6,22.6,9.6,22.7,9.6,22.7"/>
		<path class="st0" d="M9.1,22.2c0-0.1-0.1-0.2-0.3-0.3c0,0.1,0,0.3,0,0.4v0.1l0,0c0,0.1,0.1,0.2,0.2,0.2c0,0,0.1,0,0.1-0.1
			S9.2,22.4,9.1,22.2"/>
		<path class="st0" d="M9,22.9L9,22.9c-0.2,0-0.3-0.1-0.5-0.2c0,0.2,0.1,0.3,0.3,0.5c0.1,0,0.1,0,0.2,0c0.1,0,0.2-0.1,0.2-0.2
			C9.2,23,9.2,22.9,9,22.9"/>
		<path class="st0" d="M9.7,23.8c0.1,0,0.1,0.1,0.2,0.1c0.1,0,0.2-0.1,0.2-0.1c0-0.1,0-0.2-0.1-0.2c0,0,0,0-0.1,0s-0.3-0.1-0.4-0.2
			C9.5,23.5,9.6,23.6,9.7,23.8"/>
		<path class="st0" d="M19.5,25.2v-0.1c0-0.1,0-0.3,0-0.5c0,0,0-0.1-0.2-0.1h-0.1c-0.4,0-0.6,0.2-0.6,0.5c-0.1,0.3,0,0.6,0.3,0.8
			c0.1,0,0.1,0,0.1,0l0,0c0,0,0-0.1,0-0.2s0-0.2,0-0.2C19,25.3,19.2,25.2,19.5,25.2L19.5,25.2z"/>
		<path class="st0" d="M20.3,27L20.3,27c0.1,0,0.1,0,0.1,0l0,0c-0.1-0.1-0.2-0.2-0.2-0.3c0-0.1,0.1-0.2,0.2-0.3
			c0.1-0.1,0.1-0.2,0-0.2c-0.1-0.1-0.2-0.2-0.3-0.3c0-0.1-0.1-0.1-0.1-0.1s-0.1,0-0.2,0.1c-0.3,0.2-0.3,0.5-0.2,0.8
			C19.7,26.7,20,27,20.3,27"/>
		<path class="st0" d="M25,26.8L25,26.8c0.1,0,0.2,0.1,0.2,0c0.2,0,0.5-0.2,0.5-0.5c0.1-0.2,0-0.6-0.3-0.8l-0.1-0.1
			c0,0-0.1,0-0.1,0.1c-0.1,0.2-0.2,0.3-0.3,0.4c0,0.1,0,0.1,0,0.1s0,0.1,0.1,0.1c0.1,0.1,0.2,0.2,0.2,0.3
			C25.2,26.6,25.1,26.7,25,26.8"/>
		<path class="st0" d="M23.8,25.9C23.9,26,24,26,24.1,26s0.1,0,0.2-0.1c0.4-0.2,0.6-0.4,0.7-0.6c0-0.1,0-0.3-0.1-0.4
			s-0.3-0.2-0.5-0.2h-0.1c-0.4,0-0.6-0.2-0.7-0.4c-0.1-0.1-0.2-0.2-0.3-0.2h-0.1l0,0l0,0c0,0.2,0.1,0.3,0.3,0.4
			c0.2,0.1,0.3,0.2,0.6,0.3c0.1,0.1,0.2,0.1,0.2,0.2s-0.1,0.2-0.2,0.2H24c-0.1,0-0.2-0.1-0.3-0.2c-0.2-0.3-0.4-0.5-0.7-0.8h-0.1
			c0,0,0,0-0.1,0s-0.2,0.1-0.2,0.2s-0.1,0.1-0.1,0.1s-0.1,0-0.1-0.1c0,0,0,0-0.1,0c-0.3,0.2-0.6,0.4-0.9,0.8
			c-0.1,0.1-0.1,0.1-0.2,0.1l0,0h-0.1l0,0l0,0c0-0.1,0-0.2,0.1-0.2c0.3-0.2,0.6-0.4,0.8-0.7v-0.1c0,0,0-0.1-0.1-0.1
			s-0.2-0.1-0.3-0.1c-0.1,0-0.2,0-0.3,0.1c-0.1,0-0.2,0-0.3,0c-0.2,0-0.3,0-0.6-0.1h-0.1c-0.1,0-0.2,0-0.3,0.1
			c0,0.1-0.1,0.1-0.1,0.2c0,0.2,0,0.4,0,0.5s0,0.1,0.1,0.2l0.1,0.1c0.1,0,0.1,0,0.2-0.1c0.2-0.1,0.3-0.2,0.3-0.5
			c0-0.1,0.1-0.1,0.2-0.2c0.2-0.1,0.4-0.1,0.6-0.1c0.1,0,0.1,0,0.2,0s0.1,0,0.1,0.1s0,0.1-0.1,0.2c-0.2,0.1-0.5,0.3-0.8,0.4
			c-0.2,0.1-0.3,0.2-0.2,0.5c0,0.1,0.1,0.3,0.4,0.5c0.1,0,0.1,0.1,0.2,0.1c0.2,0,0.3-0.1,0.4-0.3c0-0.1,0.1-0.2,0.2-0.2
			c0.2-0.1,0.4-0.3,0.6-0.5l0.1-0.1c0.1,0,0.1,0.1,0.1,0.2v0.1c0.1,0.1,0.1,0.1,0.2,0.1s0.2-0.1,0.2-0.2l0.1-0.1h0.1l0,0
			c0,0,0,0.1,0,0.2s0,0.1,0,0.1h0.1c0.1,0,0.1,0,0.2,0.1L23.8,25.9z"/>
		<path class="st0" d="M20.2,22.8C20.2,22.8,20.1,22.9,20.2,22.8c-0.1,0.1-0.1,0.1-0.1,0.1l0.7,0.9c0,0.2,0.2,0.2,0.3,0.2
			s0.1,0,0.1-0.1c0.1-0.1,0.1-0.2,0-0.3c0-0.1,0-0.1-0.1-0.1l0,0L21,23.6c-0.1,0-0.1,0-0.1-0.1L20.2,22.8
			C20.3,22.9,20.2,22.8,20.2,22.8"/>
		<path class="st0" d="M22.2,24.3c0.1,0,0.1,0,0.1,0c0.1,0,0.1,0,0.2-0.2s0-0.5-0.1-0.8l-0.5-1.2c0-0.1-0.1-0.1-0.1-0.1s0,0-0.1,0.1
			c0,0.2,0,0.4,0.1,0.6c0.1,0.1,0.2,0.3,0.2,0.4l0.1,0.2c0.1,0.2,0.1,0.3,0,0.4c0,0.1-0.1,0.1-0.2,0.1s-0.1,0-0.2-0.1L21.4,23
			c-0.1-0.2-0.3-0.4-0.5-0.5c-0.1,0-0.1,0-0.1,0l0,0c0,0,0,0,0,0.1c0.1,0.2,0.3,0.4,0.4,0.6l0,0C21.5,23.7,21.7,24.1,22.2,24.3"/>
		<path class="st0" d="M21.5,22.7L21.5,22.7l0.4,0.8l0,0H22v-0.1L21.5,22.7L21.5,22.7L21.5,22.7z"/>
		<path class="st0" d="M20.9,23.5L20.9,23.5c0.1,0,0.1,0,0.1-0.1v-0.1l-0.3-0.5l0,0l0,0v0.1L20.9,23.5z"/>
		<path class="st0" d="M23.1,23.8c0.1,0,0.1,0,0.2,0h0.1v-0.1c-0.1-0.5-0.2-1-0.3-1.3C23,22.3,23,22.1,23,22v-0.1h-0.1
			c-0.1,0.1-0.1,0.3,0,0.5l0.3,0.7c0,0.1,0,0.2,0,0.2l0,0l0,0l0,0c-0.1,0-0.1,0-0.1-0.1c-0.1-0.2-0.2-0.4-0.2-0.6
			c-0.1-0.3-0.1-0.3-0.2-0.3l0,0l0,0l0,0C22.5,22.9,22.7,23.5,23.1,23.8"/>
		<path class="st0" d="M22.1,18.6c0,0-0.1,0-0.1,0.1s-0.1,0.2,0,0.2c0.4,0.7,0.5,1.4,0.5,2.2c0,0.2-0.1,0.3-0.2,0.3s-0.2,0-0.2-0.1
			c-0.2-0.3-0.3-0.6-0.5-1l0,0c-0.1-0.3-0.2-0.6-0.4-0.8l0,0c0,0,0,0-0.1,0.1c0,0.1,0,0.3,0.1,0.4c0.1,0.2,0.2,0.5,0.3,0.7l0,0
			c0.2,0.5,0.4,1,0.7,1.2c0.1,0,0.1,0.1,0.2,0.1s0.1-0.1,0.2-0.2C22.8,21.2,22.5,19.4,22.1,18.6L22.1,18.6"/>
		<path class="st0" d="M22.1,20.7c0,0,0.1,0,0.1-0.1c0-0.7-0.2-1.2-0.6-1.5h-0.1h-0.1v0.1C21.7,19.7,21.9,20.1,22.1,20.7
			C22,20.7,22.1,20.7,22.1,20.7"/>
		<path class="st0" d="M21.1,22.3c0,0,0.1,0,0.2,0s0.2,0,0.3-0.3c0-0.7-0.2-1.5-0.7-2.3h-0.1c-0.1,0-0.1,0-0.1,0.1v0.1
			c0.1,0.3,0.2,0.5,0.3,0.7l0,0c0.1,0.3,0.3,0.6,0.4,0.9c0,0.1,0,0.2,0,0.3l-0.1,0.1c-0.1,0-0.1,0-0.2-0.1c-0.3-0.3-0.5-0.7-0.8-1.1
			v-0.1c-0.1-0.2-0.3-0.4-0.4-0.6c-0.1-0.1-0.1-0.1-0.2-0.1h-0.1c0,0.1,0,0.1,0,0.2C20,21.1,20.5,21.7,21.1,22.3"/>
		<path class="st0" d="M19.8,19.6L19.8,19.6L19.8,19.6c0.4,0.6,0.7,1.1,1,1.7h0.1l0,0v-0.1C20.6,20.5,20.2,19.9,19.8,19.6L19.8,19.6
			z"/>
		<path class="st0" d="M20.1,22.5c0.2,0,0.2-0.1,0.2-0.3c0-0.7-0.6-1.3-1.1-1.8c-0.1,0-0.1,0-0.1,0l0,0l0,0c0.4,0.4,0.7,0.9,1,1.4
			c0.1,0.1,0.1,0.3,0,0.3c0,0.1-0.1,0.1-0.2,0.1s-0.1,0-0.2-0.1c-0.5-0.8-1.1-1.4-1.5-1.8h-0.1H18v0.1c0.5,0.6,1.1,1.3,1.7,2
			C19.8,22.5,19.9,22.5,20.1,22.5"/>
		<path class="st0" d="M18.4,20L18.4,20c0,0,0,0.1,0,0.2l1.3,1.5h0.1l0,0c0,0,0,0,0-0.1L18.4,20L18.4,20z"/>
		<path class="st0" d="M23.6,7.9c0.2,0.2,0.6,0.4,0.8,0.4h0.1c0.1-0.1,0.1-0.2,0.1-0.3c0-0.1-0.1-0.2-0.3-0.3l0,0
			c0,0.1,0,0.2-0.1,0.2c0,0-0.1,0.1-0.2,0.1s-0.2-0.1-0.2-0.2c0-0.2-0.1-0.3-0.3-0.4l0,0l0,0c0,0.1,0.1,0.2,0.1,0.3
			C23.5,7.8,23.5,7.8,23.6,7.9"/>
		<path class="st0" d="M21.9,8.8c-0.1,0-0.1,0-0.2,0l0,0c0,0,0,0,0,0.1c0.2,0.1,0.4,0.2,0.5,0.2s0.2,0,0.2-0.1
			c0.1-0.1,0-0.3-0.1-0.6l0,0l0,0l0,0c0,0,0-0.1-0.2-0.3l0,0c0,0.1-0.1,0.1-0.2,0.1s-0.1,0-0.2,0s-0.2,0-0.3,0l0,0l0.1,0.1
			c0.5,0,0.6,0.2,0.6,0.3C22.2,8.7,22.1,8.8,21.9,8.8"/>
		<path class="st0" d="M22.1,9.6c0.4,0.1,0.5,0.3,0.4,0.5c0,0.1-0.1,0.2-0.2,0.2s-0.2,0-0.3-0.1c0,0,0,0.1,0,0.2
			c0.2,0.3,0.5,0.5,0.7,0.5c0.1,0,0.2,0,0.2-0.1c0.1-0.1,0.1-0.2,0-0.4c-0.2-0.4-0.2-0.7-0.2-1c0-0.1,0-0.1,0-0.1s-0.1,0-0.1,0.1
			c-0.1,0-0.1,0-0.2,0.1c-0.1,0-0.2,0-0.4-0.1l0,0c0,0,0,0,0,0.1L22.1,9.6z"/>
		<path class="st0" d="M20.9,15.1c0,0,0,0.1,0,0.2c0.2,0.3,0.5,0.7,0.7,1v0.1c0.2,0.3,0.3,0.5,0.4,0.7c0.1,0.1,0.1,0.1,0.1,0.1
			c0.1,0,0.1-0.1,0.1-0.2c0-0.7-0.4-1.5-1.1-2.5l0,0c0,0.1,0,0.1,0,0.2c0.3,0.4,0.5,0.9,0.7,1.4c0,0.1,0,0.1,0,0.2l0,0l0,0l0,0
			c-0.1,0-0.1,0-0.1-0.1C21.5,15.9,21.2,15.5,20.9,15.1L20.9,15.1L20.9,15.1z"/>
		<path class="st0" d="M20.2,16.5C20.2,16.5,20.1,16.5,20.2,16.5c-0.1,0.1-0.1,0.2-0.1,0.3c0.2,0.5,0.5,1.1,0.9,1.7
			c0.1,0.2,0.3,0.3,0.4,0.3s0.3-0.1,0.3-0.2c0.2-0.3,0.2-0.6,0-1c-0.2-0.5-0.6-1.1-1.1-1.8h-0.1h-0.1c0,0,0,0.1,0,0.2
			c0.5,0.7,0.8,1.2,1,1.8c0.1,0.2,0.1,0.4,0,0.5c0,0.1-0.1,0.1-0.2,0.1S21,18.3,21,18.3C20.8,17.6,20.5,17,20.2,16.5
			C20.3,16.5,20.2,16.5,20.2,16.5"/>
		<path class="st0" d="M21.2,17.7c0,0,0.1,0,0.1-0.1c0,0,0-0.1,0-0.2L20.5,16c0-0.1,0-0.1,0-0.1l0,0c0,0.1-0.1,0.2,0,0.3L21.2,17.7
			L21.2,17.7"/>
		<path class="st0" d="M20.3,19.6c0.2,0,0.4-0.1,0.5-0.3c0.1-0.2,0.1-0.5,0-0.8c-0.4-0.6-0.6-1.2-0.8-1.6c0-0.1-0.1-0.1-0.1-0.1
			s-0.1,0-0.1,0.1V17c0.2,0.5,0.5,1,0.8,1.7c0.1,0.2,0.1,0.4,0,0.4c0,0.1-0.1,0.1-0.2,0.1s-0.2-0.1-0.3-0.2c-0.2-0.3-0.4-0.6-0.7-1
			l-0.1,0c-0.1-0.2-0.3-0.4-0.4-0.6l-0.1-0.1c-0.1,0-0.1,0-0.1,0.1v0.1l1.1,1.7C20,19.5,20.1,19.6,20.3,19.6"/>
		<path class="st0" d="M19.2,17.2l0.8,1.5c0,0.1,0.1,0.1,0.1,0.1l0,0c0,0,0-0.1,0-0.2L19.2,17c0,0,0,0-0.1,0l0,0v0.1v0.1
			C19.2,17,19.1,17.1,19.2,17.2"/>
		<path class="st0" d="M19.4,19.9c0.1-0.1,0.1-0.3,0-0.5c-0.2-0.6-0.6-1.2-1-1.7l-0.1-0.1c0-0.1-0.1-0.1-0.2-0.1s-0.1,0-0.1,0
			s0,0,0,0.1c0.4,0.6,0.7,1.1,1,1.7c0.1,0.1,0.1,0.2,0,0.3c0,0.1-0.1,0.1-0.2,0.1c0,0-0.1,0-0.2-0.1c-0.5-0.6-1-1.2-1.4-1.8h-0.1
			c0,0-0.1,0-0.1,0.1V18c0.4,0.6,0.9,1.3,1.5,1.9c0.1,0.1,0.3,0.2,0.4,0.2C19.2,20.1,19.3,20,19.4,19.9"/>
		<path class="st0" d="M17.5,17.5c0.2,0.5,0.6,1.1,1.2,1.6h0.1l0,0V19c-0.4-0.6-0.8-1.1-1.2-1.6h-0.1V17.5"/>
		<path class="st0" d="M17.9,19.9c0.1,0,0.1,0,0.1,0s0-0.1,0-0.2c-0.3-0.5-0.7-1.1-1.4-1.8l-0.1-0.1l0,0c0,0,0,0,0,0.1
			c0.3,0.4,0.6,0.8,0.9,1.2c0,0.1,0.1,0.1,0,0.2l0,0l0,0l0,0l0,0c0,0-0.1,0-0.1-0.1c-0.5-0.5-0.9-1.1-1.4-1.8l-0.1-0.1
			c-0.1,0-0.1,0-0.1,0.1v0.1l0.1,0.1C16.3,18.6,17,19.7,17.9,19.9L17.9,19.9z"/>
		<path class="st0" d="M19.8,13.3c0,0.1-0.1,0.1-0.1,0.2c0,0.2,0,0.3,0,0.3l0,0c0,0,0,0,0.1,0c0.3-0.3,0.4-0.5,0.4-0.8l-0.1-1.3
			c0-0.1-0.1-0.1-0.1-0.1h-0.1c0,0-0.1,0.1,0,0.2v0.3c0,0.2,0,0.3,0,0.5c0,0.1,0,0.3,0,0.4C20,13.1,19.9,13.2,19.8,13.3L19.8,13.3z"
			/>
		<path class="st0" d="M18.8,12.1C18.8,12.1,18.7,12.1,18.8,12.1c-0.3,0.6-0.3,1.2-0.3,1.8c0.1,0.2,0.2,0.3,0.4,0.3
			c0.2,0,0.6-0.2,0.7-0.6c0.1-0.7,0.1-1.3,0.1-1.8c0-0.1,0-0.2-0.1-0.2h-0.1v0.1c0,0.6,0,1.2-0.1,1.7c-0.1,0.2-0.3,0.4-0.4,0.4
			s-0.2,0-0.2-0.3C18.7,13,18.8,12.5,18.8,12.1C18.8,12.2,18.8,12.1,18.8,12.1"/>
		<path class="st0" d="M19.1,13.3c0.1-0.4,0.1-0.8,0.1-1.4c0-0.1,0-0.1,0-0.1s-0.1,0-0.1,0.1L19,13.3C19,13.4,19,13.4,19.1,13.3
			C19.1,13.4,19.1,13.4,19.1,13.3"/>
		<path class="st0" d="M17.3,14.1c-0.1,0-0.2,0-0.2-0.1s0-0.2,0-0.3l0.3-1.1v-0.1h-0.1c0,0-0.1,0-0.1,0.1c-0.1,0.3-0.2,0.5-0.3,0.7
			c-0.1,0.2-0.1,0.3-0.2,0.6c0,0.1-0.1,0.2,0,0.3s0.3,0.2,0.5,0.2l0,0c0.5-0.1,0.8-0.3,0.8-0.6l0.2-1.4c0-0.1,0-0.1,0-0.1h-0.1
			c0,0-0.1,0-0.1,0.2l-0.2,1.1C17.8,13.9,17.6,14.1,17.3,14.1"/>
		<path class="st0" d="M17.8,12.3c0,0-0.1,0-0.1,0.1c0,0.3-0.1,0.8-0.2,1.2v0.1l0,0l0.1-0.1C17.7,13.2,17.8,12.8,17.8,12.3
			L17.8,12.3"/>
		<path class="st0" d="M15.7,14.2c0.1,0,0.2,0.1,0.3,0.1c0.2,0,0.3-0.1,0.5-0.3l0.4-1.1c0-0.1,0-0.1,0-0.1s0,0,0,0.1
			c-0.2,0.4-0.3,0.8-0.5,1.1c-0.1,0.1-0.2,0.2-0.3,0.2c-0.1,0-0.2,0-0.2-0.1s0-0.2,0-0.3c0.2-0.3,0.3-0.7,0.4-1v-0.1
			c0,0-0.1,0-0.1,0.1c-0.2,0.4-0.3,0.7-0.6,1.1c-0.1,0.1-0.1,0.3-0.1,0.3C15.6,14.1,15.6,14.1,15.7,14.2"/>
		<path class="st0" d="M16.5,12.7c-0.1,0.3-0.2,0.6-0.4,0.9v0.1l0,0c0,0,0.1,0,0.1-0.1c0.2-0.3,0.3-0.6,0.4-0.9
			C16.6,12.7,16.6,12.6,16.5,12.7C16.5,12.6,16.5,12.6,16.5,12.7"/>
		<path class="st0" d="M15.8,12.6C15.8,12.6,15.8,12.7,15.8,12.6c-0.2,0.3-0.3,0.5-0.5,0.8v0.1l0,0l0,0C15.6,13.3,15.8,13,15.8,12.6
			C15.9,12.7,15.9,12.7,15.8,12.6"/>
		<path class="st0" d="M14.8,13.7c0.1,0.1,0.2,0.2,0.4,0.2c0.1,0,0.1,0,0.1-0.1v-0.1l-0.2-0.1L15,13.5c0-0.1,0-0.1,0.1-0.2
			c0.2-0.2,0.3-0.4,0.4-0.5c0-0.1,0-0.1,0-0.2l0,0c0,0-0.1,0-0.1,0.1c-0.2,0.3-0.4,0.5-0.6,0.7C14.8,13.6,14.8,13.7,14.8,13.7"/>
		<path class="st0" d="M14.7,14.2c-0.4,0.5-0.4,0.9-0.4,1.4c0.1,0.2,0.1,0.4,0.2,0.6c0.1,0.1,0.1,0.3,0.2,0.4
			c0.1,0.1,0.1,0.3,0.1,0.6c0,0,0,0.1,0.2,0.1c0.1,0,0.1,0,0.2,0c0.2-0.1,0.3-0.2,0.3-0.3c0-0.1,0-0.2,0-0.3c-0.5-1-0.5-1.7-0.1-2.3
			c0-0.1,0-0.1,0-0.1l-0.1-0.1c0,0-0.1,0-0.1,0.1c-0.2,0.2-0.3,0.5-0.3,0.9c0,0.2,0.1,0.5,0.2,0.7c0.1,0.2,0.1,0.4,0.2,0.6
			c0,0.1,0,0.1,0,0.2l-0.1,0.1c0,0-0.1,0-0.2-0.2c-0.1-0.2-0.1-0.4-0.2-0.5l0,0c-0.1-0.3-0.2-0.5-0.2-0.7c0-0.4,0.1-0.6,0.3-1.1l0,0
			c0-0.1,0-0.1,0-0.1l-0.1-0.1C14.8,14.1,14.8,14.1,14.7,14.2"/>
		<path class="st0" d="M15.7,16.2c0.1,0.4,0.3,0.9,0.6,1.3c0.1,0.1,0.3,0.2,0.4,0.2c0.3,0,0.5-0.2,0.5-0.4c0-0.1,0-0.2-0.1-0.4v-0.1
			c-0.2-0.6-0.2-1.2,0-1.8v-0.1H17c-0.1,0-0.1,0-0.2,0.1c-0.2,0.6-0.2,1.2,0,1.9c0,0.1,0,0.2-0.1,0.3c0,0.1-0.1,0.1-0.2,0.1
			s-0.2,0-0.3-0.1c-0.6-0.9-0.7-1.7-0.3-2.4c0-0.1,0-0.1,0-0.2l-0.1-0.1c-0.1,0-0.1,0-0.1,0.1C15.5,15.1,15.5,15.6,15.7,16.2"/>
		<path class="st0" d="M16.6,14.5C16.6,14.5,16.5,14.5,16.6,14.5c-0.1,0-0.2,0-0.2,0.1c-0.3,0.7-0.2,1.3,0.1,2c0,0,0,0,0.1,0l0,0
			c0,0,0,0,0-0.2C16.4,15.5,16.4,14.9,16.6,14.5C16.6,14.6,16.6,14.6,16.6,14.5"/>
		<path class="st0" d="M17.7,14.7C17.6,14.7,17.6,14.7,17.7,14.7c-0.1,0-0.2,0-0.2,0.1c-0.2,0.5-0.2,1.1,0,1.9
			c0.1,0.4,0.4,0.6,0.7,0.6c0.3,0,0.6-0.2,0.6-0.6c-0.1-0.8-0.2-1.4-0.1-2v-0.1l-0.1-0.1c0,0-0.1,0-0.1,0.1c-0.1,0.4-0.1,1-0.1,1.6
			v0.1c0,0.1,0.1,0.3,0,0.4s-0.1,0.1-0.2,0.1s-0.2-0.1-0.3-0.2c-0.2-0.5-0.2-1.1-0.1-1.8C17.7,14.8,17.7,14.7,17.7,14.7"/>
		<path class="st0" d="M18.1,14.6L18.1,14.6c-0.1,0-0.1,0-0.1,0.1c-0.1,0.5-0.1,1.1-0.1,1.6c0,0.1,0.1,0.1,0.1,0.1
			c0.1,0,0.1,0,0.1-0.1C18.1,15.7,18.1,15.2,18.1,14.6L18.1,14.6z"/>
		<path class="st0" d="M19.6,14.1c0,0.1,0,0.2,0,0.3c0.2,0.5,0.3,1,0.2,1.4c0,0.2-0.2,0.3-0.3,0.3c-0.1,0-0.2-0.1-0.3-0.2
			c-0.1-0.5-0.1-1-0.1-1.4c0-0.1-0.1-0.1-0.1-0.1h-0.1v0.1c0,0.6,0,1.3,0.3,1.8c0.1,0.1,0.2,0.2,0.3,0.2c0.2,0,0.5-0.2,0.6-0.6
			C20.3,15.5,20.1,14.9,19.6,14.1L19.6,14.1L19.6,14.1z"/>
		<path class="st0" d="M19.5,15.6v-0.1c-0.1-0.4-0.1-0.7-0.2-1.1c0-0.1-0.1-0.1-0.1-0.1s0,0,0,0.1C19.3,14.8,19.4,15.2,19.5,15.6
			L19.5,15.6z"/>
		<path class="st0" d="M20.5,13.4C20.4,13.4,20.4,13.5,20.5,13.4c0,0.2,0,0.4,0.1,0.5l0,0c0.1,0.1,0.1,0.3,0.1,0.5
			c0,0.1-0.1,0.1-0.1,0.1h-0.1c-0.1,0-0.2-0.3-0.2-0.4l0.1-0.1l0.1,0.1c0.1,0-0.1-0.3-0.1-0.3h-0.1c0,0-0.1,0-0.2,0.1
			C20,13.9,20,14,20,14.1c0.1,0.3,0.2,0.7,0.5,1h0.1c0.1,0,0.1,0,0.2-0.1C20.9,14.4,20.9,13.9,20.5,13.4L20.5,13.4"/>
		<path class="st0" d="M21,13.2L21,13.2c-0.1,0-0.1,0-0.1,0s0,0,0,0.1s0.1,0.1,0.1,0.2c0.1,0.1,0.3,0.3,0.1,0.5
			c-0.1,0-0.1,0.1,0,0.1c0,0.1,0.1,0.1,0.1,0.1s0.1,0,0.2-0.1l0.3-0.3v-0.1l0,0c-0.2,0-0.3-0.2-0.4-0.3C21.2,13.4,21.1,13.2,21,13.2
			"/>
		<path class="st0" d="M21.8,13.2h-0.1L21.4,13h-0.1c0,0-0.1,0-0.1,0.1v0.1c0.1,0.2,0.3,0.3,0.5,0.5c0.1,0,0.1,0.1,0.2,0.1
			c0,0,0.1,0,0.1-0.1c0.1-0.1,0.2-0.2,0.2-0.3c0.1-0.1,0.3-0.2,0.3-0.4c0-0.1,0-0.1,0-0.1s0,0-0.1,0c-0.3,0-0.4-0.2-0.6-0.3h-0.1
			c0,0-0.1,0-0.1,0.1v0.1L21.8,13.2c0.1,0,0.1,0.1,0.1,0.1C21.9,13.1,21.8,13.2,21.8,13.2"/>
		<path class="st0" d="M22.4,12c-0.1,0-0.1,0-0.2-0.1c0,0,0,0-0.1,0c0,0,0,0-0.1,0c-0.1,0.1,0,0.2,0,0.2c0.2,0.2,0.4,0.3,0.5,0.3
			s0.2-0.1,0.3-0.2c0.1-0.2,0.2-0.4,0.2-0.7c0-0.1,0-0.1,0-0.1h-0.1l0,0h-0.1c-0.2-0.1-0.4-0.2-0.6-0.4l0,0c0,0.1,0,0.2,0,0.2
			l0.3,0.2c0.1,0.1,0.1,0.3,0.1,0.4C22.6,11.9,22.5,12,22.4,12"/>
		<path class="st0" d="M28.2,26c0-0.1,0-0.2,0-0.3c0-0.1-0.1-0.1-0.2-0.1c-0.2,0-0.4-0.1-0.4-0.4v-0.1l0,0h-0.1
			c-0.2,0.1-0.3,0.2-0.4,0.3c0,0.1-0.1,0.1-0.1,0.2c-0.1,0.1-0.2,0.1-0.3,0.1c-0.1,0-0.2-0.1-0.3-0.2c0-0.1,0-0.1,0-0.1s0,0-0.1,0.1
			s-0.1,0.2-0.1,0.4c0,0.2,0,0.4-0.1,0.6c-0.3,0.5-0.6,0.7-0.9,0.7c-0.1,0-0.2,0-0.2,0l0,0c-0.1,0-0.1,0.1-0.1,0.1
			c0,0.1,0,0.1,0,0.1c0.2,0.1,0.3,0.1,0.5,0.1c0.3,0,0.6-0.2,0.9-0.5c0.4-0.5,0.8-1.2,1.4-1.2c0.1,0,0.2,0,0.3,0.1l0,0
			C27.9,26,28,26.1,28.2,26C28.1,26.1,28.2,26.1,28.2,26"/>
		<path class="st0" d="M29.4,27.6c-0.2,0-0.3,0-0.3-0.1c-0.1-0.1,0-0.2,0-0.4l0,0H29c-0.3,0-0.3,0.1-0.3,0.3c0,0.1,0,0.2-0.2,0.3
			c-0.7,0.3-1.3,0.5-1.9,0.5c-0.5,0-1-0.1-1.5-0.2c-0.3-0.1-0.5-0.1-0.8-0.2c-0.2,0-0.3,0.1-0.3,0.1V28l0.6,0.2
			c0.1,0,0.3,0.1,0.3,0.3c0.1,0.3,0.2,0.4,0.4,0.4h0.1l0,0l0,0l0,0l0,0c0-0.1-0.1-0.2,0-0.3c0-0.1,0.1-0.1,0.1-0.1h0.1
			c0.3,0.1,0.7,0.1,1,0.1c0.2,0,0.4,0,0.6-0.1h0.1c0.1,0,0.1,0,0.2,0.1c0.2,0.1,0.4,0.2,0.5,0.2s0.2,0,0.2-0.1l0,0
			c-0.1,0-0.2-0.1-0.2-0.2s0-0.2,0.1-0.2c0.2,0,0.4-0.1,0.6-0.3c0.1-0.1,0.1-0.1,0.2-0.1l0,0C29.3,27.9,29.4,27.8,29.4,27.6
			L29.4,27.6L29.4,27.6L29.4,27.6C29.5,27.6,29.5,27.6,29.4,27.6"/>
		<path class="st0" d="M29.5,26.3c-0.2,0.2-0.4,0.3-0.7,0.3c-0.1,0-0.2,0-0.3-0.1c-0.1-0.1-0.1-0.1-0.1-0.2s0.1-0.3,0.3-0.5
			c0.1-0.1,0.2-0.2,0.4-0.2c0.1,0,0.3,0.1,0.3,0.2C29.6,26,29.6,26.1,29.5,26.3 M29.1,25.5c-0.1,0-0.3,0.1-0.4,0.1
			c-0.6,0.5-0.7,0.8-0.4,1.2c0.2,0.1,0.3,0.2,0.5,0.2c0.3,0,0.6-0.1,0.9-0.4c0.1-0.2,0.1-0.4,0-0.7S29.4,25.5,29.1,25.5"/>
		<path class="st0" d="M30.8,26.1c0-0.1-0.1-0.1-0.1-0.1h-0.1c-0.1,0-0.2,0.1-0.3,0.1c-0.1,0-0.1,0.1-0.1,0.1c0,0.1,0,0.1,0.1,0.1
			c0.2,0.1,0.3,0.1,0.4,0.1l0,0c0,0,0,0,0.1,0c0,0,0,0,0-0.1S30.8,26.1,30.8,26.1"/>
		<path class="st0" d="M30.6,25.5c-0.1-0.1-0.2-0.2-0.2-0.3l-0.1-0.1c0,0,0,0-0.1,0.1S30,25.4,30,25.5c0,0.1,0,0.2,0,0.2
			s0.1,0.1,0.2,0.1s0.3-0.1,0.4-0.2C30.6,25.6,30.6,25.5,30.6,25.5"/>
		<path class="st0" d="M29.8,24.8c-0.1,0-0.1-0.1-0.1-0.1s0,0-0.1,0.1c0,0.1-0.1,0.2-0.1,0.2c0,0.1,0,0.2,0,0.2h0.1h0.1
			c0.1,0,0.2-0.1,0.3-0.2v-0.1C30,24.9,30,24.8,29.8,24.8C29.9,24.9,29.9,24.8,29.8,24.8"/>
		<path class="st0" d="M31.2,24.5c-0.1,0-0.2,0.1-0.2,0.1c0,0.2-0.1,0.3-0.3,0.3c-0.1,0,0,0.1,0,0.1c0,0.1,0.1,0.2,0.2,0.2H31
			c0.1-0.1,0.2-0.2,0.3-0.2c0,0,0.1,0,0.2,0s0.1,0,0.2-0.1c0-0.1,0-0.2-0.1-0.4C31.3,24.6,31.2,24.5,31.2,24.5"/>
		<path class="st0" d="M16.7,27.4c0,0.1-0.1,0.2-0.2,0.2l0,0c0.1,0,0.1,0,0.2,0c0.2,0,0.3-0.1,0.4-0.2s0.2-0.2,0.4-0.2
			c0.1,0,0.2,0,0.4,0.1c0.1,0.1,0.2,0.1,0.2,0.2s0,0.1-0.1,0.2l0,0l0,0h0.1c0.2,0,0.4-0.1,0.5-0.4c0.1-0.2,0.2-0.2,0.5-0.3
			c0.1-0.1,0.1-0.2,0.2-0.4c0-0.1,0-0.1-0.1-0.1c0,0,0,0-0.1,0c-0.4,0.2-0.8,0.3-1.3,0.3c-0.8,0-1.6-0.3-2.6-0.7
			c-0.3-0.1-0.3-0.4-0.3-0.6l0.3-1c0.2-0.3,0.4-0.5,0.8-0.5c0.5,0,1.3,0.3,2.3,1l0,0l0,0c0-0.1,0-0.2,0-0.2l-0.4-0.3
			c-0.1-0.1-0.2-0.2-0.2-0.3c0-0.3-0.2-0.4-0.3-0.5l0,0c0,0,0,0,0,0.1v0.3c0,0.1-0.1,0.1-0.1,0.1h-0.1c-0.6-0.1-0.8-0.3-0.9-0.5
			s-0.2-0.3-0.4-0.3h-0.1l0,0l0.1,0.1c0.1,0.1,0.1,0.1,0.1,0.2s-0.1,0.1-0.2,0.2c-0.1,0-0.1,0-0.2,0c-0.1,0-0.1,0-0.1,0
			c-0.1,0-0.2,0-0.2-0.1l0,0c-0.1-0.1-0.2-0.1-0.3-0.1c0,0-0.1,0-0.2,0l0,0l0,0c0.2,0.1,0.3,0.3,0.2,0.6l-0.4,1.2
			c0,0.3-0.1,0.5,0.2,0.9c0.3,0.1,0.4,0.2,0.4,0.3c0,0.1-0.1,0.2-0.2,0.2l0,0c0.1,0,0.2,0.1,0.2,0.1c0.1,0,0.2,0,0.3-0.2
			c0.1-0.1,0.2-0.1,0.3-0.1s0.1,0,0.2,0C16.5,27.1,16.7,27.2,16.7,27.4"/>
		<path class="st0" d="M14.4,24.8C14.5,24.8,14.5,24.8,14.4,24.8c0.1-0.1,0.1-0.1,0.1-0.2c-0.2-0.3-0.4-0.5-0.6-0.6h-0.1h-0.1v0.1
			C14,24.3,14.2,24.5,14.4,24.8L14.4,24.8z"/>
		<path class="st0" d="M10.5,24.8c0,0.3,0,0.6-0.3,0.6l0,0l0,0c0.1,0.1,0.2,0.1,0.3,0.1s0.2,0,0.2-0.1l0.1-0.1h0.1l0.8,0.4
			c0.1,0,0.2,0.1,0.2,0.2s0,0.1-0.1,0.2c0.1,0,0.2,0,0.2,0c0.1,0,0.2-0.1,0.4-0.1c0,0,0.1-0.1,0.2-0.1h0.1c0.1,0,0.3,0,0.4,0
			c0.4,0,0.7,0,1-0.1c0.1-0.1,0.1-0.2,0.1-0.3c0,0,0-0.1-0.1-0.1H14c-0.3,0.1-0.6,0.1-0.9,0.1c-0.7,0-1.3-0.2-2.1-0.7
			c-0.2-0.1-0.2-0.2-0.2-0.5c0.1-0.4,0.3-0.8,0.5-1c0-0.1,0.1-0.1,0.2-0.1l0,0c0.1,0,0.2,0,0.2,0c0.3,0,0.3-0.1,0.3-0.2l0,0l0,0
			h-0.1c-0.2,0-0.4-0.1-0.5-0.2s-0.2-0.2-0.3-0.2l0,0c0.1,0.1,0.1,0.1,0.1,0.2s0,0.2-0.1,0.2C10.7,23.6,10.5,24.1,10.5,24.8"/>
		<path class="st0" d="M12.6,24.1L12.6,24.1c-0.1-0.3-0.1-0.6,0-0.8c0.1-0.1,0.2-0.1,0.3-0.1s0.2,0,0.3,0.1s0.1,0.3,0,0.5
			c-0.1,0.3-0.2,0.5-0.4,0.5C12.8,24.2,12.7,24.2,12.6,24.1 M13.6,23.9c0.1-0.3,0-0.5-0.1-0.7S13.2,23,13,23s-0.3,0.1-0.4,0.2
			c-0.1,0.1-0.2,0.4-0.2,0.7c0,0.3,0.1,0.6,0.3,0.8c0.1,0,0.2,0,0.2,0C13.2,24.5,13.4,24.3,13.6,23.9"/>
		<path class="st0" d="M13.8,23c0.1,0,0.2-0.1,0.3-0.2c0-0.1,0-0.1-0.1-0.2l-0.2-0.1h-0.1c0,0-0.1,0-0.1,0.1
			c-0.1,0.1-0.1,0.2-0.1,0.3C13.7,22.9,13.7,23,13.8,23L13.8,23z"/>
		<path class="st0" d="M13.5,22.2l-0.2-0.1h-0.1l0,0c0,0,0,0,0,0.1v0.3c0,0.1,0.1,0.1,0.1,0.1s0.1,0,0.1-0.1
			c0.1-0.1,0.1-0.1,0.2-0.2c0-0.1,0-0.1,0-0.1C13.6,22.3,13.5,22.3,13.5,22.2"/>
		<path class="st0" d="M12.8,22.2c-0.1,0-0.2,0-0.3,0h-0.1c0,0,0,0.1,0,0.2s0.2,0.3,0.3,0.3c0,0,0.1,0,0.1-0.1s0-0.1,0-0.1V22.2
			C12.9,22.2,12.9,22.2,12.8,22.2L12.8,22.2z"/>
		<path class="st0" d="M9.4,24.3L9.4,24.3c0.3,0.1,0.5,0.1,0.7,0.1c0.1,0,0.1,0,0.2,0c0.1,0,0.1-0.1,0.1-0.1c0-0.1-0.1-0.1-0.1-0.1
			c-1-0.2-1.8-0.7-2.3-1.5c-0.1-0.2-0.1-0.4,0-0.6c0.2-0.3,0.5-0.5,0.8-0.7c0.1-0.1,0.2-0.1,0.3-0.1s0.2,0,0.3,0.1
			c0.7,0.6,0.9,1.2,1.1,1.8c0,0.1,0.1,0.2,0.1,0.2s0.1,0,0.1-0.1l-0.1-0.4c0-0.1,0-0.2,0-0.3c0.2-0.3,0.2-0.6,0-0.7l0,0
			c-0.1,0.2-0.2,0.3-0.3,0.3s-0.2-0.1-0.2-0.2c-0.3-0.4-0.5-0.6-0.8-0.8C9.2,21.1,9.1,21,9.2,21c-0.1-0.4-0.2-0.4-0.3-0.4l0,0l0,0
			c0.1,0.3,0,0.5-0.4,0.6c-0.5,0.2-0.9,0.5-1.1,1c-0.1,0.1-0.1,0.2-0.2,0.2s-0.2,0-0.3-0.1l0,0v0.1c0,0.3,0.1,0.4,0.3,0.5
			c0.1,0,0.2,0.1,0.2,0.2c0.1,0.2,0.2,0.3,0.3,0.4c0.1,0.1,0.1,0.1,0.1,0.2s-0.1,0.1-0.3,0.1l0,0C7.6,23.9,7.8,24,8,24h0.1
			c0.1,0,0.1,0,0.2,0.1l0.3,0.2c0.1,0.1,0.1,0.1,0.1,0.2s-0.1,0.1-0.2,0.2l0,0l0,0c0.1,0.1,0.2,0.1,0.3,0.1s0.2-0.1,0.3-0.1
			C9.2,24.3,9.3,24.3,9.4,24.3"/>
		<path class="st0" d="M7.5,19.9c0.1,0,0.3,0,0.4,0.3c0.1,0.4,0.1,0.6,0,0.7C7.9,21,7.8,21,7.7,21l0,0l0,0c-0.3-0.1-0.4-0.3-0.5-0.7
			C7.2,20.1,7.3,19.9,7.5,19.9 M7,20c-0.1,0.2-0.1,0.4,0.1,0.6c0.1,0.3,0.4,0.5,0.7,0.6h0.1c0.2,0,0.3-0.1,0.4-0.2
			c0.1-0.3,0.1-0.6-0.1-0.9c-0.2-0.3-0.4-0.4-0.6-0.4C7.3,19.7,7.1,19.8,7,20"/>
		<path class="st0" d="M7.6,19.5c0,0,0.1,0,0.2-0.1c0-0.1,0.1-0.2,0.1-0.3c0-0.1,0-0.1-0.1-0.1s-0.1,0-0.2,0H7.5
			c-0.1,0-0.1,0.1-0.1,0.2C7.4,19.3,7.5,19.5,7.6,19.5"/>
		<path class="st0" d="M7.2,19.6c0.1-0.1,0.1-0.2,0-0.4v-0.1H7.1c-0.1,0-0.3,0.1-0.3,0.2v0.1C6.9,19.5,7,19.6,7.2,19.6
			C7.1,19.6,7.2,19.6,7.2,19.6"/>
		<path class="st0" d="M6.6,19.4c-0.1,0-0.2,0.2-0.3,0.3v0.1C6.4,19.9,6.5,20,6.7,20c0.1,0,0.1,0,0.1-0.1
			C6.9,19.7,6.8,19.6,6.6,19.4L6.6,19.4z"/>
		<path class="st0" d="M6.5,18.6c0.1,0,0.2,0.1,0.2,0.2s0.1,0.1,0.1,0.1c0.1,0,0.1,0,0.1-0.1s0-0.1,0-0.2s0-0.1,0-0.2s0-0.2,0-0.3
			c-0.1,0-0.2-0.1-0.3-0.1c-0.2,0-0.3,0.1-0.4,0.2C6.2,18.4,6.4,18.5,6.5,18.6"/>
		<path class="st0" d="M13.9,27.2c-0.1,0-0.1,0.1-0.2,0.1c-0.1,0-0.2-0.1-0.3-0.2s0-0.2,0.1-0.4c0,0,0.1-0.1,0.2-0.1
			c0.1,0,0.2,0.1,0.3,0.2C14,26.9,14,27.1,13.9,27.2 M14.2,27.2c0.1-0.2,0-0.4-0.1-0.6c-0.1-0.1-0.3-0.2-0.4-0.2
			c-0.2,0-0.4,0.1-0.5,0.3c-0.1,0.2-0.1,0.4,0.1,0.6c0.1,0.1,0.3,0.2,0.4,0.2C13.9,27.5,14.1,27.4,14.2,27.2"/>
		<path class="st0" d="M11.3,29.1c-0.1,0-0.1,0.1-0.2,0.1c-0.1,0-0.2-0.1-0.3-0.2s0-0.2,0.1-0.4c0,0,0.1-0.1,0.2-0.1
			c0.1,0,0.2,0.1,0.3,0.2C11.4,28.9,11.4,29,11.3,29.1 M11.1,28.4c-0.2,0-0.4,0.1-0.5,0.3c-0.1,0.2-0.1,0.4,0.1,0.6
			c0.1,0.1,0.3,0.2,0.4,0.2l0,0c0.2,0,0.4-0.1,0.5-0.3c0.1-0.2,0-0.4-0.1-0.6S11.2,28.4,11.1,28.4"/>
		<path class="st0" d="M25.5,31.4c-0.1,0-0.1,0.1-0.2,0.1s-0.2-0.1-0.3-0.2c0-0.1-0.1-0.2,0.1-0.4c0.1,0,0.1-0.1,0.2-0.1
			s0.3,0.1,0.3,0.2S25.6,31.3,25.5,31.4 M25.2,30.6c-0.2,0-0.4,0.1-0.5,0.3c-0.1,0.2-0.1,0.4,0.1,0.7c0.1,0.2,0.3,0.2,0.5,0.2
			s0.4-0.2,0.5-0.4c0.1-0.2,0-0.4-0.1-0.6S25.4,30.6,25.2,30.6"/>
		<path class="st0" d="M15.4,28.7c-0.5-0.3-0.9-0.7-1.1-1c0-0.1-0.1-0.1-0.1-0.1h-0.1c0,0,0,0.1,0,0.2c0.2,0.4,0.7,0.9,1.3,1.1
			c0.1,0,0.1,0,0.1,0C15.5,28.8,15.5,28.8,15.4,28.7"/>
		<path class="st0" d="M15.3,30.9c-0.3-0.1-0.8-0.2-1.1-0.2c-0.1,0-0.1,0-0.1,0.1c0,0,0,0.1,0.1,0.1c0.4,0.1,0.8,0.2,1.1,0.4h0.1
			c0,0,0,0,0-0.1V31C15.4,30.9,15.4,30.9,15.3,30.9"/>
		<path class="st0" d="M13.4,30.3c-0.2,0-0.5,0.1-0.8,0.4v0.1h0.1c0.1,0,0.1,0,0.2-0.1c0.2-0.1,0.4-0.2,0.5-0.2h0.1
			c0.2,0,0.2,0.1,0.2,0.2s-0.1,0.2-0.1,0.2h-0.1h-0.1h-0.1C13.1,31,13,31,12.9,31.1l0,0h-0.1l0,0l0,0c0.2,0.1,0.4,0.1,0.6,0.1
			c0.2,0,0.4-0.1,0.5-0.2s0.1-0.3,0-0.4C13.7,30.4,13.6,30.3,13.4,30.3"/>
		<path class="st0" d="M9.2,26c0,0-0.1,0-0.1,0.1s0.1,0.2,0.3,0.2c0.3,0,0.5,0.1,0.7,0.2c0.1,0.1,0.1,0.2,0.1,0.2
			c0,0.1-0.1,0.1-0.2,0.1c-0.1,0-0.1,0-0.2-0.1c0-0.1,0-0.1-0.2-0.2s-0.3-0.1-0.4-0.1c-0.1,0-0.1,0-0.2,0l0,0l0,0c0,0,0,0,0,0.1
			c0.4,0.6,0.8,0.6,0.9,0.6c0.2,0,0.3-0.1,0.3-0.2c0.1-0.1,0.1-0.3,0-0.5C10.2,26.2,9.8,26,9.2,26"/>
		<path class="st0" d="M27.3,29.2C27,29.1,26.7,29,26.5,29c-0.2,0-0.4,0.1-0.6,0.2c-0.1,0.1-0.2,0.2-0.2,0.4c0,0.2,0.2,0.5,0.6,0.5
			c0.3,0,0.6-0.1,0.9-0.3l0.1-0.1c0,0,0,0-0.1,0s-0.1,0-0.2,0s-0.2-0.1-0.5-0.1c-0.1,0-0.2,0-0.2,0.1l-0.1,0.1
			c-0.1,0-0.2-0.1-0.2-0.2c0,0,0-0.2,0.2-0.2c0.1,0,0.2,0,0.3-0.1c0.2,0,0.3,0,0.5,0.1c0.1,0,0.1,0,0.2,0
			C27.4,29.4,27.4,29.3,27.3,29.2C27.4,29.3,27.4,29.3,27.3,29.2"/>
		<path class="st0" d="M24.3,29.8c0.5,0,0.8-0.1,1-0.2l0.1-0.1c0-0.1-0.1-0.1-0.2-0.1h-0.1c-0.4,0.1-0.7,0.1-1.1,0.2
			c-0.2,0-0.4,0-0.7,0c-0.1,0-0.2,0.1-0.2,0.1c0,0.1,0.1,0.1,0.2,0.2C23.8,29.8,24.1,29.8,24.3,29.8"/>
		<path class="st0" d="M24.4,30.6c-0.1-0.1-0.1-0.1-0.1-0.1c0-0.1,0.1-0.1,0.2-0.1l1-0.3c0.1,0,0.1-0.1,0.1-0.1s0-0.1-0.2-0.1l0,0
			c-0.9,0.2-1.4,0.4-1.4,0.6c0,0.1,0.1,0.3,0.4,0.5h0.1c0.1,0,0.1,0,0.1-0.1v-0.1L24.4,30.6z"/>
		<path class="st0" d="M24.3,31.2l-0.9,0.2c-0.1,0-0.1,0.1,0,0.2c0,0.1,0.1,0.1,0.2,0.1l0,0l0.8-0.2c0.1,0,0.1-0.1,0.1-0.1
			C24.4,31.2,24.4,31.2,24.3,31.2"/>
		<path class="st0" d="M14.5,29.9c-0.2-0.5-1.1-0.9-2.4-1c-0.1,0-0.1,0-0.1,0.1c0,0,0,0.1,0.1,0.1c1,0.2,1.7,0.4,2,0.7
			c0.1,0.1,0.2,0.2,0.2,0.2c0,0.1,0,0.1-0.1,0.1l-0.1,0.1c0,0.1,0,0.2,0.1,0.2h0.1C14.5,30.2,14.5,30.1,14.5,29.9"/>
		<path class="st0" d="M12.1,28.4c0-0.2-0.2-0.7-1.3-1.2h-0.1c0,0,0,0-0.1,0v0.1c0.1,0,0.1,0.1,0.2,0.1l0.1,0.1
			c0.2,0.2,0.5,0.3,0.7,0.5c0.1,0,0.1,0.1,0.1,0.1s0,0.1-0.1,0.1c0,0.1,0,0.1,0,0.1c0.1,0.1,0.2,0.1,0.3,0.1
			C12,28.5,12.1,28.5,12.1,28.4"/>
		<path class="st0" d="M12.3,27.7c0.2,0.1,0.3,0.1,0.5,0.2s0.5,0.2,0.6,0.2h0.1c0.2,0,0.3-0.1,0.3-0.2s0-0.2-0.1-0.2s-0.1,0-0.1,0
			l0,0c0,0-0.1,0.1-0.2,0.1c0,0-0.1,0-0.2,0c-0.7-0.3-1.4-0.6-2.2-1.1h-0.1h-0.1v0.1C11.4,27.3,11.9,27.5,12.3,27.7"/>
		<path class="st0" d="M4.2,16.4L4.2,16.4c0.2,0.1,0.3,0.2,0.4,0.3c0,0.1,0,0.2,0,0.4c0,0.2-0.1,0.3-0.1,0.3s0,0-0.1,0l-0.9-0.1V17
			c0-0.1,0.1-0.2,0.1-0.2s0.1,0,0.3,0l0,0v-0.1L3,16.6v0.1l0,0c0.2,0,0.2,0.1,0.3,0.1c0,0,0,0.1,0,0.2v0.3l-0.8-0.1
			c-0.1,0-0.1,0-0.1,0s0,0,0-0.1l0.1-0.4c0-0.2,0.1-0.3,0.1-0.3s0.1-0.1,0.3-0.1l0,0v-0.1l-0.6-0.1l-0.2,1.7h0.1l0,0
			c0-0.1,0.1-0.2,0.1-0.2s0,0,0.1,0h0.1l1.7,0.2c0.2,0,0.2,0.1,0.2,0.1s0,0.1,0,0.2l0,0h0.1l0.2-1.7L4,16.2L4.2,16.4z"/>
		<path class="st0" d="M4.6,14.6c-0.1,0-0.3,0-0.4,0s-0.3,0.1-0.4,0.3l-0.3,0.2c-0.1,0.1-0.2,0.1-0.3,0.2c-0.1,0-0.2,0-0.2,0
			c-0.1,0-0.2-0.1-0.2-0.1c0-0.1,0-0.1,0-0.2c0-0.1,0.1-0.2,0.2-0.3c0.1-0.1,0.3-0.1,0.5-0.1l0,0v-0.1l-0.9-0.1v0.1l0,0h0.1l0,0
			c0,0,0,0-0.1,0.1s-0.1,0.2-0.1,0.2c0,0.2,0,0.3,0.1,0.5c0.1,0.1,0.2,0.2,0.4,0.3c0.1,0,0.3,0,0.4,0c0.1,0,0.2-0.1,0.2-0.1L4,15.2
			C4.1,15.1,4.3,15,4.3,15c0.1,0,0.2,0,0.3,0c0.1,0,0.2,0.1,0.3,0.2C5,15.3,5,15.3,5,15.4c0,0.2-0.2,0.3-0.3,0.3
			c-0.1,0-0.3,0.1-0.4,0.1l0,0v0.1L5,16.1V16l0,0H4.9l0,0c0,0,0,0,0.1-0.1s0.1-0.2,0.1-0.3c0-0.2,0-0.4-0.1-0.5
			C5,14.8,4.8,14.7,4.6,14.6"/>
		<path class="st0" d="M5.7,13.3c-0.1,0.1-0.1,0.2-0.1,0.2s-0.1,0-0.2,0l-1.8-0.7v-0.1c0.1-0.2,0.1-0.2,0.2-0.3c0.1,0,0.2,0,0.4,0
			l0,0v-0.1l-0.7-0.2l-0.6,1.6L3.6,14v-0.1l0,0c-0.2-0.1-0.3-0.2-0.3-0.3s0-0.2,0-0.3v-0.1L5,13.9C5.2,14,5.2,14,5.3,14
			c0,0,0,0.1,0,0.2l0,0h0.1L5.7,13.3L5.7,13.3L5.7,13.3z"/>
		<path class="st0" d="M5.6,11.5L5.3,12l-0.7-0.7L5.6,11.5z M6.7,11.2l-0.1,0.1c0,0-0.1,0-0.3,0L4,11h0l1.4,1.4
			c0.2,0.2,0.3,0.3,0.4,0.4c0,0.1,0,0.1,0,0.2l0,0l0.1,0.1l0.3-0.6l-0.1-0.1l0,0C6,12.6,6,12.6,6,12.6H5.9c0,0-0.1,0-0.1-0.1
			c0,0-0.1-0.1-0.3-0.3l0.3-0.7l0.4,0.1c0.1,0,0.1,0,0.1,0c0.1,0,0.1,0,0.1,0s0.1,0,0.1,0.1c0,0,0,0.1,0,0.2l0,0V12l0.4-0.7
			L6.7,11.2L6.7,11.2z"/>
		<path class="st0" d="M7.4,9.9c0,0.2-0.1,0.4-0.2,0.5s-0.1,0.1-0.1,0.1s0,0-0.1,0L5.5,9.4c-0.1,0-0.1-0.1-0.1-0.1s0,0,0-0.1
			C5.6,9,5.8,8.8,6,8.8h0.1c0.2,0,0.5,0.1,0.7,0.3C7.2,9.3,7.4,9.6,7.4,9.9 M7.5,9.2C7.4,9,7.3,8.9,7.1,8.8C6.7,8.5,6.3,8.4,5.9,8.5
			C5.7,8.6,5.5,8.8,5.3,9L4.8,9.7l0.1,0.1l0,0C5,9.6,5.1,9.6,5.1,9.6s0.1,0,0.2,0.1l1.4,1c0.1,0.1,0.2,0.2,0.2,0.2s0,0.1-0.1,0.2
			l0,0l0.1,0.1l0.5-0.7c0.1-0.2,0.2-0.4,0.3-0.5c0-0.1,0-0.2,0-0.3C7.7,9.5,7.6,9.3,7.5,9.2"/>
		<path class="st0" d="M8.8,8.6C8.7,8.7,8.5,8.7,8.3,8.7S7.8,8.5,7.6,8.2C7.3,8,7.1,7.7,7.1,7.5s0-0.4,0.1-0.5s0.2-0.1,0.3-0.1h0.1
			c0.2,0,0.5,0.2,0.7,0.5c0.3,0.3,0.5,0.5,0.5,0.7C9,8.3,8.9,8.5,8.8,8.6 M8.7,7.1C8.4,6.8,8.1,6.6,7.8,6.6S7.2,6.7,7.1,6.9
			C6.9,7.1,6.8,7.3,6.8,7.6c0,0.3,0.2,0.6,0.5,0.9C7.6,8.8,7.9,8.9,8.2,9h0.1C8.6,9,8.8,8.9,9,8.7S9.2,8.3,9.2,8S9,7.4,8.7,7.1"/>
		<path class="st0" d="M10.1,6.2c-0.1,0-0.3-0.1-0.5-0.1H9.2c-0.1,0-0.2,0-0.3,0c0,0,0-0.1-0.1-0.1c0-0.1-0.1-0.2-0.1-0.3
			c0-0.1,0-0.1,0.1-0.2c0.1,0,0.2,0,0.4,0c0.1,0,0.3,0.1,0.5,0.2l0,0l0.1-0.1L9.2,5L9.1,5.1l0,0v0.1l0,0c0,0,0,0-0.2,0
			c-0.1,0-0.2,0.1-0.2,0.1C8.5,5.5,8.5,5.6,8.5,5.8c0,0.2,0.1,0.3,0.2,0.5c0,0.1,0.2,0.2,0.3,0.2s0.2,0,0.3,0h0.4c0.2,0,0.3,0,0.4,0
			c0.1,0,0.2,0.1,0.3,0.2s0.1,0.2,0.1,0.3c0,0.1,0,0.2-0.1,0.2C10.1,7.4,10,7.4,9.8,7.3c-0.1,0-0.2-0.1-0.4-0.2l0,0L9.3,7.2l0.6,0.6
			L10,7.7l0,0V7.6l0,0c0,0,0,0,0.2-0.1c0.1,0,0.2-0.1,0.3-0.1c0.2-0.1,0.2-0.3,0.2-0.5s0-0.4-0.2-0.5C10.4,6.3,10.3,6.2,10.1,6.2"/>
		<path class="st0" d="M12.9,3.6c-0.1-0.2-0.1-0.3-0.1-0.3c0-0.1,0.1-0.1,0.1-0.2l0,0L12.8,3l-0.7,0.3l0.1,0.1l0,0
			c0.1,0,0.2,0,0.2,0s0.1,0.1,0.2,0.3L13,4.6c0.1,0.2,0.2,0.4,0.2,0.5c0,0.2-0.1,0.4-0.3,0.5s-0.4,0.1-0.5-0.1
			c-0.1-0.1-0.2-0.2-0.3-0.4L11.8,4c-0.1-0.2-0.1-0.2-0.1-0.2s0-0.1,0.2-0.1l0,0l-0.1-0.1L11,3.8L11.1,4l0,0c0.1,0,0.2,0,0.2,0
			s0.1,0,0.1,0.2l0.6,1c0.1,0.2,0.2,0.4,0.3,0.5s0.3,0.2,0.4,0.2c0.1,0,0.2,0,0.4-0.1c0.3-0.1,0.5-0.4,0.4-0.7
			c0-0.2-0.1-0.4-0.2-0.6L12.9,3.6z"/>
		<path class="st0" d="M15.2,2.4c0-0.1,0.1-0.1,0.2-0.1l0,0V2.2l-0.7,0.2v0.1l0,0c0.1,0,0.2,0,0.2,0s0.1,0.1,0.2,0.3l0.3,1.1
			l-1.6-1.3l-0.5,0.2v0.1l0,0c0.1,0,0.1,0,0.1,0s0.1,0,0.1,0.1h0.1l0.5,1.6c0.1,0.2,0.1,0.3,0.1,0.4S14.1,5.1,14,5.2l0,0v0.1L14.8,5
			V4.9l0,0c-0.1,0-0.2,0-0.2,0s-0.1-0.1-0.2-0.3L14,3.2l1.8,1.5h0.1l-0.6-1.9C15.2,2.5,15.2,2.4,15.2,2.4"/>
		<path class="st0" d="M17.1,4.3H17c-0.1,0-0.1,0-0.1,0s-0.1-0.1-0.1-0.2l-0.3-1.6c0-0.2,0-0.2,0-0.2s0.1-0.1,0.2-0.1l0,0V2.1
			l-0.9,0.2v0.1l0,0c0.1,0,0.2,0,0.2,0s0.1,0.1,0.1,0.2l0.3,1.6c0,0.2,0,0.2,0,0.2s-0.1,0.1-0.2,0.1l0,0v0.1l0.9-0.2V4.3L17.1,4.3z"
			/>
		<path class="st0" d="M17.9,4.1C17.9,4.1,17.8,4.1,17.9,4.1c-0.1,0-0.1,0-0.1-0.1l-0.2-1.9c0-0.1,0-0.1,0-0.1s0,0,0.1,0h0.1
			c0.2,0,0.4,0.1,0.5,0.2c0.2,0.2,0.3,0.4,0.4,0.8c0,0.4-0.1,0.7-0.3,0.9C18.4,4,18.2,4,17.9,4.1L17.9,4.1z M18.5,1.8
			c-0.2-0.1-0.4-0.1-0.7-0.1L17,1.8v0.1l0,0c0.1,0,0.2,0,0.2,0s0,0.1,0.1,0.2l0.1,1.7c0,0.2,0,0.2,0,0.2s-0.1,0.1-0.2,0.1l0,0v0.1
			l0.9-0.1c0.2,0,0.4-0.1,0.6-0.2c0.1,0,0.2-0.1,0.2-0.2c0.1-0.1,0.2-0.3,0.2-0.5s0.1-0.4,0-0.6C19.1,2.4,18.9,2,18.5,1.8"/>
		<path class="st0" d="M21.1,3c0,0.4-0.1,0.7-0.2,0.9c-0.1,0.2-0.3,0.2-0.4,0.2C20.3,4,20.1,4,20,3.8s-0.2-0.5-0.1-0.9
			c0-0.4,0.1-0.7,0.2-0.8c0.1-0.2,0.3-0.2,0.4-0.2l0,0c0.2,0,0.3,0.1,0.4,0.3C21.1,2.3,21.1,2.6,21.1,3 M20.5,1.6
			c-0.3,0-0.5,0.1-0.7,0.3s-0.3,0.6-0.4,1c0,0.4,0.1,0.7,0.2,1c0.2,0.3,0.4,0.4,0.7,0.4h0.1c0.3,0,0.5-0.1,0.7-0.3
			c0.2-0.2,0.4-0.6,0.4-1s-0.1-0.7-0.3-1C21.1,1.7,20.8,1.6,20.5,1.6"/>
		<path class="st0" d="M23.2,2L23.2,2L23.2,2L23.2,2c-0.1,0.1-0.1,0-0.2,0c-0.1-0.1-0.2-0.1-0.2-0.1c-0.2,0-0.3,0-0.5,0.1
			c-0.1,0.1-0.2,0.3-0.2,0.5c0,0.1,0,0.3,0.1,0.4c0,0.1,0.1,0.1,0.2,0.2l0.2,0.2c0.1,0.1,0.2,0.2,0.2,0.3c0.1,0.1,0.1,0.2,0,0.3
			c0,0.1-0.1,0.2-0.2,0.3c-0.1,0.1-0.2,0.1-0.2,0.1c-0.2,0-0.3-0.1-0.4-0.3c0-0.1-0.1-0.2-0.1-0.4l0,0h-0.1l-0.1,0.9h0.1l0,0V4.4
			l0,0c0,0,0,0,0.1,0.1s0.2,0.1,0.3,0.1h0.1c0.1,0,0.3,0,0.4-0.1S22.9,4.2,23,4c0-0.1,0-0.3,0-0.4c0-0.1-0.1-0.3-0.3-0.4L22.5,3
			c-0.1-0.1-0.1-0.2-0.2-0.2c0-0.1,0-0.2,0-0.2c0-0.1,0.1-0.2,0.1-0.2c0.1,0,0.1-0.1,0.2,0c0.1,0,0.2,0.1,0.3,0.2
			C23,2.7,23,2.9,23,3.1l0,0h0.1L23.2,2L23.2,2L23.2,2z"/>
		<path class="st0" d="M26.9,5.8c-0.1-0.1-0.1-0.1-0.2-0.1c0,0,0-0.1,0.1-0.2L27.5,4c0.1-0.1,0.1-0.2,0.1-0.2s0.1,0,0.2,0l0,0
			l0.1-0.1l-0.6-0.3L26,4.8l0.1-1.9l-0.6-0.3l-0.1,0.1l0,0c0.1,0.1,0.2,0.1,0.2,0.1s0,0.1-0.1,0.2l-0.6,1.4
			c-0.1,0.2-0.2,0.3-0.2,0.3s-0.1,0-0.2,0l0,0l-0.1,0.1l0.7,0.3L25.2,5l0,0C25.1,5,25,5,25,4.9c0,0,0-0.2,0.1-0.4l0.5-1.2l-0.1,2
			h0.1L27,3.9l-0.6,1.4c-0.1,0.2-0.1,0.2-0.1,0.2s-0.1,0-0.2,0l0,0L26,5.6L26.8,6L26.9,5.8L26.9,5.8z"/>
		<path class="st0" d="M28.7,6.3L28.7,6.3c-0.2,0.1-0.3,0.2-0.4,0.2l0,0c-0.1,0-0.2-0.1-0.4-0.2c-0.2-0.1-0.3-0.2-0.3-0.2V6l0.5-0.8
			l0.2,0.2c0.1,0.1,0.2,0.1,0.2,0.2c0,0,0,0.1-0.1,0.3l0,0L28.5,6L29,5.2l-0.1-0.1l0,0c-0.1,0.1-0.2,0.2-0.2,0.2s-0.1,0-0.2-0.1
			L28.3,5l0.4-0.7c0,0,0-0.1,0.1-0.1l0,0l0.3,0.2c0.2,0.1,0.2,0.2,0.2,0.2s0,0.1-0.1,0.3l0,0L29.3,5l0.3-0.5l-1.4-0.9l0,0.4l0,0
			c0.1,0.1,0.1,0.1,0.1,0.2c0,0,0,0.1-0.1,0.2l-0.9,1.4C27.2,5.9,27.2,6,27.2,6S27.1,6,27,5.9l0,0L26.9,6l1.4,0.9L28.7,6.3L28.7,6.3
			z"/>
		<path class="st0" d="M30.1,8.2C30.1,8.1,30,8.1,30,8c0,0,0-0.1,0-0.2l0.2-1.1L31,6.5c0.2-0.1,0.3-0.1,0.4-0.1c0,0,0.1,0,0.2,0.1
			l0,0l0.1-0.1l-0.6-0.5L31,6l0,0c0.1,0.1,0.1,0.1,0.1,0.1s0,0,0,0.1l0,0c0,0-0.1,0-0.2,0.1l-0.5,0.2l0.1-0.6V5.8c0,0,0-0.1,0.1-0.1
			c0,0,0,0,0.1,0c0,0,0.1,0,0.1,0.1l0,0l0.1-0.1l-0.7-0.6L30,5.2l0,0c0.1,0.1,0.1,0.1,0.1,0.2s0,0.3-0.1,0.6l-0.1,0.7l-0.8,0.2
			c-0.2,0-0.3,0.1-0.4,0.1c-0.1,0-0.1,0-0.2-0.1l0,0L28.4,7L29,7.5l0.1-0.1l0,0C29,7.3,29,7.3,29,7.3V7.2c0,0,0,0,0.1-0.1
			c0,0,0.1,0,0.2-0.1l0.6-0.2c-0.1,0.4-0.1,0.6-0.1,0.7s-0.1,0.2-0.1,0.2h-0.1c0,0-0.1,0-0.1-0.1l0,0l-0.1,0.1L30,8.4L30.1,8.2
			L30.1,8.2z"/>
		<path class="st0" d="M30.9,8.6l1.2-1.2c0.1-0.1,0.2-0.1,0.2-0.1s0.1,0,0.2,0.1l0,0l0.1-0.1l-0.7-0.7l-0.1,0.1l0,0
			C31.9,6.9,32,7,32,7s0,0.1-0.1,0.2l-1.2,1.2c-0.1,0.1-0.2,0.1-0.2,0.1s-0.1,0-0.2-0.1l0,0l-0.1,0.1l0.7,0.7L30.8,9l0,0
			c-0.1-0.1-0.1-0.2-0.1-0.2C30.7,8.8,30.7,8.7,30.9,8.6"/>
		<path class="st0" d="M32.3,10.4L32.3,10.4l0.1-0.2l0,0c-0.1,0-0.2,0-0.3,0c-0.1,0-0.3-0.1-0.4-0.2c-0.1-0.2-0.2-0.3-0.1-0.6
			c0.1-0.2,0.2-0.4,0.5-0.6c0.3-0.2,0.5-0.3,0.8-0.4c0.2,0,0.4,0,0.5,0.2s0.1,0.3,0.1,0.5c0,0.1-0.1,0.2-0.2,0.4l0,0l0.1,0.1L34,9
			l-0.1-0.1l0,0h-0.1h-0.1c0,0,0,0-0.1-0.2c0-0.1-0.1-0.2-0.2-0.3C33.2,8.2,32.9,8,32.6,8l0,0c-0.3,0-0.6,0.1-0.9,0.4
			c-0.3,0.2-0.5,0.5-0.6,0.8s0,0.6,0.2,0.9c0.1,0.2,0.3,0.3,0.5,0.3c0.1,0,0.2,0,0.3,0C32.3,10.4,32.3,10.4,32.3,10.4"/>
		<path class="st0" d="M34.2,10.6l-0.6,0.7l-0.3-0.5L34.2,10.6z M33.2,12.4c0-0.1,0-0.1,0-0.1s0-0.1,0.2-0.2l1.5-1.7l-0.1-0.1
			l-1.9,0.4c-0.3,0.1-0.4,0.1-0.5,0.1s-0.1,0-0.2-0.1l0,0l-0.2,0l0.3,0.6l0.1-0.1l0,0c0-0.1,0-0.1,0-0.1s0-0.1,0.1-0.1h0.1
			c0.1,0,0.2,0,0.4-0.1l0.4,0.6l-0.2,0.3l-0.1,0.1L33,12h-0.1c0,0,0,0-0.1-0.1l0,0L32.7,12l0.4,0.7L33.2,12.4L33.2,12.4z"/>
		<path class="st0" d="M36,13.5c0.1,0,0.1,0.1,0.2,0.2l0,0h0.1L36,12.9L35.9,13l0,0c0,0.1,0,0.2,0,0.2s-0.1,0.1-0.3,0.2l-1.1,0.4
			l1.2-1.7l-0.2-0.5l-0.1,0.1l0,0c0,0.1,0,0.1,0,0.1s0,0.1-0.1,0.1V12l-1.5,0.6c-0.2,0.1-0.3,0.1-0.4,0.1c-0.1,0-0.1-0.1-0.2-0.2
			l0,0h-0.1l0.3,0.7h0.1l0,0c0-0.1,0-0.2,0-0.2s0.1-0.1,0.3-0.2l1.3-0.5l-1.4,1.9l0,0v0.1l1.9-0.8C35.8,13.5,35.9,13.5,36,13.5"/>
		<path class="st0" d="M34.7,15.9c-0.2-0.1-0.3-0.2-0.4-0.4c0-0.2,0-0.3,0.2-0.5s0.4-0.3,0.8-0.4c0.2,0,0.4-0.1,0.5-0.1
			s0.2,0,0.3,0.1c0.2,0.1,0.3,0.2,0.4,0.4c0,0.2,0,0.3-0.2,0.5c-0.1,0.2-0.4,0.3-0.8,0.4C35.2,16,34.9,16,34.7,15.9 M35.2,16.4
			c0.1,0,0.3,0,0.5-0.1c0.4-0.1,0.7-0.3,0.9-0.5s0.2-0.5,0.2-0.8c-0.1-0.3-0.2-0.5-0.5-0.6s-0.6-0.2-1-0.1c-0.4,0.1-0.7,0.3-0.9,0.5
			s-0.3,0.5-0.2,0.8s0.2,0.5,0.5,0.6C34.8,16.3,35,16.4,35.2,16.4"/>
		<path class="st0" d="M37.1,17.6L37.1,17.6C37,17.6,37,17.6,37.1,17.6L37.1,17.6c-0.1,0-0.1,0-0.1-0.2c0-0.1,0-0.2,0-0.3
			c0-0.2-0.1-0.3-0.3-0.4c-0.1-0.1-0.3-0.1-0.5-0.1c-0.1,0-0.3,0.1-0.4,0.2c-0.1,0.1-0.1,0.1-0.2,0.2l-0.2,0.3
			c-0.1,0.2-0.2,0.3-0.2,0.3c-0.1,0.1-0.2,0.1-0.3,0.1s-0.2,0-0.3-0.1s-0.1-0.1-0.1-0.2c0-0.2,0-0.3,0.2-0.4
			c0.1-0.1,0.2-0.2,0.4-0.2l0,0v-0.1l-0.8,0.2V17l0,0h0.1l0,0c0,0,0,0,0,0.2c0,0.1,0,0.2,0,0.3c0,0.2,0.1,0.3,0.3,0.5
			c0.1,0.1,0.3,0.1,0.4,0.1h0.1c0.1,0,0.3-0.1,0.4-0.2c0.1-0.1,0.2-0.2,0.3-0.4l0.2-0.3c0.1-0.1,0.1-0.2,0.2-0.2
			c0.1,0,0.1-0.1,0.2-0.1c0.1,0,0.2,0,0.2,0.1c0.1,0,0.1,0.1,0.1,0.2s0,0.2-0.1,0.3c-0.1,0.1-0.2,0.2-0.5,0.3l0,0v0.1L37.1,17.6
			L37.1,17.6z"/>
		<path class="st0" d="M19.1,35.3c-0.1,0-0.2,0-0.2-0.1c-0.1-0.3-0.1-0.6,0-1.1c0-0.1,0.1-0.2,0.2-0.2s0.2,0,0.2,0.2
			c0,0.4,0.1,0.7,0,1C19.3,35.3,19.1,35.3,19.1,35.3"/>
		<path class="st0" d="M20.1,35.3c-0.1,0-0.2,0-0.2-0.2v-0.9c0-0.1,0-0.2,0.1-0.3c0,0,0.1-0.1,0.2-0.1s0.3,0.1,0.3,0.3v0.8
			c0,0.1,0,0.1-0.1,0.2C20.3,35.3,20.2,35.3,20.1,35.3"/>
		<path class="st0" d="M16.9,36h-0.1c-0.1,0-0.2-0.1-0.2-0.2c0-0.1,0-0.1,0.1-0.2h0.1c0.1,0,0.2,0,0.2,0.1s0,0.1,0,0.2
			C17.1,36,17,36,16.9,36"/>
		<path class="st0" d="M22.1,36.1c-0.1,0-0.1,0-0.2-0.1c0,0,0-0.1,0-0.2c0-0.1,0.1-0.2,0.2-0.2h0.1c0.1,0,0.2,0.1,0.2,0.2
			c0,0.1-0.1,0.2-0.2,0.3C22.2,36,22.1,36.1,22.1,36.1"/>
		<path class="st0" d="M17.5,35.6h-0.1l-0.2-0.2v-0.1c0.3-0.3,0.7-0.5,1.2-0.6l0,0c0.1,0,0.1,0.1,0.2,0.1c0,0.1,0,0.2-0.1,0.3
			c-0.3,0.1-0.5,0.2-0.7,0.3C17.6,35.5,17.5,35.6,17.5,35.6"/>
		<path class="st0" d="M21.6,35.7C21.6,35.7,21.5,35.6,21.6,35.7c-0.3-0.3-0.6-0.4-0.9-0.5c0,0-0.1,0-0.1-0.1c0-0.2,0-0.3,0-0.3
			c0.5,0,0.9,0.2,1.3,0.5v0.1l0,0L21.6,35.7L21.6,35.7z"/>
		<path class="st0" d="M20.8,37.5c-0.1,0-0.1,0-0.2-0.1c-0.3-0.2-0.6-0.3-0.9-0.5c-0.1-0.1-0.1-0.2-0.1-0.2c0-0.1,0.1-0.2,0.3-0.2
			H20c0.2,0.1,0.3,0.2,0.5,0.2c0.2,0.1,0.4,0.2,0.5,0.3l0.1,0.1v0.1L21,37.4C20.9,37.4,20.8,37.4,20.8,37.5"/>
		<path class="st0" d="M17,37.2L17,37.2c-0.1,0-0.1-0.1-0.1-0.2c0-0.5,0.5-0.8,1-1.2c0.2-0.1,0.3-0.2,0.5-0.3c0.1,0,0.1-0.1,0.2-0.1
			h0.1l0.3,0.1c0,0,0.1,0,0.1,0.1c0,0,0,0.1-0.1,0.1c-0.2,0.1-0.3,0.3-0.5,0.4c-0.3,0.2-0.6,0.4-0.8,0.7C17.5,37,17.3,37.1,17,37.2
			L17,37.2z"/>
		<path class="st0" d="M18.5,37.4h-0.1l-0.2-0.2c-0.1-0.1-0.1-0.2,0.1-0.4s0.4-0.4,0.7-0.5c0.2-0.2,0.5-0.3,0.7-0.6
			c0.1-0.1,0.2-0.2,0.3-0.2h0.1c0.1,0,0.1,0,0.2,0s0.2,0,0.2,0s-0.1,0.2-0.1,0.3c-0.3,0.3-0.6,0.5-0.9,0.7s-0.6,0.4-0.7,0.7
			C18.5,37.4,18.5,37.4,18.5,37.4"/>
		<path class="st0" d="M22,37c-0.1,0-0.1,0-0.2,0s-0.2-0.1-0.3-0.2c-0.1-0.1-0.2-0.2-0.4-0.3c-0.1-0.1-0.2-0.1-0.3-0.1
			c-0.1-0.1-0.3-0.1-0.4-0.2c-0.1,0-0.1-0.1-0.1-0.1c0-0.1,0.1-0.2,0.1-0.3s0.1-0.1,0.1-0.1h0.1c0.1,0.1,0.3,0.2,0.5,0.3
			c0.4,0.2,0.8,0.4,1.1,0.8v0.1c0,0,0,0-0.1,0.1C22.2,37,22.1,37,22,37"/>
		<path class="st0" d="M15.1,35c0.2,0,0.4,0.1,0.4,0.1c0,0.1,0,0.1,0,0.3c-0.1,0.1,0,0.2,0,0.2h0.1c0.1,0,0.3-0.2,0.4-0.4
			c0-0.1,0.1-0.2,0.3-0.2c0.1-0.1,0.2-0.2,0.1-0.3c0-0.1-0.1-0.1-0.1-0.1s0,0-0.1,0c-0.1,0.1-0.2,0.1-0.3,0.2h-0.1
			c-0.2,0-0.4-0.1-0.5-0.2L14.9,34c0-0.1-0.1-0.1-0.1-0.1l0,0l0,0c0,0,0,0.1,0,0.2l0.2,0.3c0,0.1,0,0.1,0,0.1l-0.1,0.1l0,0
			c-0.5,0-0.9-0.2-1.2-0.7c0-0.1-0.1-0.1-0.2-0.1l0,0l0,0c0,0,0,0.1,0,0.2l0.2,0.2c0.1,0.1,0.1,0.1,0,0.1c0,0,0,0-0.1,0
			c-0.4,0-0.8-0.1-1.2-0.5c-0.1,0-0.1,0-0.1,0c-0.1,0.1-0.1,0.1,0,0.1l0.1,0.1v0.1c0,0,0,0-0.1,0l-0.7,0.1c-0.1,0-0.2,0-0.2,0.1
			s0.1,0.1,0.2,0.1c0.7-0.1,1.2,0,1.5,0.1h0.1v0.1L13,34.9c-0.1,0.1-0.1,0.1-0.1,0.2c0,0,0,0,0.1,0h0.1c0.4-0.3,0.7-0.4,0.9-0.4
			c0.1,0,0.2,0,0.2,0c0.1,0,0.1,0,0.1,0.1s0,0.1,0,0.2l-0.1,0.3c0,0.1,0,0.1,0,0.2h0.1c0,0,0.1,0,0.1-0.1C14.5,35.3,14.8,35,15.1,35
			L15.1,35z M15,36.3c-0.1,0-0.2,0-0.2-0.1v-0.1l0.2-0.4c0-0.1,0-0.1,0-0.1h-0.1c-0.1,0-0.2,0.1-0.2,0.1c-0.3,0.3-0.6,0.5-1,0.5
			c-0.1,0-0.2,0-0.3,0s-0.2-0.1-0.2-0.1c0-0.1,0-0.1,0.1-0.2l0.3-0.4c0-0.1,0-0.1,0-0.2l0,0h-0.1h-0.1l-0.7,0.4
			c-0.1,0-0.2,0.1-0.2,0.1c-0.2,0-0.3,0-0.4-0.2L12,35.5v-0.1c0.1-0.1,0.2-0.2,0.3-0.3c0-0.1,0.1-0.1,0-0.1c0,0-0.1-0.1-0.2-0.1
			C12,35,11.8,35,11.6,35c-0.5,0-0.7,0-0.9-0.1c-0.1-0.1-0.1-0.1-0.1-0.2c0-0.1,0.1-0.2,0.2-0.3l0.7-0.3c0.1,0,0.1-0.1,0.1-0.1
			s0-0.1-0.1-0.1v-0.1l0.1-0.1c0.1-0.1,0.2-0.1,0.3-0.1c0.2,0,0.5,0.1,0.8,0.3c0.1,0,0.1,0.1,0.1,0.1c0.1-0.1,0.1-0.1,0-0.2
			l-0.1-0.3c0-0.1,0-0.1,0-0.2l0.1-0.1c0.4,0,0.7,0.2,1.1,0.7C14,34,14,34,14.1,34l0,0l0,0c0,0,0-0.1,0-0.2L14,33.5
			c0-0.1,0-0.1,0-0.2c0,0,0.1-0.1,0.2-0.1c0.1,0,0.1,0,0.2,0c0.3,0,0.4,0.1,0.5,0.2l0.4,0.6c0.1,0.1,0.1,0.1,0.2,0.1
			c0.1,0,0.1-0.1,0.2-0.2c0-0.1,0.1-0.1,0.1-0.1c0.1,0,0.3,0.1,0.6,0.4c0.1,0.1,0.2,0.2,0.4,0.1c0.1,0,0.1,0,0.2-0.1
			c0.3-0.1,0.6-0.2,0.9-0.2c0.1,0,0.3,0,0.4,0s0.2,0.1,0.1,0.2c0,0.1-0.2,0.2-0.4,0.3h-0.1h-0.1c-0.3,0-0.7,0.3-1,0.5
			c-0.1,0.1-0.2,0.1-0.3,0.1c-0.1,0-0.1,0-0.2,0.1c-0.1,0-0.2,0.2-0.4,0.3C15.8,35.9,15.4,36.3,15,36.3"/>
		<path class="st0" d="M9.1,32.5c0.2,0,0.3,0,0.3,0.1v0.1c0,0.1,0,0.2,0.1,0.2h0.6c0.1,0,0.1,0,0.1,0v-0.1c-0.1-0.2-0.2-0.3-0.3-0.3
			H9.8c0,0-0.1,0-0.2,0c-0.2-0.1-0.3-0.5-0.3-1.2c0-0.1,0-0.1,0-0.2l0,0c-0.1,0-0.1,0-0.1,0.2l-0.1,0.3c0,0.1-0.1,0.1-0.1,0.1H8.9
			c-0.3-0.1-0.5-0.4-0.6-0.9c0-0.1,0-0.9-0.2-0.4C8,30.5,7.9,30.2,7.8,30c0-0.1-0.1-0.1-0.1-0.1C7.6,30,7.6,30,7.6,30.1
			s0,0.2-0.1,0.2s-0.1,0.1-0.1,0.1s0,0.1,0.1,0.1c0.2,0,0.4,0.3,0.6,0.8c0,0.1,0,0.1,0,0.1H7.4H7.3c-0.1,0-0.1,0-0.1,0.1
			s0.1,0.1,0.2,0.1l0.7,0.1c0.2,0,0.4,0.1,0.5,0.4c0.2-0.1,0.2-0.1,0.2,0c0,0,0,0-0.1,0.1c-0.3,0.1-0.6,0.2-0.8,0.2
			c-0.1,0-0.2,0-0.2,0.1c0,0,0,0.1,0.2,0.1c0.1,0,0.2,0,0.3,0s0.3,0,0.4-0.1C8.8,32.5,8.9,32.5,9.1,32.5 M11.3,33.6h-0.1
			c-0.4-0.4-0.9-0.5-1.5-0.5c-0.2,0-0.4,0.1-0.6,0.1c0,0-0.1,0-0.1-0.1c0,0,0-0.1,0-0.2c0-0.1-0.1-0.2-0.2-0.2H8.7
			c-0.1,0-0.2,0-0.3,0c-0.6,0.1-1-0.1-1.3-0.5v-0.1h0.1L8.1,32c0.1,0,0.1,0,0.1,0c0-0.1,0-0.1-0.1-0.1c-0.9-0.1-1.4-0.4-1.6-0.8V31
			l0.1-0.1L7.3,31c0.1,0,0.2,0,0.2-0.1s0-0.1-0.1-0.2l-0.7-0.4c-0.1-0.1-0.1-0.1-0.1-0.2S6.7,30,6.8,30s0.2,0,0.3,0
			c0.1,0,0.2,0,0.2-0.1c0.1-0.1,0.1-0.2,0.1-0.4v-0.2c0-0.2,0-0.2,0.1-0.2c0,0,0.1,0,0.4,0.3c0,0.1,0.1,0.2,0.1,0.2
			c0.1,0,0.1-0.1,0.2-0.4c0-0.1,0.1-0.1,0.1-0.1s0.1,0,0.2,0.1c0.3,0.2,0.3,0.9,0.2,1.5v0.1h0.1c0,0,0.1,0,0.1-0.2L9,30.2
			C9,30.1,9.1,30,9.2,30c0.1,0,0.1,0,0.2,0.1c0.3,0.2,0.3,0.6,0.3,1.5c0,0.1,0,0.1,0.1,0.2h0.1c0.1,0,0.1-0.1,0.2-0.2
			c0-0.1,0.1-0.1,0.1-0.1s0.1,0,0.1,0.1c0.1,0.8,0.4,1.3,1,1.7C11.5,33.4,11.5,33.5,11.3,33.6C11.4,33.6,11.4,33.6,11.3,33.6"/>
		<path class="st0" d="M11.1,32.1C11,32.1,11,32,11,31.9s0-0.1,0-0.2c0.1-0.1,0.2-0.1,0.3-0.1s0.2,0,0.2,0.1c0,0,0.1,0.1,0.1,0.2
			C11.5,32,11.4,32,11.1,32.1L11.1,32.1z"/>
		<path class="st0" d="M9.5,34.2H9.4c-0.2,0-0.2-0.2-0.2-0.2c0-0.1,0-0.2,0.1-0.2s0.1,0,0.2,0c0.1,0,0.2,0.1,0.3,0.3
			c0,0.1,0,0.1,0,0.1C9.6,34.2,9.6,34.2,9.5,34.2"/>
		<path class="st0" d="M11.7,33.3c-0.1,0-0.2-0.1-0.3-0.3s-0.2-0.3-0.4-0.3c-0.1,0-0.2-0.2-0.1-0.3c0-0.1,0.1-0.2,0.2-0.2h0.1
			c0.1,0,0.2,0,0.4-0.1h0.1c0.1,0,0.2,0.1,0.2,0.1c0,0.1,0,0.2-0.1,0.2c-0.1,0.1-0.2,0.2-0.1,0.4C11.8,33.1,11.8,33.3,11.7,33.3
			L11.7,33.3z"/>
		<path class="st0" d="M10.1,34.3c-0.1,0-0.2,0-0.2-0.1c0-0.2,0-0.3-0.1-0.4c-0.1-0.1-0.1-0.2,0-0.3c0-0.1,0.1-0.1,0.2-0.1
			c0.1,0,0.1,0,0.2,0.1c0.1,0.1,0.3,0.2,0.5,0.2s0.3,0,0.4,0.1c0.1,0.1,0.1,0.1,0.1,0.1c-0.1,0-0.1,0-0.1,0l0,0
			c-0.2,0-0.4,0.1-0.5,0.3C10.3,34.2,10.2,34.3,10.1,34.3"/>
		<path class="st0" d="M5,28C4.9,28,4.9,28.1,5,28c-0.1,0.1-0.1,0.2,0,0.2c0.3,0,0.5,0,0.6,0.1c0,0.1,0.1,0.1,0.1,0.1l0,0l0,0v-0.1
			c-0.1-0.2-0.1-0.3,0.1-0.6c0-0.1,0.1-0.1,0.1-0.2l0,0H5.8H5.7H5.6c-0.1,0-0.2,0-0.3-0.1c-0.1-0.1-0.1-0.4,0-0.6
			c0.1-0.3,0.2-0.6,0.3-0.9c0-0.1,0-0.1,0-0.2l0,0c-0.1,0-0.1,0.1-0.1,0.1c-0.1,0.2-0.1,0.3-0.2,0.5s-0.2,0.4-0.2,0.4
			c-0.1,0-0.3-0.2-0.4-0.4c-0.2-0.2-0.1-0.5,0-0.8c0-0.1,0-0.1,0-0.2H4.6c-0.1,0-0.1,0-0.1,0.1c-0.1,0.1-0.1,0.2-0.2,0.2
			S4.1,25.5,4,25.4H3.9c-0.1,0-0.1,0-0.1,0.1s0,0.1,0,0.2h0.1C4,25.8,4.2,26,4.2,26H4.1c-0.1,0-0.2,0-0.3,0H3.7
			c-0.1,0-0.1,0-0.1,0.1c0,0,0,0.1,0.1,0.1c0.6,0.1,1,0.5,1,0.8c0,0.1-0.1,0.1-0.2,0.2c-0.1,0-0.2,0-0.4-0.1H4c-0.1,0-0.1,0-0.1,0.1
			c0,0,0,0.1,0.1,0.1c0.6,0,1.1,0.4,1.1,0.6C5.3,27.9,5.1,28,5,28L5,28z M7,29.8L7,29.8c-0.5-0.2-0.8-0.4-1.1-0.8
			c-0.2-0.3-0.4-0.5-0.7-0.5c-0.5-0.1-0.9-0.3-1.1-0.5c0-0.1,0-0.1,0-0.1s0,0,0.1,0h0.3c0.1,0,0.1-0.1,0.1-0.1
			c0-0.1-0.1-0.1-0.2-0.2c-0.8-0.1-1.2-0.4-1.3-0.7c0-0.1,0-0.1,0-0.2l0.1-0.1c0,0,0.1,0,0.2,0h0.1c0,0,0.1,0,0.1-0.1
			c0,0,0-0.1-0.2-0.1c-0.2,0-0.4-0.2-0.6-0.4c0-0.1-0.1-0.2,0-0.3l0.1-0.1H3c0.1,0,0.1,0,0.2,0c0.1,0,0.1,0,0.1-0.1s0-0.2-0.1-0.3
			c0-0.1,0-0.1,0-0.2c0,0,0.1-0.1,0.2-0.1c0.1,0,0.1,0,0.2,0c0.1,0,0.2-0.1,0.3-0.2H4c0.1,0,0.1,0,0.2,0.1c0,0.1,0.1,0.3,0.2,0.2
			c0.1,0,0.1,0,0.2-0.2c0-0.2,0.1-0.3,0.2-0.3h0.1c0.2,0.1,0.2,0.4,0,0.9c0,0.1,0,0.1,0,0.2l0,0L5,26c0.1,0,0.2-0.1,0.2-0.3
			c0-0.4,0.2-0.6,0.3-0.6h0.1c0.1,0,0.2,0.1,0.3,0.2C6,25.5,6,25.9,5.8,26.6c0,0.1,0,0.2,0,0.2h0.1c0.1,0,0.1,0,0.2-0.1
			s0.1-0.2,0.2-0.2c0,0,0.1,0,0.1,0.1c0.1,0.1,0.1,0.3,0,0.5c-0.5,1-0.3,1.8,0.6,2.3C7.1,29.6,7.1,29.6,7,29.8
			C7.1,29.7,7.1,29.8,7,29.8"/>
		<path class="st0" d="M6.8,29.2c0,0-0.1,0-0.1-0.1c0-0.5-0.1-0.7-0.2-0.8c-0.1-0.1-0.1-0.2,0-0.3c0-0.1,0.1-0.1,0.1-0.1h0.1
			C6.9,28,7,28,7.2,28c0.1,0,0.2,0.1,0.2,0.2s0,0.1-0.1,0.2C7.1,28.5,7,28.6,7,28.9C7,29.1,6.9,29.2,6.8,29.2"/>
		<path class="st0" d="M7.1,27.8L7.1,27.8c-0.2,0-0.3-0.1-0.3-0.2s0.1-0.2,0.2-0.2h0.1c0.1,0,0.2,0,0.2,0.1c0,0,0.1,0.1,0.1,0.3
			C7.4,27.7,7.3,27.8,7.1,27.8"/>
		<path class="st0" d="M4.9,29.7c-0.1,0-0.2-0.1-0.2-0.1c0-0.1,0-0.3,0-0.3c0-0.1,0.1-0.1,0.2-0.1s0.2,0,0.2,0.2c0,0.1,0,0.2,0,0.3
			C5.1,29.6,5,29.7,4.9,29.7"/>
		<path class="st0" d="M5.4,30c-0.1,0-0.1,0-0.2-0.1v-0.1c0.1-0.2,0.1-0.4,0.1-0.5c0-0.2,0.1-0.3,0.2-0.3s0.2,0,0.2,0.1
			c0.1,0.2,0.2,0.3,0.4,0.4c0.3,0.1,0.4,0.3,0.3,0.3c0,0,0,0-0.1,0.1H6.2c-0.1-0.1-0.2-0.1-0.3-0.1c-0.1,0-0.2,0-0.2,0.1
			C5.6,30,5.5,30,5.4,30"/>
		<path class="st0" d="M2.6,21c0,0,0,0.1,0,0.2c0.2,0.3,0.4,0.7,0.3,0.9c0,0.1-0.1,0.1-0.1,0.1s-0.1,0-0.1,0.1s0,0.1,0,0.1
			c0,0.1,0.1,0.1,0.2,0.1c0.2,0.1,0.2,0.1,0.2,0.3V23c0.1,0.1,0.2,0.2,0.3,0.2s0.1,0,0.1-0.1s0-0.2-0.1-0.3c-0.1,0-0.1-0.1-0.1-0.1
			s0-0.1,0.1-0.2c0.3-0.3,0.3-0.4,0.3-0.4l0,0l0,0H3.6H3.5c-0.1,0-0.2-0.1-0.2-0.3c0-0.3,0-0.4,0.2-0.5C3.8,21.1,3.9,21,3.9,21
			s-0.1-0.1-0.2-0.1H3.6c0,0,0,0-0.1,0v-0.1c0-0.3,0.1-0.5,0.3-0.7C3.9,20,3.9,20,3.9,19.9s-0.1-0.1-0.2,0c-0.2,0-0.3,0.1-0.4,0.2
			c-0.1,0.1-0.1,0.2-0.1,0.4L3.1,21c0,0.1,0,0.2-0.1,0.2H2.9C2.7,21,2.7,21,2.6,21L2.6,21L2.6,21z M4,24.7L4,24.7
			c-0.3-0.1-0.3-0.3-0.4-0.5c-0.1-0.7-0.3-0.9-0.5-1c-0.3-0.1-0.4-0.3-0.4-0.4c0-0.3-0.1-0.4-0.3-0.4c-0.3,0-0.4-0.2-0.5-0.4
			s0-0.3,0-0.4c0,0,0,0,0.1,0c0.1,0,0.2,0,0.3,0.1h0.1c0,0,0.1,0,0.1-0.1s0-0.1,0-0.2L2.2,21c-0.1-0.2-0.1-0.4,0.1-0.6
			c0.1-0.2,0.2-0.2,0.2-0.2s0,0,0.1,0c0.2,0.3,0.2,0.3,0.3,0.3C3,20.5,3,20.3,3,20.3c0-0.4,0.1-0.9,0.4-0.9h0.1
			c0.1,0.1,0.1,0.1,0.2,0.1c0.1,0,0.3-0.1,0.4-0.3c0.1,0,0.1-0.1,0.1-0.1s0.1,0,0.2,0.2c0.1,0.3,0,0.6-0.3,0.8C4,20.2,4,20.3,4,20.3
			s0,0,0.1,0s0.2-0.1,0.4-0.2L4.6,20c0.1,0,0.1,0.1,0.1,0.2c0.1,0.4-0.2,0.7-0.8,1c-0.1,0-0.1,0.1-0.1,0.2s0.1,0.1,0.1,0.1H4
			c0.1-0.1,0.2-0.2,0.3-0.2s0.2,0,0.2,0.1s0,0.3-0.2,0.5c-0.1,0.2-0.2,0.3-0.4,0.4c-0.1,0-0.1,0.1-0.1,0.1v0.1C4,22.7,4,22.9,3.9,23
			c-0.2,0.2-0.2,0.7,0.1,1.4C4.1,24.5,4.1,24.6,4,24.7L4,24.7"/>
		<path class="st0" d="M5,23.1c-0.1,0-0.2,0-0.2-0.1c-0.1-0.1-0.1-0.2-0.1-0.2c0-0.1,0.1-0.2,0.2-0.2c0.2,0,0.3,0,0.3,0.1
			s0,0.1,0,0.3C5.1,23.1,5,23.1,5,23.1"/>
		<path class="st0" d="M2.2,23.9c-0.1,0-0.1,0-0.2,0c-0.1-0.1-0.1-0.2-0.1-0.3c0-0.1,0.1-0.2,0.2-0.2h0.1c0.1,0,0.1,0,0.2,0.1
			c0.1,0.1,0.1,0.2,0,0.3C2.3,23.9,2.3,23.9,2.2,23.9"/>
		<path class="st0" d="M3.4,24.5L3.4,24.5c-0.3-0.2-0.4-0.3-0.6-0.3c-0.1,0-0.1,0-0.2,0.1H2.5c-0.1,0-0.1,0-0.2-0.1c0,0,0-0.1,0-0.2
			c0.1-0.2,0.2-0.4,0.3-0.5c0-0.1,0.1-0.1,0.2-0.1c0.1,0,0.2,0.1,0.2,0.2l0.1,0.2l0.3,0.4C3.5,24.4,3.5,24.5,3.4,24.5L3.4,24.5z"/>
		<path class="st0" d="M4.3,24.3c0,0,0,0-0.1-0.1c0-0.1,0-0.3,0-0.4c0-0.2,0-0.3,0-0.4s0-0.2,0-0.2c0-0.1,0.1-0.1,0.1-0.1h0.1
			c0.1,0.1,0.3,0.2,0.5,0.2c0.1,0,0.2,0.1,0.2,0.2S5,23.7,4.9,23.7c-0.2,0-0.3,0.2-0.4,0.5C4.4,24.3,4.4,24.3,4.3,24.3"/>
		<path class="st0" d="M27.9,32.5c-0.1,0-0.2,0-0.2-0.1c0,0,0-0.1,0-0.2c0-0.1,0-0.2-0.2-0.3c-0.1-0.2-0.1-0.3-0.1-0.4
			c0.1-0.1,0.2-0.2,0.4-0.2c0.2,0,0.3,0,0.4,0.1s0.1,0.3,0,0.5c-0.1,0.1-0.1,0.2-0.1,0.3s0,0.2,0,0.2C28,32.5,28,32.5,27.9,32.5"/>
		<path class="st0" d="M32.3,28.6c-0.1,0-0.2,0-0.2-0.1s-0.1-0.2-0.3-0.2c-0.2-0.1-0.3-0.2-0.3-0.4c0-0.2,0.3-0.4,0.5-0.4
			s0.3,0.1,0.4,0.4c0,0.1,0,0.3,0.1,0.3c0.1,0.1,0.1,0.1,0.1,0.2S32.4,28.6,32.3,28.6"/>
		<path class="st0" d="M34.7,23.4c-0.1,0-0.1,0-0.2-0.1c0-0.1-0.1-0.1-0.3-0.1h-0.1c-0.3-0.1-0.4-0.2-0.3-0.4c0-0.2,0.2-0.4,0.4-0.5
			c0.2,0,0.3,0.1,0.4,0.3v0.1c0,0.1,0,0.2,0.2,0.2c0.1,0.1,0.1,0.2,0.1,0.2C34.9,23.3,34.8,23.4,34.7,23.4"/>
		<path class="st0" d="M29,34.3c-0.1,0-0.3-0.1-0.4-0.3c0-0.1-0.1-0.2-0.2-0.3c-0.1,0-0.2-0.1-0.2-0.2c0-0.1,0.1-0.2,0.2-0.2
			s0.1,0,0.2,0.1c0,0.1,0.1,0.1,0.2,0.1h0.1c0.3,0,0.4,0.1,0.4,0.3C29.4,33.9,29.2,34.2,29,34.3"/>
		<path class="st0" d="M34,29.5c-0.1,0-0.2,0-0.3-0.1s-0.1-0.1-0.2-0.1h-0.1h-0.1c-0.1,0-0.1,0-0.2-0.1L33,29.1
			c0-0.1,0.1-0.2,0.2-0.3h0.1h0.1c0.1,0,0.2-0.1,0.2-0.1c0.1,0,0.2-0.1,0.2-0.1c0.1,0,0.2,0.1,0.3,0.1c0.1,0.1,0.1,0.3,0,0.5
			C34.2,29.4,34.2,29.5,34,29.5"/>
		<path class="st0" d="M36.6,23.8c-0.1,0-0.1,0-0.2,0c-0.1-0.1-0.1-0.1-0.2-0.1c-0.1,0-0.1,0-0.1,0H36c-0.2,0-0.2-0.1-0.2-0.2
			s0-0.1,0-0.2l0.1-0.1H36h0.1c0.1,0,0.2-0.1,0.2-0.2c0.1-0.1,0.2-0.1,0.3-0.2c0.1,0,0.2,0,0.3,0.1c0.1,0.2,0.1,0.4,0,0.5
			C36.8,23.7,36.7,23.8,36.6,23.8"/>
		<path class="st0" d="M23.8,35.6c-0.1,0-0.3,0-0.4,0c-0.5-0.1-0.8-0.4-1.2-0.6c-0.6-0.3-1.1-0.5-1.6-0.5c-0.1,0-0.2-0.1-0.1-0.2
			c0-0.1,0.1-0.2,0.2-0.2c0.6,0.1,1.2,0.3,1.8,0.5c0.1,0,0.2,0.1,0.4,0.1c0.1,0,0.3-0.1,0.4-0.1l0.2-0.1c1.2-0.5,2.2-1,3.3-1.1
			c0.1,0,0.3,0,0.4,0s0.2,0,0.2,0s0,0.1-0.3,0.1H27c-0.2,0-0.4,0.1-0.7,0.2c-0.3,0.1-0.6,0.3-0.9,0.4c-0.5,0.3-1,0.5-1.3,0.5H24
			c-0.4,0.1-0.6,0.2-0.6,0.3s0.1,0.1,0.2,0.1s0.2,0,0.3,0c0.5,0,0.9-0.2,1.3-0.4c0.6-0.4,1.4-0.9,2.2-1h0.1h0.1c0,0,0,0-0.1,0.2
			c-0.5,0.6-1.5,1-2.3,1.3c-0.2,0.1-0.4,0.2-0.6,0.2C24.3,35.4,24.1,35.6,23.8,35.6"/>
		<path class="st0" d="M24.8,36.3c-0.8,0.1-1.2-0.1-1.4-0.5c0.2,0,0.4,0.1,0.6,0c0.6-0.1,1.3-0.4,1.9-0.7c0.5-0.2,0.9-0.4,1.2-0.4
			c0.2,0,0.3,0,0.3,0.1c0,0,0,0.1-0.1,0.1l-2.1,0.8c-0.1,0-0.2,0.1-0.2,0.2l0.1,0.1c0.5-0.1,1-0.4,1.4-0.6c0.4-0.2,0.7-0.4,1-0.4
			h0.1c0.1,0,0.1,0,0.1,0s0,0.1-0.1,0.1c-0.8,0.4-1.7,0.8-2.7,1.1C25,36.2,24.9,36.2,24.8,36.3"/>
		<path class="st0" d="M23,34.5c-0.2,0-0.5-0.1-0.5-0.2l0,0c0.4,0,0.7-0.3,1.1-0.6c0.2-0.2,0.4-0.4,0.7-0.5c0.1-0.1,0.2-0.1,0.3-0.1
			c0.1,0,0.3-0.1,0.5-0.1c0.3-0.2,0.6-0.3,0.8-0.3c0.2,0,0.3,0,0.5,0.1c0.1,0.1,0.1,0.1,0.1,0.1h-0.1c-0.1,0-0.1,0-0.2,0
			c-0.3,0-0.6,0.1-0.9,0.4l-0.8,0.2c-0.2,0.1-0.4,0.2-0.4,0.3c0,0,0,0.1,0.1,0.1h0.1l0.4-0.1c0.1,0,0.3-0.1,0.4-0.2
			c0.2-0.1,0.3-0.2,0.5-0.2s0.4-0.1,0.6-0.2c0.1,0,0.2-0.1,0.3-0.1l0,0c0.1,0,0.1,0.1,0.1,0.1c0,0.1,0,0.1-0.1,0.2
			c-0.2,0-0.3,0.1-0.5,0.1c-0.2,0.1-0.5,0.1-0.7,0.2c-0.8,0.3-1.4,0.6-2,0.9C23.2,34.5,23.1,34.5,23,34.5"/>
		<path class="st0" d="M28,33.2c-0.1,0-0.2,0-0.2-0.1s0-0.1,0.1-0.2c0-0.1,0.2-0.3,0.5-0.4c0.4-0.3,0.9-0.6,1.4-1.3
			c0.3-0.5,0.9-0.9,1.5-1.4c0.3-0.2,0.6-0.5,0.9-0.7c0.1-0.1,0.1-0.1,0.1-0.1s0,0,0,0.1c-0.1,0.4-0.4,0.8-1,1.2
			c-0.7,0.5-1.4,1.1-1.7,1.6c-0.1,0.1-0.1,0.2-0.1,0.2l0,0l0,0c0,0,0.1,0,0.3-0.2c0.4-0.6,0.9-1,1.4-1.3c0.5-0.4,0.9-0.8,1.1-1.3
			c0-0.1,0.1-0.1,0.1-0.1s0,0,0,0.3c0,0.4-0.3,0.9-0.8,1.3c-0.7,0.7-1.4,1.2-2,1.5c-0.7,0.2-1.2,0.4-1.4,0.7
			C28.1,33.2,28,33.2,28,33.2"/>
		<path class="st0" d="M30.4,32.7c-0.2,0-0.3,0-0.5,0s-0.3,0-0.5,0c-0.1,0-0.1,0-0.1-0.1c0,0,0-0.1,0.1-0.1c1.5-0.5,2.3-1.4,3-2.3
			c0.1-0.1,0.1-0.1,0.2-0.1h0.1v0.1c-0.4,0.7-1,1.2-1.5,1.6L31,31.9c-0.1,0.1-0.2,0.2-0.1,0.2c0,0,0,0.1,0.1,0.1h0.1
			c0.8-0.5,1.4-1.2,1.9-1.9c0-0.1,0.1-0.1,0.1-0.1s0,0,0,0.1c0.1,0.2-0.1,0.5-0.5,0.9c-0.5,0.6-1,1-1.4,1.2
			C31,32.6,30.7,32.7,30.4,32.7"/>
		<path class="st0" d="M28.7,31.9L28.7,31.9c-0.1,0-0.1-0.1-0.1-0.2c0.1-0.2,0.1-0.4,0.2-0.9c0.1-0.4,0.3-0.7,0.6-0.9
			c0.6-0.5,1-0.9,1.4-1.4h0.1c0,0,0,0,0,0.1c0,0.2-0.2,0.4-0.5,0.7c-0.2,0.2-0.4,0.4-0.6,0.6l-0.5,0.6c-0.1,0.1-0.1,0.2,0,0.2l0,0
			h0.1c0.1,0,0.2-0.1,0.2-0.2c0.3-0.4,0.7-0.9,1-1.2c0.1-0.1,0.1-0.1,0.1-0.1s0,0,0,0.2s-0.2,0.4-0.5,0.7c-0.3,0.2-0.6,0.6-0.9,1.1
			C29.2,31.6,29,31.8,28.7,31.9"/>
		<path class="st0" d="M32.7,29.1c-0.1,0-0.1,0-0.1-0.1s0-0.1,0-0.2c0.3-0.4,0.6-0.9,0.7-1.7l0.1-0.4c0.3-0.8,0.7-1.8,1.2-2.4
			c0.1-0.1,0.1-0.1,0.1-0.1s0,0,0,0.2C34.5,25,34.3,25.5,34,26c-0.2,0.4-0.4,0.8-0.5,1.2c0,0.1,0,0.2,0,0.2l0,0l0,0
			c0,0,0.1,0,0.1-0.1c0.4-0.5,0.6-1.2,0.8-1.9c0.2-0.5,0.3-1,0.5-1.4c0.1-0.2,0.1-0.2,0.1-0.2s0,0,0,0.2c0,0.8-0.3,1.8-1,3
			c-0.1,0.2-0.3,0.3-0.4,0.4c-0.2,0.1-0.3,0.3-0.4,0.5c-0.2,0.4-0.4,0.7-0.7,1C32.8,29,32.8,29.1,32.7,29.1"/>
		<path class="st0" d="M33,27.7c0,0-0.1,0-0.1-0.1c-0.7-1.1,0-2.4,0.7-3.3c0.1-0.1,0.1-0.1,0.2-0.1c0,0,0.1,0.1,0,0.1
			c-0.2,0.3-0.3,0.4-0.3,0.8c-0.1,0.4-0.2,0.6-0.3,0.7C33.1,25.9,33,26,33,26.1c-0.1,0.2-0.1,0.4-0.1,0.4l0,0l0,0
			c0.1,0,0.1-0.1,0.1-0.1c0.2-0.4,0.4-0.8,0.5-1.2c0.1-0.4,0.3-0.8,0.4-1c0.1-0.1,0.1-0.1,0.1-0.1h0.1c0,0,0,0.1,0,0.2
			c-0.1,0.4-0.4,1-0.8,1.8C33.1,26.3,33,26.6,33,27C33.1,27.4,33,27.7,33,27.7"/>
		<path class="st0" d="M33.9,28.1L33.9,28.1c-0.1,0-0.1-0.1,0-0.2c0.5-0.5,0.9-1,1.1-1.6c0.1-0.7,0.4-1.1,0.8-1.4
			c0.1-0.1,0.2-0.1,0.2-0.1s0,0.1-0.1,0.2c-0.3,0.3-0.4,0.7-0.5,1c-0.1,0.4-0.3,0.7-0.5,1c-0.1,0.1-0.1,0.2-0.1,0.2l0,0l0,0
			c0,0,0.1,0,0.1-0.1c0.2-0.1,0.3-0.5,0.5-1s0.4-1,0.7-1.4c0.1-0.1,0.1-0.1,0.2-0.1c0,0,0,0-0.1,0.2c-0.1,0.3-0.2,0.6-0.3,0.8
			c-0.2,0.5-0.4,1.1-0.7,1.5c-0.1,0.1-0.3,0.2-0.5,0.3c-0.1,0-0.2,0.1-0.3,0.1s-0.2,0.1-0.3,0.1C34.1,28.1,34,28.1,33.9,28.1"/>
		<path class="st0" d="M35,22.3c0,0-0.1,0-0.1-0.1c-0.7-0.5-0.8-1.4-0.5-2.7c0-0.1,0-0.1,0-0.1h0.1c0.2,0.2,0.2,0.4,0.1,0.7
			c-0.1,0.3-0.2,0.7,0.1,1.4c0,0.1,0.1,0.1,0.1,0.1l0,0l0,0v-0.1c-0.1-0.4-0.2-0.8-0.1-1.1c0-0.2,0-0.3,0-0.3c0-0.1,0-0.1,0-0.1l0,0
			c0,0,0,0,0.1,0c0.1,0.1,0.2,0.3,0.1,0.8c-0.1,0.3,0,0.5,0,0.8C35.1,21.9,35.2,22,35,22.3C35.1,22.3,35.1,22.3,35,22.3"/>
		<path class="st0" d="M35.2,23.7C35.1,23.7,35.1,23.7,35.2,23.7c-0.1,0-0.1-0.1-0.1-0.2c0-0.3,0.1-0.6,0.1-0.9
			c0.1-0.4,0.2-0.7,0.1-1c0-1.3,0.1-2.1,0.4-2.4c0.1-0.1,0.1-0.1,0.1-0.1s0.1,0,0.1,0.1c0.1,0.3,0,0.6-0.2,1
			c-0.1,0.4-0.2,0.9-0.1,1.4c0,0,0,0.1,0.1,0.1h0.1c0.1,0,0.1-0.1,0.1-0.2c-0.1-0.5,0-1,0.1-1.4c0.2-0.3,0.2-0.6,0.1-0.9
			c0-0.1,0-0.1,0-0.1s0,0,0.1,0.1s0.2,0.2,0.2,0.7c0,0.6-0.1,1.1-0.2,1.6c-0.1,0.3-0.3,0.5-0.4,0.7c-0.2,0.2-0.3,0.4-0.4,0.7
			c-0.1,0.1-0.1,0.3-0.1,0.6C35.3,23.6,35.3,23.7,35.2,23.7"/>
		<path class="st0" d="M35.7,22.9L35.7,22.9c0,0-0.1-0.1,0-0.2l0.7-1.1c0.1-0.2,0.2-0.8,0.2-1.8c0-0.1,0-0.1,0-0.2l0,0h0.1
			c0.1,0.1,0.2,0.2,0.1,0.4l-0.1,1l-0.1,0.6c0,0.1,0,0.1,0,0.1l0,0h0.1c0.1,0,0.1-0.1,0.1-0.2c0-0.3,0-0.5,0.2-0.8
			c0.1-0.5,0.1-0.9,0-1.2c0-0.1,0-0.1,0-0.1s0,0,0.1,0.1c0.2,0.3,0.3,0.6,0.2,0.8c-0.1,0.2-0.1,0.4-0.1,0.6c0,0.4-0.1,0.6-0.2,0.8
			l-1,1.1C35.9,22.9,35.8,22.9,35.7,22.9"/>
	</g>
	<g>
		<g>
			<path class="st1" d="M49.2,8.7c-0.3-0.2-0.7-0.4-1.3-0.4c-0.4,0-0.8,0.1-1.1,0.3C46.3,9.2,46,10,46,11c0,1.7,0.8,2.7,2.2,2.7
				c0.4,0,0.7-0.1,0.9-0.1c0-0.5-0.1-1.3-0.2-1.4c-0.1-0.1-0.5-0.3-0.8-0.4l0.1-0.6h3.3l0.1,0.6L50.9,12c0,0.3-0.1,1-0.1,1.7v0.2
				c-0.6,0.4-1.7,0.8-2.9,0.8c-2.4,0-3.9-1.4-3.9-3.6s1.9-3.8,4.1-3.8c1,0,1.9,0.3,2.6,0.6L51,8.3c-0.1,0.5-0.3,1.5-0.4,1.8
				c-0.3,0-0.9,0-1.1-0.1C49.4,9.5,49.3,8.9,49.2,8.7z"/>
			<path class="st1" d="M52.7,11.3c0-2.3,1.8-3.9,3.9-3.9c2.1,0,3.5,1.3,3.5,3.5c0,2.3-1.7,3.9-3.8,3.9
				C54.2,14.8,52.7,13.4,52.7,11.3z M57.7,13.3c0.2-0.4,0.4-1.1,0.4-2c0-1.7-0.5-2.8-1.8-2.8c-0.4,0-0.8,0.1-1.1,0.3
				c-0.4,0.5-0.6,1.3-0.6,2.3c0,1.6,0.7,2.6,1.9,2.6C57,13.7,57.5,13.6,57.7,13.3z"/>
			<path class="st1" d="M61.6,13.7c0-0.3,0.1-0.9,0.1-1.7v-1.7c0-0.5,0-1.4-0.1-1.6c-0.1-0.1-0.5-0.3-0.8-0.4l0.1-0.6h1.6
				c0.4,0,1.5-0.1,2-0.1c1.7,0,2.8,0.6,2.8,1.8c0,0.8-0.5,1.3-1.2,1.6c0.8,0.2,1.5,0.7,1.5,1.7c0,1.4-1.3,2-2.8,2
				c-0.6,0-1.6-0.1-2.2-0.1h-1.7L60.7,14L61.6,13.7z M63.4,10.6l1.4,0.1c0.3-0.2,0.6-0.6,0.6-1.2c0-0.4-0.1-0.6-0.2-0.8
				c-0.2-0.1-0.5-0.2-0.9-0.2c-0.2,0-0.5,0-0.7,0.1h-0.1c0,0.3-0.1,0.9-0.1,1.7C63.4,10.3,63.4,10.6,63.4,10.6z M63.6,13.6
				c0.1,0.1,0.5,0.2,0.9,0.2c0.2,0,0.5,0,0.7-0.1c0.3-0.2,0.4-0.6,0.4-1.1c0-0.6-0.4-1-1.1-1h-1.1V12C63.4,12.5,63.5,13.4,63.6,13.6
				L63.6,13.6z"/>
			<path class="st1" d="M69.3,13.7c0-0.3,0.1-0.9,0.1-1.7v-1.7c0-0.5,0-1.4-0.1-1.6c-0.1-0.1-0.5-0.3-0.8-0.4l0.1-0.6H72l0.1,0.6
				l-0.9,0.3c0,0.3-0.1,0.9-0.1,1.7V12c0,0.5,0,1.4,0.1,1.6c0.1,0.1,0.5,0.3,0.8,0.4v0.6h-3.4L68.5,14L69.3,13.7z"/>
			<path class="st1" d="M74.3,13.7c0-0.3,0.1-0.9,0.1-1.7v-1.7c0-0.5,0-1.4-0.1-1.6c-0.1-0.2-0.5-0.3-0.8-0.4l0.1-0.6h2.8
				c1.3,0,2.3,0,3.1-0.1c0.1,0.1,0.2,0.3,0.3,0.5c-0.1,0.5-0.3,1.4-0.3,1.7c-0.2,0-0.8,0-1-0.1l-0.3-1.2c-0.3-0.1-0.7-0.1-1.1-0.1
				c-0.3,0-0.6,0-0.9,0c0,0.3-0.1,1-0.1,1.8v0.5l2.1-0.1l0.2,0.3c0,0.3-0.1,0.6-0.1,0.8l-2.2-0.1V12c0,0.5,0,1.4,0.1,1.6
				c0,0,0,0,0.1,0.1c0.2,0.1,0.6,0.2,0.9,0.2s0.7,0,1-0.1l0.3-1.2c0.3,0,0.9,0,1.1,0.1c0,0.7,0,1.4,0,2.1h-6.2V14L74.3,13.7z"/>
			<path class="st1" d="M81.9,13.7c0-0.3,0.1-0.9,0.1-1.7v-1.7c0-0.5,0-1.4-0.1-1.6c-0.1-0.1-0.5-0.3-0.8-0.4l0.1-0.6h1.7
				c0.4,0,1.5-0.1,2-0.1c1.7,0,2.7,0.6,2.7,1.8c0,0.9-0.7,1.5-1.4,1.9c0.5,1,1,1.9,1.4,2.4l0.7,0.3l-0.1,0.6c-0.7,0-1.3,0-2.1,0
				c-0.3-0.8-0.8-1.8-1.3-2.8h-1V12c0,0.5,0,1.4,0.1,1.6c0.1,0.1,0.5,0.3,0.8,0.4l-0.1,0.6h-3.4L81,14L81.9,13.7z M83.7,10.8
				l1.4,0.1c0.3-0.2,0.6-0.7,0.6-1.3c0-0.5-0.1-0.7-0.2-0.9c-0.2-0.1-0.5-0.2-0.9-0.2c-0.3,0-0.6,0-0.8,0.1c0,0.3-0.1,0.9-0.1,1.7
				V10.8z"/>
			<path class="st1" d="M89.9,8.6c-0.2-0.1-0.5-0.3-0.8-0.4l0.1-0.6c0.7,0,1.6,0,2.3,0c0.6,1,2.1,3,3.3,4.4c0-1.9-0.1-3.1-0.2-3.3
				c-0.1-0.1-0.6-0.3-1-0.4l0.1-0.6h3.1l0.1,0.6L96,8.6c-0.1,0.6-0.2,2.8-0.2,6l-1.4,0.1l-0.9-1.3c-0.7-1-1.6-2.1-2.4-3.1
				c0,1.8,0.1,3.1,0.2,3.3s0.7,0.3,1.2,0.4l-0.1,0.6h-3.2L89,14l0.9-0.3c0-0.3,0.1-1.2,0.1-2.6S90,8.8,89.9,8.6z"/>
			<path class="st1" d="M97.4,11.3c0-2.3,1.8-3.9,3.9-3.9s3.5,1.3,3.5,3.5c0,2.3-1.7,3.9-3.8,3.9C98.9,14.8,97.4,13.4,97.4,11.3z
				 M102.5,13.3c0.2-0.4,0.4-1.1,0.4-2c0-1.7-0.5-2.8-1.8-2.8c-0.4,0-0.8,0.1-1.1,0.3c-0.4,0.5-0.6,1.3-0.6,2.3
				c0,1.6,0.7,2.6,1.9,2.6C101.8,13.7,102.2,13.6,102.5,13.3z"/>
		</g>
		<g>
			<path class="st1" d="M109.5,13.7c0-0.3,0.1-0.9,0.1-1.7v-1.7c0-0.5,0-1.4-0.1-1.6c-0.1-0.1-0.5-0.3-0.8-0.4l0.1-0.6h1.6
				c0.4,0,1.5-0.1,2-0.1c2.9,0,3.9,1.6,3.9,3.5c0,2.4-1.7,3.6-3.6,3.6c-0.6,0-1.6-0.1-2.2-0.1h-1.6l-0.1-0.6L109.5,13.7z
				 M111.5,13.6c0.2,0.1,1,0.3,1.6,0.1c0.8-0.4,1.2-1.3,1.2-2.6c0-1.1-0.4-1.9-0.8-2.2c-0.3-0.2-0.8-0.3-1.3-0.3
				c-0.3,0-0.6,0-0.8,0.1c0,0.3-0.1,0.9-0.1,1.7V12C111.3,12.5,111.4,13.4,111.5,13.6L111.5,13.6z"/>
			<path class="st1" d="M117.8,13.7c0-0.3,0.1-0.9,0.1-1.7v-1.7c0-0.5,0-1.4-0.1-1.6c-0.1-0.2-0.5-0.3-0.8-0.4l0.1-0.6h2.8
				c1.3,0,2.3,0,3.1-0.1c0.1,0.1,0.2,0.3,0.3,0.5c-0.1,0.5-0.3,1.4-0.3,1.7c-0.2,0-0.8,0-1-0.1l-0.3-1.2c-0.3-0.1-0.7-0.1-1.1-0.1
				c-0.3,0-0.6,0-0.9,0c0,0.3-0.1,1-0.1,1.8v0.5l2.1-0.1l0.2,0.3c0,0.3-0.1,0.6-0.1,0.8l-2.2-0.1V12c0,0.5,0,1.4,0.1,1.6
				c0,0,0,0,0.1,0.1c0.2,0.1,0.6,0.2,0.9,0.2s0.7,0,1-0.1l0.3-1.2c0.3,0,0.9,0,1.1,0.1c0,0.7,0,1.4,0,2.1H117l-0.1-0.6L117.8,13.7z"
				/>
		</g>
		<g>
			<path class="st1" d="M49.2,31.5h-4.9l-0.2-1l1.5-0.5c0.1-0.9,0.3-2.9,0.4-4.7c0.1-2.2,0.1-3.1,0-3.5c-0.2-0.2-0.8-0.5-1.3-0.7
				l0.2-1h5.4c0.5,1.6,1.6,4.8,2.5,6.8c0.9-2.3,2.1-5.3,2.5-6.8h5.1l0.2,1l-1.5,0.7l0.3,5.3c0.1,1.6,0.2,2.4,0.4,2.7
				c0.2,0.2,0.8,0.5,1.3,0.7l-0.2,1h-5.5l-0.2-1l1.6-0.5c0-0.9-0.2-4.8-0.3-7.6l-3,7.8c-0.8,0.1-1.5,0.1-2.3,0
				c-0.7-1.6-2.1-5.4-3.2-7.8l-0.1,3.5c-0.1,2.5-0.1,3.5,0,3.8c0.1,0.4,1,0.5,1.7,0.8L49.2,31.5z"/>
			<path class="st1" d="M64.8,30c0.1-0.4,0.1-1.5,0.1-2.8v-2.8c0-0.9,0-2.3-0.2-2.6c-0.2-0.3-0.8-0.5-1.3-0.7l0.2-1h4.6
				c2.1,0,3.7-0.1,5.1-0.1c0.2,0.2,0.4,0.6,0.5,0.8c-0.1,0.8-0.4,2.2-0.6,2.8c-0.4,0-1.3,0-1.7-0.1L71,21.6
				c-0.5-0.1-1.1-0.1-1.7-0.1c-0.5,0-1,0-1.4,0c0,0.5-0.1,1.6-0.1,2.9v0.8l3.4-0.2l0.3,0.4c-0.1,0.4-0.2,0.9-0.2,1.4l-3.5-0.1v0.6
				c0,0.9,0,2.3,0.2,2.6l0.1,0.1c0.3,0.2,0.9,0.3,1.5,0.3s1.2-0.1,1.6-0.1l0.6-2c0.5,0,1.5,0,1.8,0.1c0,1.1,0,2.2,0,3.4H63.5l-0.2-1
				L64.8,30z M70.7,15.4c0.4,0.5,0.9,1.3,1.1,2L71.5,18l-4.7,1.2L66.6,19l-0.3-0.9C67.6,17.2,69.3,16.2,70.7,15.4z"/>
			<path class="st1" d="M77,30c0.9-0.9,2.1-2.5,3.3-4.3c-1.3-1.7-2.4-3.2-3.1-3.9c-0.4-0.2-0.9-0.5-1.4-0.6l0.2-1
				c1.3,0,2.9,0,3.9-0.1c0.6,1.1,1.6,2.8,2.7,4.4c0.5-0.9,1-1.9,1.5-2.7c-0.4-0.2-1-0.5-1.6-0.7l0.2-1h5.1l0.2,1
				c-0.3,0.2-0.9,0.4-1.2,0.6c-1,0.9-2.1,2.4-3.2,4.1c1.3,1.8,2.5,3.4,3.2,4.1c0.4,0.2,0.9,0.4,1.4,0.6l-0.2,1c-1.3,0-2.8,0-3.9,0.1
				c-0.6-1.2-1.7-2.8-2.9-4.5c-0.6,1-1.1,2-1.6,2.8c0.5,0.2,1.2,0.4,1.8,0.6l-0.2,1h-5.4l-0.2-1C76.1,30.4,76.6,30.1,77,30z"/>
			<path class="st1" d="M91.8,30c0.1-0.4,0.1-1.5,0.1-2.8v-2.8c0-0.9,0-2.3-0.2-2.6c-0.2-0.2-0.8-0.5-1.3-0.7l0.2-1h5.5l0.2,1
				l-1.4,0.5c-0.1,0.4-0.1,1.5-0.1,2.8v2.8c0,0.9,0,2.3,0.2,2.6c0.2,0.2,0.8,0.5,1.3,0.7l-0.2,1h-5.5l-0.2-1L91.8,30z"/>
			<path class="st1" d="M106.5,29.6c0.1-0.3,0.4-1.1,0.6-2c0.4,0,1.5,0,1.9,0.1c0,0.7,0.1,1.8,0.1,2.4l-0.3,0.5
				c-1,0.6-2.5,1.1-4.3,1.1c-3.8,0-6.1-2.2-6.1-5.8c0-3.7,3-6.2,6.5-6.2c1.6,0,3,0.4,4.2,1l0.3,0.5c-0.2,0.9-0.4,2.1-0.6,2.9
				c-0.4,0-1.4,0-1.8-0.1c-0.2-0.9-0.4-1.7-0.6-2.1c-0.4-0.3-1.1-0.5-1.9-0.5c-0.7,0-1.4,0.2-1.7,0.4c-0.7,0.9-1.2,2.3-1.2,3.8
				c0,2.5,1.3,4.1,3.4,4.1C105.7,29.9,106.1,29.8,106.5,29.6z"/>
			<path class="st1" d="M111.6,26.2c0-3.8,2.9-6.3,6.3-6.3s5.7,2.1,5.7,5.6c0,3.7-2.8,6.3-6.2,6.3C114,31.8,111.6,29.7,111.6,26.2z
				 M119.8,29.4c0.4-0.6,0.7-1.8,0.7-3.3c0-2.8-0.9-4.5-3-4.5c-0.7,0-1.4,0.2-1.8,0.5c-0.6,0.9-1,2.2-1,3.7c0,2.6,1.2,4.3,3.1,4.3
				C118.7,30.1,119.4,29.8,119.8,29.4z"/>
		</g>
	</g>
</g>
</svg>
