<?xml version="1.0" encoding="utf-8"?>
<!-- Generator: Adobe Illustrator 26.0.2, SVG Export Plug-In . SVG Version: 6.00 Build 0)  -->
<svg version="1.1" id="Capa_1" xmlns="http://www.w3.org/2000/svg" xmlns:xlink="http://www.w3.org/1999/xlink" x="0px" y="0px"
	 viewBox="0 0 44 44" style="enable-background:new 0 0 44 44;" xml:space="preserve">
<style type="text/css">
	.st0{fill:#FCFCFA;}
</style>
<g>
	<path class="st0" d="M18,4C10.5,4,4.3,10.1,4.3,17.7S10.4,31.4,18,31.4s13.7-6.1,13.7-13.7C31.8,10.1,25.6,4,18,4z M18,27.3
		c-5.3,0-9.6-4.3-9.6-9.6s4.3-9.6,9.6-9.6s9.6,4.3,9.6,9.6C27.7,23,23.4,27.3,18,27.3z"/>
	<path class="st0" d="M23.7,27.7l9.9,9.9c1.2,1.3,3.3,1.3,4.5,0l0,0c1.3-1.2,1.3-3.3,0-4.5l-9.9-9.9"/>
</g>
</svg>
