<?xml version="1.0" encoding="utf-8"?>
<!-- Generator: Adobe Illustrator 16.0.0, SVG Export Plug-In . SVG Version: 6.00 Build 0)  -->
<!DOCTYPE svg PUBLIC "-//W3C//DTD SVG 1.1//EN" "http://www.w3.org/Graphics/SVG/1.1/DTD/svg11.dtd">
<svg version="1.1" id="Capa_1" xmlns="http://www.w3.org/2000/svg" xmlns:xlink="http://www.w3.org/1999/xlink" x="0px" y="0px"
	 width="44px" height="44px" viewBox="0 0 44 44" enable-background="new 0 0 44 44" xml:space="preserve">
<g>
	<path fill="#2C2C2B" d="M18.05,3.959c-7.57,0-13.707,6.137-13.707,13.708c0,7.572,6.137,13.707,13.707,13.707
		c7.572,0,13.707-6.135,13.707-13.707C31.757,10.096,25.622,3.959,18.05,3.959z M18.05,27.28c-5.309,0-9.613-4.304-9.613-9.614
		c0-5.31,4.304-9.614,9.613-9.614c5.312,0,9.614,4.305,9.614,9.614C27.664,22.977,23.361,27.28,18.05,27.28z"/>
	<path fill="#2C2C2B" d="M23.712,27.732l9.911,9.91c1.25,1.252,3.277,1.252,4.523,0l0,0c1.252-1.25,1.252-3.274,0-4.523l-9.906-9.91
		"/>
</g>
</svg>
